<svg xmlns="http://www.w3.org/2000/svg" xmlns:xlink="http://www.w3.org/1999/xlink" width="1000" zoomAndPan="magnify" viewBox="0 0 750 749.999995" height="1000" preserveAspectRatio="xMidYMid meet" version="1.0"><defs><g/></defs><g fill="#000f52" fill-opacity="1"><g transform="translate(2.837906, 727.949697)"><g><path d="M 11.65625 0.265625 L 10.09375 0.171875 L 7.390625 -0.703125 L 6.4375 -2.34375 L 6.53125 -18.4375 L 6.34375 -20.09375 L 6.4375 -42.625 L 6.265625 -44.28125 L 6.609375 -47.765625 L 6.53125 -58.296875 L 7.3125 -59.6875 L 9.140625 -60.640625 L 10.96875 -60.984375 L 12.53125 -60.71875 L 14.4375 -60.640625 L 19.84375 -60.984375 L 21.578125 -60.71875 L 26.890625 -60.640625 L 28.796875 -60.90625 L 31.578125 -60.984375 L 34.1875 -60.90625 L 35.9375 -60.296875 L 37.671875 -60.296875 L 39.15625 -59.6875 L 42.625 -58.640625 L 45.5 -56.71875 L 49.421875 -53.328125 L 51.5 -50.453125 L 53.15625 -47.5 L 54.203125 -44.28125 L 54.46875 -42.375 L 54.8125 -40.890625 L 54.640625 -33.75 L 54.109375 -32.359375 L 53.859375 -30.453125 L 52.375 -27.0625 L 50.546875 -24.265625 L 49.421875 -22.96875 L 48.28125 -21.84375 L 47.0625 -20.4375 L 45.765625 -19.40625 L 37.5 -16.09375 L 28.53125 -15.40625 L 26.703125 -15.75 L 24.796875 -15.578125 L 22.796875 -14.609375 L 22.015625 -13.046875 L 22.09375 -11.046875 L 21.921875 -9.390625 L 22.09375 -6.171875 L 22.015625 -4.265625 L 22.09375 -2.515625 L 21.3125 -0.703125 L 19.484375 0 L 17.484375 0.171875 L 15.921875 0.09375 Z M 24.703125 -29.5 L 26.796875 -29.671875 L 31.234375 -29.578125 L 33.9375 -29.921875 L 35.328125 -30.359375 L 36.71875 -31.40625 L 37.84375 -32.796875 L 38.625 -34.1875 L 39.234375 -35.75 L 39.40625 -38.109375 L 39.234375 -40.546875 L 38.96875 -42.109375 L 38.109375 -43.84375 L 36.96875 -44.984375 L 35.578125 -45.9375 L 33.84375 -46.71875 L 24.796875 -46.984375 L 22.96875 -46.109375 L 22.09375 -44.453125 L 22.09375 -40.890625 L 21.921875 -39.0625 L 22.1875 -32.015625 L 22.96875 -30.53125 Z M 24.703125 -29.5 "/></g></g></g><g fill="#000f52" fill-opacity="1"><g transform="translate(86.175323, 727.949697)"><g><path d="M 34.890625 1.125 L 29.671875 0.875 L 22.265625 -1.3125 L 20.625 -2 L 14.703125 -5.140625 L 13.578125 -6.4375 L 11.140625 -8.78125 L 7.046875 -14.359375 L 6.171875 -15.921875 L 5.65625 -17.75 L 4.34375 -20.703125 L 3.390625 -26.1875 L 3.734375 -36.28125 L 4.4375 -40.015625 L 6.09375 -44.8125 L 6.875 -46.28125 L 9.828125 -50.640625 L 12.1875 -53.25 L 14.96875 -55.15625 L 16.1875 -56.203125 L 20.625 -58.984375 L 23.921875 -59.859375 L 25.484375 -60.546875 L 27.234375 -61.078125 L 28.96875 -61.421875 L 35.0625 -61.765625 L 39.15625 -61.6875 L 50.546875 -58.109375 L 54.984375 -55.328125 L 58.71875 -51.9375 L 59.859375 -50.375 L 60.90625 -49.328125 L 62.03125 -47.84375 L 62.640625 -46.28125 L 64.203125 -43.40625 L 64.640625 -41.40625 L 65.34375 -39.578125 L 66.03125 -36.359375 L 66.46875 -30.359375 L 66.03125 -24.265625 L 65.6875 -22.359375 L 65.15625 -20.96875 L 64.90625 -19.234375 L 64.296875 -17.578125 L 60.90625 -11.578125 L 59.765625 -10 L 53.671875 -4.171875 L 45.9375 -0.703125 L 42.625 0.34375 Z M 32.453125 -14.1875 L 37.5 -14.359375 L 39.15625 -14.796875 L 40.71875 -14.96875 L 42.109375 -15.75 L 43.671875 -16.4375 L 46.375 -18.53125 L 47.421875 -20.09375 L 48.203125 -21.40625 L 49.15625 -22.703125 L 49.9375 -26.28125 L 50.453125 -30.625 L 50.109375 -34.359375 L 49.5 -35.9375 L 48.984375 -37.671875 L 48.28125 -39.234375 L 46.28125 -42.1875 L 43.59375 -44.203125 L 38.96875 -46.203125 L 34.796875 -46.453125 L 30.796875 -46.109375 L 28.96875 -45.671875 L 27.40625 -44.890625 L 24.875 -43.15625 L 23.578125 -42.015625 L 22.453125 -40.625 L 21.65625 -39.15625 L 20.625 -37.9375 L 20.09375 -36.359375 L 19.484375 -33.140625 L 19.40625 -30.53125 L 19.84375 -26.1875 L 21.484375 -21.3125 L 22.625 -20.09375 L 23.484375 -18.875 L 26.1875 -16.53125 L 29.140625 -14.96875 L 30.71875 -14.796875 Z M 32.453125 -14.1875 "/></g></g></g><g fill="#000f52" fill-opacity="1"><g transform="translate(182.039054, 727.949697)"><g><path d="M 23.40625 0.78125 L 19.84375 0.171875 L 16.4375 -1.046875 L 14.703125 -1.5625 L 13.046875 -2.34375 L 11.828125 -3.65625 L 8.78125 -5.5625 L 7.65625 -6.875 L 6.4375 -8 L 4.78125 -11.21875 L 4.265625 -12.78125 L 3.921875 -14.53125 L 3.65625 -16.265625 L 4.34375 -18.09375 L 5.921875 -18.796875 L 12.609375 -19.140625 L 14.265625 -18.875 L 15.828125 -19.046875 L 17.578125 -18.359375 L 20.4375 -15.21875 L 21.921875 -14.265625 L 23.40625 -13.484375 L 27.84375 -13.046875 L 29.40625 -13.3125 L 32.109375 -13.484375 L 35.0625 -14.796875 L 36.1875 -16.09375 L 36.890625 -18.265625 L 36.359375 -20.4375 L 35.234375 -21.484375 L 32.109375 -22.96875 L 18.4375 -24.53125 L 15.3125 -25.578125 L 9.390625 -28.796875 L 6.171875 -32.796875 L 4.78125 -35.84375 L 4.171875 -39.328125 L 4.09375 -42.015625 L 4.34375 -46.28125 L 5.921875 -51.0625 L 8.96875 -55.15625 L 13.140625 -58.03125 L 16.09375 -59.765625 L 19.40625 -60.8125 L 20.96875 -61.078125 L 22.703125 -61.15625 L 24.625 -61.6875 L 31.3125 -61.515625 L 34.71875 -60.8125 L 39.578125 -59.15625 L 45.328125 -55.15625 L 47.234375 -52.546875 L 49.671875 -48.03125 L 49.84375 -46.375 L 50.203125 -44.71875 L 49.5 -43.234375 L 47.84375 -42.015625 L 46.28125 -42.1875 L 44.546875 -42.1875 L 42.1875 -42.375 L 38.109375 -42.015625 L 36.1875 -43.15625 L 34.890625 -44.890625 L 33.40625 -46.109375 L 31.84375 -47.15625 L 30.28125 -47.59375 L 27.484375 -47.9375 L 24.703125 -47.84375 L 23.140625 -47.5 L 21.75 -46.71875 L 20.4375 -45.765625 L 19.40625 -44.625 L 18.96875 -42.28125 L 19.3125 -39.671875 L 20.625 -38.453125 L 23.84375 -36.890625 L 28.453125 -35.9375 L 30.96875 -35.9375 L 32.796875 -35.578125 L 34.53125 -35.5 L 36.28125 -35.234375 L 43.0625 -33.140625 L 44.625 -32.1875 L 46.015625 -31.5 L 47.59375 -30.109375 L 49.84375 -27.484375 L 50.8125 -26.09375 L 52.109375 -21.046875 L 52.28125 -18.265625 L 51.765625 -13.921875 L 51.25 -12.4375 L 50.71875 -10.875 L 49.765625 -8.96875 L 48.890625 -7.75 L 46.375 -5.140625 L 40.453125 -1.5625 L 38.796875 -0.78125 L 37.234375 -0.609375 L 35.5 0.09375 L 33.75 0.34375 L 32.015625 0.78125 L 30.28125 0.953125 Z M 23.40625 0.78125 "/></g></g></g><g fill="#000f52" fill-opacity="1"><g transform="translate(263.636706, 727.949697)"><g><path d="M 22.703125 0.171875 L 20.015625 0.09375 L 17.484375 -0.78125 L 16.359375 -2.703125 L 16.53125 -4.34375 L 16.609375 -9.390625 L 16.4375 -11.21875 L 16.53125 -18.265625 L 16.703125 -20.015625 L 16.4375 -32.96875 L 16.609375 -35.40625 L 16.53125 -37.15625 L 16.609375 -39.0625 L 16.4375 -41.5 L 16.609375 -44.28125 L 15.65625 -46.015625 L 14 -46.890625 L 5.734375 -47.0625 L 4 -46.890625 L 2.4375 -47.765625 L 1.65625 -49.328125 L 1.484375 -52.03125 L 1.65625 -56.375 L 1.5625 -58.109375 L 2.609375 -60.109375 L 4.265625 -60.984375 L 10.359375 -60.640625 L 13.046875 -60.90625 L 18.1875 -60.640625 L 19.75 -60.984375 L 21.65625 -60.8125 L 23.484375 -61.078125 L 25.140625 -60.984375 L 26.890625 -60.640625 L 33.9375 -60.984375 L 35.578125 -60.8125 L 37.40625 -61.078125 L 39.0625 -60.90625 L 44.453125 -60.90625 L 46.109375 -59.765625 L 47.0625 -58.03125 L 46.984375 -49.765625 L 45.9375 -47.84375 L 44.453125 -46.890625 L 42.890625 -46.984375 L 41.0625 -46.71875 L 37.84375 -47.15625 L 34.453125 -46.984375 L 32.796875 -45.9375 L 32.109375 -43.328125 L 31.84375 -35.75 L 32.109375 -33.9375 L 31.921875 -19.921875 L 32.1875 -18.015625 L 32.015625 -16.4375 L 32.109375 -12.96875 L 31.921875 -11.140625 L 32.1875 -7.828125 L 31.921875 -3.3125 L 31.0625 -0.875 L 28.53125 0 Z M 22.703125 0.171875 "/></g></g></g><g fill="#000f52" fill-opacity="1"><g transform="translate(338.362273, 727.949697)"><g><path d="M 29.140625 0.34375 L 27.40625 -0.09375 L 23.140625 -0.09375 L 20.53125 0.265625 L 17.046875 -0.09375 L 15.3125 0.09375 L 12.609375 0.171875 L 10.09375 -0.171875 L 8.4375 0 L 6.78125 0 L 5.046875 -0.78125 L 4.171875 -3.125 L 4.4375 -11.140625 L 5.390625 -12.703125 L 11.140625 -14.4375 L 12.09375 -17.046875 L 11.828125 -43.765625 L 11.046875 -46.109375 L 9.390625 -47.15625 L 7.65625 -47.15625 L 5.734375 -48.109375 L 4.78125 -49.84375 L 4.953125 -51.5 L 4.703125 -57.9375 L 5.5625 -60.03125 L 7.3125 -60.90625 L 9.3125 -60.90625 L 10.96875 -60.640625 L 18.09375 -60.640625 L 19.84375 -60.984375 L 21.40625 -60.8125 L 31.921875 -60.8125 L 33.5 -59.859375 L 34.53125 -58.203125 L 34.453125 -49.59375 L 33.578125 -48.203125 L 31.75 -47.5 L 30.015625 -47.234375 L 28.09375 -46.453125 L 27.484375 -44.453125 L 27.140625 -35.671875 L 27.484375 -29.40625 L 27.3125 -27.484375 L 27.40625 -17.921875 L 27.140625 -16.265625 L 28.1875 -14.265625 L 30.28125 -13.578125 L 32.109375 -13.578125 L 34.015625 -12.609375 L 35.0625 -10.96875 L 35.0625 -2.34375 L 34.1875 -0.703125 L 32.625 0.171875 Z M 29.140625 0.34375 "/></g></g></g><g fill="#000f52" fill-opacity="1"><g transform="translate(403.954082, 727.949697)"><g><path d="M 30.28125 0.703125 L 28.625 0.609375 L 27.0625 0.265625 L 25.3125 -0.34375 L 23.75 -0.703125 L 19.84375 -2.34375 L 16.09375 -4.34375 L 12.1875 -7.75 L 8.609375 -11.578125 L 4.875 -19.140625 L 3.65625 -24.09375 L 3.125 -30.453125 L 4 -37.9375 L 4.875 -41.5 L 7.046875 -46.375 L 8.703125 -48.890625 L 11.046875 -51.859375 L 14.796875 -55.25 L 17.3125 -57.15625 L 23.75 -60.203125 L 32.1875 -61.859375 L 37.578125 -61.765625 L 39.328125 -61.515625 L 40.984375 -61.421875 L 49.328125 -58.640625 L 55.25 -54.890625 L 57.6875 -52.375 L 58.640625 -50.71875 L 59.859375 -49.234375 L 60.640625 -47.84375 L 61.59375 -46.453125 L 62.125 -44.625 L 62.734375 -43.0625 L 63.25 -41.15625 L 62.640625 -39.40625 L 61.15625 -38.71875 L 58.546875 -38.453125 L 56.109375 -38.71875 L 54.375 -38.625 L 52.546875 -38.71875 L 50.984375 -38.546875 L 48.984375 -39.5 L 47.328125 -41.15625 L 46.375 -42.453125 L 43.84375 -44.984375 L 42.625 -45.9375 L 41.0625 -46.546875 L 38.359375 -47.328125 L 34.625 -47.5 L 28.796875 -46.71875 L 26.453125 -45.40625 L 24.359375 -43.765625 L 22.265625 -41.328125 L 21.40625 -39.671875 L 20.09375 -36.546875 L 19.484375 -33.0625 L 19.484375 -27.75 L 19.75 -25.84375 L 20.1875 -24.265625 L 20.796875 -23.0625 L 21.40625 -21.3125 L 23.3125 -18.265625 L 25.84375 -16.015625 L 28.890625 -14.4375 L 32.015625 -13.3125 L 34.53125 -13.046875 L 39.15625 -13.3125 L 42.1875 -14.96875 L 43.5 -15.484375 L 44.890625 -16.703125 L 46.890625 -18.96875 L 47.765625 -20.625 L 49.15625 -22.015625 L 51.15625 -23.0625 L 52.890625 -22.96875 L 54.640625 -23.0625 L 56.375 -22.796875 L 61.25 -23.140625 L 62.984375 -22.015625 L 63.515625 -20.4375 L 61.25 -13.828125 L 59.421875 -10.703125 L 57.421875 -8.09375 L 54.984375 -5.65625 L 50.71875 -2.609375 L 49.234375 -1.90625 L 47.421875 -1.3125 L 45.84375 -0.4375 L 40.71875 0.609375 L 34.625 1.046875 Z M 30.28125 0.703125 "/></g></g></g><g fill="#000f52" fill-opacity="1"><g transform="translate(496.425269, 727.949697)"><g><path d="M 51.328125 0.171875 L 49.5 0 L 47.5 -0.875 L 45.765625 -2.171875 L 45.234375 -3.734375 L 44.453125 -5.390625 L 42.796875 -6.78125 L 40.890625 -7.75 L 38.96875 -7.484375 L 37.40625 -7.65625 L 28.890625 -7.5625 L 27.3125 -7.828125 L 23.65625 -7.484375 L 22.015625 -7.75 L 20.1875 -6.78125 L 18.53125 -5.140625 L 16.96875 -2.265625 L 15.3125 -0.703125 L 13.3125 -0.09375 L 8.4375 0.09375 L 6.703125 -0.09375 L 3.3125 0.09375 L 1.5625 -0.4375 L 1.125 -2.609375 L 1.65625 -4.34375 L 3.390625 -7.828125 L 3.828125 -9.390625 L 4.78125 -10.609375 L 6.09375 -14.09375 L 7.65625 -16.875 L 8.265625 -18.625 L 9.140625 -19.921875 L 9.65625 -21.84375 L 18.53125 -40.453125 L 19.046875 -42.015625 L 20.015625 -43.671875 L 20.4375 -45.40625 L 21.40625 -46.71875 L 24.875 -54.71875 L 25.671875 -55.9375 L 26.28125 -57.6875 L 27.0625 -59.15625 L 28.625 -60.640625 L 31.40625 -61.59375 L 34.28125 -60.71875 L 35.75 -59.15625 L 37.40625 -56.109375 L 37.9375 -54.546875 L 38.890625 -52.984375 L 39.40625 -51.25 L 45.15625 -39.15625 L 45.765625 -37.328125 L 47.59375 -34.109375 L 48.109375 -32.71875 L 48.890625 -31.40625 L 49.421875 -29.5 L 50.28125 -27.84375 L 51.15625 -26.53125 L 54.46875 -18.625 L 56.203125 -15.484375 L 57.421875 -12.265625 L 59.765625 -7.75 L 61.078125 -4.53125 L 61.6875 -2.515625 L 61.421875 -0.4375 L 58.984375 0 L 56.28125 0.09375 L 54.640625 -0.09375 Z M 31.578125 -21.484375 L 35.0625 -21.578125 L 36.359375 -22.265625 L 36.71875 -23.84375 L 32.625 -33.40625 L 31.40625 -34.109375 L 30.453125 -33.328125 L 26.359375 -23.921875 L 26.453125 -22.265625 L 27.84375 -21.65625 L 29.84375 -21.84375 Z M 31.578125 -21.484375 "/></g></g></g><g fill="#000f52" fill-opacity="1"><g transform="translate(585.677874, 727.949697)"><g><path d="M 51.328125 -1.484375 L 50.03125 -2.609375 L 47.765625 -5.140625 L 34.28125 -18.53125 L 32.796875 -19.484375 L 31.671875 -20.796875 L 25.484375 -26.703125 L 24.359375 -28.1875 L 23.234375 -28.625 L 22.625 -27.140625 L 22.453125 -25.40625 L 22.359375 -3.390625 L 21.484375 -0.703125 L 19.75 0.171875 L 17.921875 0.265625 L 14.53125 0 L 12.609375 0.171875 L 9.046875 0 L 7.21875 -0.609375 L 6.4375 -2.265625 L 6.265625 -9.5625 L 6.4375 -11.21875 L 6.265625 -25.484375 L 6.53125 -26.96875 L 6.34375 -30.53125 L 6.4375 -32.015625 L 6.4375 -58.375 L 7.21875 -60.03125 L 9.21875 -60.90625 L 11.828125 -60.296875 L 13.828125 -59.25 L 15.140625 -58.203125 L 32.28125 -40.890625 L 34.71875 -38.96875 L 40.890625 -32.796875 L 42.1875 -32.1875 L 42.71875 -33.671875 L 42.890625 -49.234375 L 42.71875 -51.15625 L 42.984375 -54.8125 L 42.71875 -56.203125 L 42.796875 -58.03125 L 43.765625 -59.859375 L 45.40625 -60.8125 L 56.203125 -60.90625 L 57.9375 -59.9375 L 58.8125 -58.203125 L 59.078125 -46.109375 L 58.8125 -44.015625 L 58.8125 -35.40625 L 59.078125 -33.9375 L 58.90625 -2.171875 L 58.03125 -0.4375 L 56.109375 0.171875 L 53.671875 -0.09375 Z M 51.328125 -1.484375 "/></g></g></g><g fill="#000f52" fill-opacity="1"><g transform="translate(677.366194, 727.949697)"><g><path d="M 34.890625 1.125 L 29.671875 0.875 L 22.265625 -1.3125 L 20.625 -2 L 14.703125 -5.140625 L 13.578125 -6.4375 L 11.140625 -8.78125 L 7.046875 -14.359375 L 6.171875 -15.921875 L 5.65625 -17.75 L 4.34375 -20.703125 L 3.390625 -26.1875 L 3.734375 -36.28125 L 4.4375 -40.015625 L 6.09375 -44.8125 L 6.875 -46.28125 L 9.828125 -50.640625 L 12.1875 -53.25 L 14.96875 -55.15625 L 16.1875 -56.203125 L 20.625 -58.984375 L 23.921875 -59.859375 L 25.484375 -60.546875 L 27.234375 -61.078125 L 28.96875 -61.421875 L 35.0625 -61.765625 L 39.15625 -61.6875 L 50.546875 -58.109375 L 54.984375 -55.328125 L 58.71875 -51.9375 L 59.859375 -50.375 L 60.90625 -49.328125 L 62.03125 -47.84375 L 62.640625 -46.28125 L 64.203125 -43.40625 L 64.640625 -41.40625 L 65.34375 -39.578125 L 66.03125 -36.359375 L 66.46875 -30.359375 L 66.03125 -24.265625 L 65.6875 -22.359375 L 65.15625 -20.96875 L 64.90625 -19.234375 L 64.296875 -17.578125 L 60.90625 -11.578125 L 59.765625 -10 L 53.671875 -4.171875 L 45.9375 -0.703125 L 42.625 0.34375 Z M 32.453125 -14.1875 L 37.5 -14.359375 L 39.15625 -14.796875 L 40.71875 -14.96875 L 42.109375 -15.75 L 43.671875 -16.4375 L 46.375 -18.53125 L 47.421875 -20.09375 L 48.203125 -21.40625 L 49.15625 -22.703125 L 49.9375 -26.28125 L 50.453125 -30.625 L 50.109375 -34.359375 L 49.5 -35.9375 L 48.984375 -37.671875 L 48.28125 -39.234375 L 46.28125 -42.1875 L 43.59375 -44.203125 L 38.96875 -46.203125 L 34.796875 -46.453125 L 30.796875 -46.109375 L 28.96875 -45.671875 L 27.40625 -44.890625 L 24.875 -43.15625 L 23.578125 -42.015625 L 22.453125 -40.625 L 21.65625 -39.15625 L 20.625 -37.9375 L 20.09375 -36.359375 L 19.484375 -33.140625 L 19.40625 -30.53125 L 19.84375 -26.1875 L 21.484375 -21.3125 L 22.625 -20.09375 L 23.484375 -18.875 L 26.1875 -16.53125 L 29.140625 -14.96875 L 30.71875 -14.796875 Z M 32.453125 -14.1875 "/></g></g></g><path fill="#000f52" d="M 466.46875 141.5 C 420.484375 115.703125 373.75 89.160156 328.636719 62.488281 L 287.511719 38.3125 L 199.777344 89.035156 L 262.585938 125.300781 L 387.582031 197.828125 L 388.332031 197.828125 L 464.101562 241.320312 L 487.53125 228.484375 L 488.277344 227.738281 L 551.960938 191.472656 Z M 580.125 330.054688 L 486.65625 384.015625 L 469.707031 394.480469 L 468.960938 394.480469 L 452.011719 404.203125 L 422.976562 421.152344 L 422.226562 421.898438 L 410.886719 428.378906 C 410.886719 493.679688 410.886719 558.859375 410.886719 625.03125 C 410.886719 626.652344 410.140625 629.019531 409.265625 630.640625 C 406.027344 636.25 398.800781 637.867188 393.191406 634.628906 L 282.777344 570.945312 C 278.789062 569.328125 276.296875 565.339844 276.296875 560.480469 C 276.296875 537.921875 276.296875 515.367188 276.296875 492.808594 L 170.742188 431.496094 C 165.132812 428.253906 162.640625 421.027344 165.882812 415.417969 C 167.5 413.796875 169.121094 412.179688 170.742188 410.558594 L 217.472656 384.015625 L 276.296875 350.117188 L 276.296875 228.484375 C 276.296875 226.117188 276.296875 224.5 277.917969 222.007812 C 281.15625 216.398438 287.636719 214.777344 293.246094 218.019531 L 399.546875 279.207031 L 440.671875 255.03125 L 377.113281 218.765625 L 376.367188 218.019531 L 250.625 145.488281 L 170.742188 99.503906 C 169.121094 98.753906 167.5 97.136719 165.882812 94.640625 C 162.640625 89.78125 165.132812 82.554688 170.742188 79.3125 L 281.15625 15.007812 C 285.144531 12.640625 289.257812 12.640625 293.246094 15.007812 L 340.726562 42.425781 L 375.371094 62.613281 L 580.871094 181.003906 L 581.621094 181.003906 L 581.621094 181.753906 L 583.113281 181.753906 L 583.113281 182.5 L 583.863281 182.5 L 583.863281 183.25 L 584.609375 183.25 L 584.609375 184.742188 L 585.359375 184.742188 L 585.359375 186.238281 L 586.105469 186.238281 L 586.105469 188.484375 L 586.851562 188.484375 L 586.851562 318.835938 C 587.351562 324.320312 584.113281 328.433594 580.125 330.054688 Z M 475.316406 363.824219 L 563.175781 313.105469 L 563.175781 211.539062 L 499.492188 247.800781 L 499.492188 248.550781 L 387.582031 313.105469 L 374.746094 320.332031 L 374 321.082031 L 367.519531 325.066406 L 294.863281 367.066406 C 294.117188 367.066406 293.246094 367.066406 292.496094 367.8125 L 229.6875 404.078125 L 199.902344 421.027344 L 287.761719 471.746094 L 393.316406 411.304688 L 394.0625 411.304688 L 410.140625 401.585938 L 410.886719 400.839844 L 440.671875 383.890625 L 457.621094 374.167969 L 458.367188 373.421875 Z M 387.582031 441.964844 L 335.988281 471 L 299.726562 492.808594 C 299.726562 512.996094 299.726562 533.0625 299.726562 553.25 L 387.582031 603.972656 C 387.582031 550.011719 387.582031 496.050781 387.582031 441.964844 Z M 376.242188 292.914062 L 299.726562 248.675781 L 299.726562 336.535156 L 355.304688 304.257812 L 361.785156 300.269531 L 362.535156 300.269531 Z M 376.242188 292.914062 " fill-opacity="1" fill-rule="nonzero"/></svg>