<svg xmlns="http://www.w3.org/2000/svg" xmlns:xlink="http://www.w3.org/1999/xlink" width="512" zoomAndPan="magnify" viewBox="0 0 384 383.999986" height="512" preserveAspectRatio="xMidYMid meet" version="1.0"><defs><g/><clipPath id="0e4712ac70"><path d="M 3 0.078125 L 20 0.078125 L 20 23 L 3 23 Z M 3 0.078125 " clip-rule="nonzero"/></clipPath><clipPath id="c31f8c8257"><path d="M 32 0.078125 L 55 0.078125 L 55 23 L 32 23 Z M 32 0.078125 " clip-rule="nonzero"/></clipPath><clipPath id="60ea1602fe"><path d="M 66 0.078125 L 83 0.078125 L 83 23 L 66 23 Z M 66 0.078125 " clip-rule="nonzero"/></clipPath><clipPath id="341965588f"><path d="M 94 0.078125 L 112 0.078125 L 112 23 L 94 23 Z M 94 0.078125 " clip-rule="nonzero"/></clipPath><clipPath id="4fd6ae63fb"><path d="M 124 0.078125 L 129 0.078125 L 129 23 L 124 23 Z M 124 0.078125 " clip-rule="nonzero"/></clipPath><clipPath id="a21e97f9b6"><path d="M 142 0.078125 L 162 0.078125 L 162 23 L 142 23 Z M 142 0.078125 " clip-rule="nonzero"/></clipPath><clipPath id="57f9c6ae67"><path d="M 173 0.078125 L 194 0.078125 L 194 23 L 173 23 Z M 173 0.078125 " clip-rule="nonzero"/></clipPath><clipPath id="43352a2061"><path d="M 206 0.078125 L 226 0.078125 L 226 23 L 206 23 Z M 206 0.078125 " clip-rule="nonzero"/></clipPath><clipPath id="87ef5f6d30"><path d="M 238 0.078125 L 262 0.078125 L 262 23 L 238 23 Z M 238 0.078125 " clip-rule="nonzero"/></clipPath><clipPath id="859ab0ac64"><rect x="0" width="274" y="0" height="29"/></clipPath><clipPath id="d127487902"><path d="M 123 46.40625 L 261.375 46.40625 L 261.375 250.296875 L 123 250.296875 Z M 123 46.40625 " clip-rule="nonzero"/></clipPath></defs><g transform="matrix(1, 0, 0, 1, 60, 292)"><g clip-path="url(#859ab0ac64)"><g clip-path="url(#0e4712ac70)"><g fill="#000f52" fill-opacity="1"><g transform="translate(1.258645, 22.177286)"><g><path d="M 4.515625 0 C 3.898438 0 3.378906 -0.207031 2.953125 -0.625 C 2.535156 -1.039062 2.328125 -1.550781 2.328125 -2.15625 L 2.328125 -19.375 C 2.328125 -19.957031 2.535156 -20.460938 2.953125 -20.890625 C 3.378906 -21.316406 3.898438 -21.53125 4.515625 -21.53125 L 10.421875 -21.53125 C 11.953125 -21.53125 13.332031 -21.164062 14.5625 -20.4375 C 15.800781 -19.707031 16.789062 -18.722656 17.53125 -17.484375 C 18.269531 -16.253906 18.640625 -14.878906 18.640625 -13.359375 C 18.640625 -11.878906 18.269531 -10.539062 17.53125 -9.34375 C 16.789062 -8.15625 15.796875 -7.21875 14.546875 -6.53125 C 13.304688 -5.851562 11.929688 -5.515625 10.421875 -5.515625 L 6.734375 -5.515625 L 6.734375 -2.15625 C 6.734375 -1.570312 6.515625 -1.066406 6.078125 -0.640625 C 5.640625 -0.210938 5.117188 0 4.515625 0 Z M 6.734375 -17.5 L 6.734375 -9.546875 L 10.5 -9.546875 C 11.613281 -9.546875 12.515625 -9.921875 13.203125 -10.671875 C 13.890625 -11.429688 14.234375 -12.367188 14.234375 -13.484375 C 14.234375 -14.609375 13.890625 -15.554688 13.203125 -16.328125 C 12.515625 -17.109375 11.613281 -17.5 10.5 -17.5 Z M 6.734375 -17.5 "/></g></g></g></g><g clip-path="url(#c31f8c8257)"><g fill="#000f52" fill-opacity="1"><g transform="translate(30.68855, 22.177286)"><g><path d="M 12.546875 0.296875 C 11.023438 0.296875 9.585938 0.015625 8.234375 -0.546875 C 6.890625 -1.117188 5.707031 -1.910156 4.6875 -2.921875 C 3.664062 -3.929688 2.863281 -5.101562 2.28125 -6.4375 C 1.695312 -7.769531 1.40625 -9.203125 1.40625 -10.734375 C 1.40625 -12.253906 1.695312 -13.6875 2.28125 -15.03125 C 2.863281 -16.382812 3.664062 -17.566406 4.6875 -18.578125 C 5.707031 -19.597656 6.890625 -20.398438 8.234375 -20.984375 C 9.585938 -21.566406 11.023438 -21.859375 12.546875 -21.859375 C 14.046875 -21.859375 15.472656 -21.566406 16.828125 -20.984375 C 18.191406 -20.398438 19.394531 -19.597656 20.4375 -18.578125 C 21.476562 -17.566406 22.296875 -16.382812 22.890625 -15.03125 C 23.484375 -13.6875 23.78125 -12.253906 23.78125 -10.734375 C 23.78125 -9.203125 23.484375 -7.769531 22.890625 -6.4375 C 22.296875 -5.101562 21.476562 -3.929688 20.4375 -2.921875 C 19.394531 -1.910156 18.191406 -1.117188 16.828125 -0.546875 C 15.472656 0.015625 14.046875 0.296875 12.546875 0.296875 Z M 12.546875 -3.828125 C 13.847656 -3.828125 15.015625 -4.125 16.046875 -4.71875 C 17.078125 -5.320312 17.890625 -6.144531 18.484375 -7.1875 C 19.078125 -8.226562 19.375 -9.410156 19.375 -10.734375 C 19.375 -12.078125 19.078125 -13.273438 18.484375 -14.328125 C 17.890625 -15.378906 17.078125 -16.207031 16.046875 -16.8125 C 15.015625 -17.425781 13.847656 -17.734375 12.546875 -17.734375 C 11.265625 -17.734375 10.113281 -17.425781 9.09375 -16.8125 C 8.070312 -16.207031 7.265625 -15.378906 6.671875 -14.328125 C 6.078125 -13.273438 5.78125 -12.078125 5.78125 -10.734375 C 5.78125 -9.410156 6.078125 -8.226562 6.671875 -7.1875 C 7.265625 -6.144531 8.070312 -5.320312 9.09375 -4.71875 C 10.113281 -4.125 11.265625 -3.828125 12.546875 -3.828125 Z M 12.546875 -3.828125 "/></g></g></g></g><g clip-path="url(#60ea1602fe)"><g fill="#000f52" fill-opacity="1"><g transform="translate(65.936935, 22.177286)"><g><path d="M 8.515625 0.296875 C 7.328125 0.296875 6.269531 0.117188 5.34375 -0.234375 C 4.425781 -0.597656 3.644531 -1.046875 3 -1.578125 C 2.363281 -2.117188 1.867188 -2.660156 1.515625 -3.203125 C 1.179688 -3.671875 1.050781 -4.148438 1.125 -4.640625 C 1.207031 -5.128906 1.425781 -5.539062 1.78125 -5.875 C 2.144531 -6.21875 2.59375 -6.390625 3.125 -6.390625 C 3.394531 -6.390625 3.691406 -6.332031 4.015625 -6.21875 C 4.347656 -6.113281 4.65625 -5.878906 4.9375 -5.515625 C 5.320312 -5.023438 5.84375 -4.617188 6.5 -4.296875 C 7.164062 -3.984375 7.984375 -3.828125 8.953125 -3.828125 C 9.828125 -3.828125 10.539062 -4.023438 11.09375 -4.421875 C 11.65625 -4.816406 11.9375 -5.460938 11.9375 -6.359375 C 11.9375 -7.003906 11.628906 -7.53125 11.015625 -7.9375 C 10.398438 -8.34375 9.5 -8.769531 8.3125 -9.21875 C 7.101562 -9.664062 6.003906 -10.148438 5.015625 -10.671875 C 4.023438 -11.203125 3.242188 -11.867188 2.671875 -12.671875 C 2.097656 -13.484375 1.8125 -14.519531 1.8125 -15.78125 C 1.8125 -17.082031 2.109375 -18.179688 2.703125 -19.078125 C 3.296875 -19.972656 4.109375 -20.660156 5.140625 -21.140625 C 6.171875 -21.617188 7.316406 -21.859375 8.578125 -21.859375 C 9.898438 -21.859375 11.179688 -21.59375 12.421875 -21.0625 C 13.671875 -20.539062 14.609375 -19.753906 15.234375 -18.703125 C 15.484375 -18.296875 15.539062 -17.875 15.40625 -17.4375 C 15.269531 -17 15.078125 -16.660156 14.828125 -16.421875 C 14.535156 -16.128906 14.117188 -15.953125 13.578125 -15.890625 C 13.046875 -15.835938 12.523438 -16.023438 12.015625 -16.453125 C 11.046875 -17.304688 9.8125 -17.734375 8.3125 -17.734375 C 7.75 -17.734375 7.242188 -17.585938 6.796875 -17.296875 C 6.347656 -17.003906 6.125 -16.53125 6.125 -15.875 C 6.125 -15.09375 6.4375 -14.503906 7.0625 -14.109375 C 7.6875 -13.722656 8.382812 -13.394531 9.15625 -13.125 C 10.519531 -12.644531 11.738281 -12.117188 12.8125 -11.546875 C 13.894531 -10.984375 14.75 -10.289062 15.375 -9.46875 C 16 -8.644531 16.3125 -7.609375 16.3125 -6.359375 C 16.3125 -5.128906 15.976562 -4.007812 15.3125 -3 C 14.65625 -1.988281 13.738281 -1.1875 12.5625 -0.59375 C 11.382812 0 10.035156 0.296875 8.515625 0.296875 Z M 8.515625 0.296875 "/></g></g></g></g><g clip-path="url(#341965588f)"><g fill="#000f52" fill-opacity="1"><g transform="translate(93.886987, 22.177286)"><g><path d="M 2.359375 -21.53125 L 15.578125 -21.53125 C 16.179688 -21.53125 16.695312 -21.316406 17.125 -20.890625 C 17.550781 -20.460938 17.765625 -19.957031 17.765625 -19.375 C 17.765625 -18.882812 17.550781 -18.441406 17.125 -18.046875 C 16.695312 -17.648438 16.179688 -17.453125 15.578125 -17.453125 L 11.171875 -17.453125 L 11.171875 -2.15625 C 11.171875 -1.550781 10.953125 -1.039062 10.515625 -0.625 C 10.078125 -0.207031 9.554688 0 8.953125 0 C 8.347656 0 7.832031 -0.207031 7.40625 -0.625 C 6.976562 -1.039062 6.765625 -1.550781 6.765625 -2.15625 L 6.765625 -17.453125 L 2.359375 -17.453125 C 1.753906 -17.453125 1.238281 -17.65625 0.8125 -18.0625 C 0.382812 -18.46875 0.171875 -18.90625 0.171875 -19.375 C 0.171875 -19.957031 0.382812 -20.460938 0.8125 -20.890625 C 1.238281 -21.316406 1.753906 -21.53125 2.359375 -21.53125 Z M 2.359375 -21.53125 "/></g></g></g></g><g clip-path="url(#4fd6ae63fb)"><g fill="#000f52" fill-opacity="1"><g transform="translate(121.937945, 22.177286)"><g><path d="M 4.515625 0 C 3.898438 0 3.378906 -0.210938 2.953125 -0.640625 C 2.535156 -1.066406 2.328125 -1.570312 2.328125 -2.15625 L 2.328125 -19.375 C 2.328125 -19.976562 2.535156 -20.488281 2.953125 -20.90625 C 3.378906 -21.320312 3.898438 -21.53125 4.515625 -21.53125 C 5.117188 -21.53125 5.640625 -21.320312 6.078125 -20.90625 C 6.515625 -20.488281 6.734375 -19.976562 6.734375 -19.375 L 6.734375 -2.15625 C 6.734375 -1.570312 6.515625 -1.066406 6.078125 -0.640625 C 5.640625 -0.210938 5.117188 0 4.515625 0 Z M 4.515625 0 "/></g></g></g></g><g clip-path="url(#a21e97f9b6)"><g fill="#000f52" fill-opacity="1"><g transform="translate(141.0762, 22.177286)"><g><path d="M 12.25 0.296875 C 10.769531 0.296875 9.375 0.00390625 8.0625 -0.578125 C 6.75 -1.160156 5.597656 -1.953125 4.609375 -2.953125 C 3.617188 -3.960938 2.835938 -5.132812 2.265625 -6.46875 C 1.691406 -7.8125 1.40625 -9.234375 1.40625 -10.734375 C 1.40625 -12.171875 1.675781 -13.554688 2.21875 -14.890625 C 2.757812 -16.222656 3.507812 -17.410156 4.46875 -18.453125 C 5.4375 -19.492188 6.566406 -20.320312 7.859375 -20.9375 C 9.148438 -21.550781 10.554688 -21.859375 12.078125 -21.859375 C 13.597656 -21.859375 14.96875 -21.628906 16.1875 -21.171875 C 17.414062 -20.710938 18.59375 -19.96875 19.71875 -18.9375 C 20.164062 -18.53125 20.429688 -18.046875 20.515625 -17.484375 C 20.609375 -16.929688 20.488281 -16.421875 20.15625 -15.953125 C 19.789062 -15.472656 19.304688 -15.238281 18.703125 -15.25 C 18.097656 -15.257812 17.550781 -15.445312 17.0625 -15.8125 C 16.382812 -16.394531 15.648438 -16.851562 14.859375 -17.1875 C 14.078125 -17.519531 13.226562 -17.6875 12.3125 -17.6875 C 11.144531 -17.6875 10.0625 -17.398438 9.0625 -16.828125 C 8.0625 -16.265625 7.265625 -15.457031 6.671875 -14.40625 C 6.078125 -13.363281 5.78125 -12.148438 5.78125 -10.765625 C 5.78125 -9.503906 6.0625 -8.351562 6.625 -7.3125 C 7.1875 -6.269531 7.953125 -5.4375 8.921875 -4.8125 C 9.898438 -4.1875 11.007812 -3.875 12.25 -3.875 C 13.207031 -3.875 14.078125 -4.035156 14.859375 -4.359375 C 15.648438 -4.679688 16.382812 -5.132812 17.0625 -5.71875 C 17.53125 -6.070312 18.070312 -6.253906 18.6875 -6.265625 C 19.300781 -6.285156 19.789062 -6.054688 20.15625 -5.578125 C 20.488281 -5.109375 20.609375 -4.585938 20.515625 -4.015625 C 20.429688 -3.441406 20.164062 -2.957031 19.71875 -2.5625 C 18.59375 -1.550781 17.414062 -0.820312 16.1875 -0.375 C 14.96875 0.0703125 13.65625 0.296875 12.25 0.296875 Z M 12.25 0.296875 "/></g></g></g></g><g clip-path="url(#57f9c6ae67)"><g fill="#000f52" fill-opacity="1"><g transform="translate(173.095829, 22.177286)"><g><path d="M 12.78125 -19.515625 L 19.6875 -3.09375 C 19.90625 -2.644531 19.960938 -2.175781 19.859375 -1.6875 C 19.765625 -1.207031 19.539062 -0.804688 19.1875 -0.484375 C 18.84375 -0.160156 18.378906 0 17.796875 0 C 17.347656 0.0195312 16.929688 -0.0859375 16.546875 -0.328125 C 16.171875 -0.578125 15.90625 -0.914062 15.75 -1.34375 L 14.796875 -3.796875 L 5.78125 -3.796875 L 4.84375 -1.3125 C 4.6875 -0.882812 4.421875 -0.554688 4.046875 -0.328125 C 3.679688 -0.109375 3.273438 0 2.828125 0 C 1.992188 0 1.382812 -0.316406 1 -0.953125 C 0.625 -1.597656 0.582031 -2.3125 0.875 -3.09375 L 7.703125 -19.484375 C 7.953125 -20.066406 8.28125 -20.550781 8.6875 -20.9375 C 9.101562 -21.332031 9.628906 -21.53125 10.265625 -21.53125 C 10.910156 -21.53125 11.414062 -21.382812 11.78125 -21.09375 C 12.15625 -20.800781 12.488281 -20.273438 12.78125 -19.515625 Z M 10.296875 -15.546875 L 7.328125 -7.84375 L 13.25 -7.84375 Z M 10.296875 -15.546875 "/></g></g></g></g><g clip-path="url(#43352a2061)"><g fill="#000f52" fill-opacity="1"><g transform="translate(203.736527, 22.177286)"><g><path d="M 19.25 -21.53125 C 19.851562 -21.53125 20.363281 -21.320312 20.78125 -20.90625 C 21.207031 -20.488281 21.421875 -19.976562 21.421875 -19.375 L 21.421875 -2.15625 C 21.421875 -1.707031 21.285156 -1.300781 21.015625 -0.9375 C 20.753906 -0.582031 20.429688 -0.316406 20.046875 -0.140625 C 19.691406 0.015625 19.289062 0.046875 18.84375 -0.046875 C 18.394531 -0.148438 18 -0.414062 17.65625 -0.84375 L 6.734375 -13.859375 L 6.734375 -2.15625 C 6.734375 -1.570312 6.515625 -1.066406 6.078125 -0.640625 C 5.640625 -0.210938 5.117188 0 4.515625 0 C 3.898438 0 3.378906 -0.210938 2.953125 -0.640625 C 2.535156 -1.066406 2.328125 -1.570312 2.328125 -2.15625 L 2.328125 -19.3125 C 2.328125 -19.820312 2.453125 -20.25 2.703125 -20.59375 C 2.960938 -20.945312 3.273438 -21.203125 3.640625 -21.359375 C 4.054688 -21.535156 4.503906 -21.570312 4.984375 -21.46875 C 5.472656 -21.375 5.894531 -21.125 6.25 -20.71875 L 17.015625 -7.84375 L 17.015625 -19.375 C 17.015625 -19.976562 17.234375 -20.488281 17.671875 -20.90625 C 18.109375 -21.320312 18.632812 -21.53125 19.25 -21.53125 Z M 19.25 -21.53125 "/></g></g></g></g><g clip-path="url(#87ef5f6d30)"><g fill="#000f52" fill-opacity="1"><g transform="translate(237.572321, 22.177286)"><g><path d="M 12.546875 0.296875 C 11.023438 0.296875 9.585938 0.015625 8.234375 -0.546875 C 6.890625 -1.117188 5.707031 -1.910156 4.6875 -2.921875 C 3.664062 -3.929688 2.863281 -5.101562 2.28125 -6.4375 C 1.695312 -7.769531 1.40625 -9.203125 1.40625 -10.734375 C 1.40625 -12.253906 1.695312 -13.6875 2.28125 -15.03125 C 2.863281 -16.382812 3.664062 -17.566406 4.6875 -18.578125 C 5.707031 -19.597656 6.890625 -20.398438 8.234375 -20.984375 C 9.585938 -21.566406 11.023438 -21.859375 12.546875 -21.859375 C 14.046875 -21.859375 15.472656 -21.566406 16.828125 -20.984375 C 18.191406 -20.398438 19.394531 -19.597656 20.4375 -18.578125 C 21.476562 -17.566406 22.296875 -16.382812 22.890625 -15.03125 C 23.484375 -13.6875 23.78125 -12.253906 23.78125 -10.734375 C 23.78125 -9.203125 23.484375 -7.769531 22.890625 -6.4375 C 22.296875 -5.101562 21.476562 -3.929688 20.4375 -2.921875 C 19.394531 -1.910156 18.191406 -1.117188 16.828125 -0.546875 C 15.472656 0.015625 14.046875 0.296875 12.546875 0.296875 Z M 12.546875 -3.828125 C 13.847656 -3.828125 15.015625 -4.125 16.046875 -4.71875 C 17.078125 -5.320312 17.890625 -6.144531 18.484375 -7.1875 C 19.078125 -8.226562 19.375 -9.410156 19.375 -10.734375 C 19.375 -12.078125 19.078125 -13.273438 18.484375 -14.328125 C 17.890625 -15.378906 17.078125 -16.207031 16.046875 -16.8125 C 15.015625 -17.425781 13.847656 -17.734375 12.546875 -17.734375 C 11.265625 -17.734375 10.113281 -17.425781 9.09375 -16.8125 C 8.070312 -16.207031 7.265625 -15.378906 6.671875 -14.328125 C 6.078125 -13.273438 5.78125 -12.078125 5.78125 -10.734375 C 5.78125 -9.410156 6.078125 -8.226562 6.671875 -7.1875 C 7.265625 -6.144531 8.070312 -5.320312 9.09375 -4.71875 C 10.113281 -4.125 11.265625 -3.828125 12.546875 -3.828125 Z M 12.546875 -3.828125 "/></g></g></g></g></g></g><g clip-path="url(#d127487902)"><path fill="#000f52" d="M 221.882812 88.394531 C 206.859375 79.96875 191.589844 71.296875 176.851562 62.585938 L 163.417969 54.6875 L 134.757812 71.257812 L 155.273438 83.105469 L 196.109375 106.796875 L 196.355469 106.796875 L 221.109375 121.007812 L 228.761719 116.8125 L 229.007812 116.570312 L 249.8125 104.722656 Z M 259.011719 149.996094 L 228.476562 167.625 L 222.941406 171.042969 L 222.695312 171.042969 L 217.160156 174.21875 L 207.671875 179.757812 L 207.429688 180 L 203.722656 182.117188 C 203.722656 203.453125 203.722656 224.746094 203.722656 246.363281 C 203.722656 246.890625 203.480469 247.664062 203.195312 248.195312 C 202.136719 250.027344 199.773438 250.554688 197.941406 249.496094 L 161.871094 228.695312 C 160.566406 228.164062 159.753906 226.863281 159.753906 225.273438 C 159.753906 217.90625 159.753906 210.535156 159.753906 203.167969 L 125.269531 183.136719 C 123.4375 182.078125 122.625 179.714844 123.683594 177.882812 C 124.210938 177.355469 124.742188 176.824219 125.269531 176.296875 L 140.539062 167.625 L 159.753906 156.550781 L 159.753906 116.8125 C 159.753906 116.039062 159.753906 115.511719 160.28125 114.695312 C 161.339844 112.863281 163.457031 112.335938 165.289062 113.394531 L 200.019531 133.382812 L 213.453125 125.484375 L 192.691406 113.636719 L 192.445312 113.394531 L 151.367188 89.699219 L 125.269531 74.675781 C 124.742188 74.433594 124.210938 73.902344 123.683594 73.089844 C 122.625 71.5 123.4375 69.140625 125.269531 68.082031 L 161.339844 47.074219 C 162.644531 46.300781 163.988281 46.300781 165.289062 47.074219 L 180.800781 56.03125 L 192.121094 62.625 L 259.257812 101.300781 L 259.5 101.300781 L 259.5 101.546875 L 259.988281 101.546875 L 259.988281 101.789062 L 260.234375 101.789062 L 260.234375 102.035156 L 260.476562 102.035156 L 260.476562 102.523438 L 260.722656 102.523438 L 260.722656 103.011719 L 260.964844 103.011719 L 260.964844 103.746094 L 261.210938 103.746094 L 261.210938 146.332031 C 261.375 148.121094 260.316406 149.464844 259.011719 149.996094 Z M 224.773438 161.027344 L 253.476562 144.457031 L 253.476562 111.277344 L 232.671875 123.125 L 232.671875 123.367188 L 196.109375 144.457031 L 191.917969 146.820312 L 191.671875 147.0625 L 189.554688 148.367188 L 165.820312 162.085938 C 165.574219 162.085938 165.289062 162.085938 165.046875 162.332031 L 144.527344 174.179688 L 134.796875 179.714844 L 163.5 196.285156 L 197.984375 176.539062 L 198.226562 176.539062 L 203.480469 173.363281 L 203.722656 173.121094 L 213.453125 167.582031 L 218.992188 164.40625 L 219.234375 164.164062 Z M 196.109375 186.554688 L 179.253906 196.042969 L 167.40625 203.167969 C 167.40625 209.761719 167.40625 216.316406 167.40625 222.914062 L 196.109375 239.484375 C 196.109375 221.855469 196.109375 204.226562 196.109375 186.554688 Z M 192.40625 137.863281 L 167.40625 123.410156 L 167.40625 152.113281 L 185.566406 141.566406 L 187.683594 140.265625 L 187.925781 140.265625 Z M 192.40625 137.863281 " fill-opacity="1" fill-rule="nonzero"/></g></svg>
