<svg xmlns="http://www.w3.org/2000/svg" xmlns:xlink="http://www.w3.org/1999/xlink" width="1000" zoomAndPan="magnify" viewBox="0 0 750 749.999995" height="1000" preserveAspectRatio="xMidYMid meet" version="1.0"><defs><g/><clipPath id="662c748d8c"><path d="M 252 114.386719 L 497.894531 114.386719 L 497.894531 476 L 252 476 Z M 252 114.386719 " clip-rule="nonzero"/></clipPath></defs><rect x="-75" width="900" fill="#ffffff" y="-74.999999" height="899.999994" fill-opacity="1"/><rect x="-75" width="900" fill="#000f52" y="-74.999999" height="899.999994" fill-opacity="1"/><g fill="#14c8f8" fill-opacity="1"><g transform="translate(95.163258, 594.610959)"><g><path d="M 9.640625 0 C 8.347656 0 7.242188 -0.441406 6.328125 -1.328125 C 5.421875 -2.210938 4.96875 -3.304688 4.96875 -4.609375 L 4.96875 -41.46875 C 4.96875 -42.71875 5.421875 -43.796875 6.328125 -44.703125 C 7.242188 -45.617188 8.347656 -46.078125 9.640625 -46.078125 L 22.3125 -46.078125 C 25.582031 -46.078125 28.535156 -45.296875 31.171875 -43.734375 C 33.816406 -42.179688 35.929688 -40.082031 37.515625 -37.4375 C 39.097656 -34.800781 39.890625 -31.847656 39.890625 -28.578125 C 39.890625 -25.410156 39.097656 -22.554688 37.515625 -20.015625 C 35.929688 -17.472656 33.804688 -15.46875 31.140625 -14 C 28.472656 -12.539062 25.53125 -11.8125 22.3125 -11.8125 L 14.40625 -11.8125 L 14.40625 -4.609375 C 14.40625 -3.359375 13.9375 -2.273438 13 -1.359375 C 12.0625 -0.453125 10.941406 0 9.640625 0 Z M 14.40625 -37.4375 L 14.40625 -20.453125 L 22.46875 -20.453125 C 24.863281 -20.453125 26.789062 -21.253906 28.25 -22.859375 C 29.71875 -24.460938 30.453125 -26.46875 30.453125 -28.875 C 30.453125 -31.269531 29.71875 -33.296875 28.25 -34.953125 C 26.789062 -36.609375 24.863281 -37.4375 22.46875 -37.4375 Z M 14.40625 -37.4375 "/></g></g></g><g fill="#14c8f8" fill-opacity="1"><g transform="translate(158.156502, 594.610959)"><g><path d="M 26.859375 0.640625 C 23.585938 0.640625 20.507812 0.03125 17.625 -1.1875 C 14.75 -2.414062 12.21875 -4.109375 10.03125 -6.265625 C 7.851562 -8.421875 6.140625 -10.925781 4.890625 -13.78125 C 3.648438 -16.644531 3.03125 -19.707031 3.03125 -22.96875 C 3.03125 -26.226562 3.648438 -29.296875 4.890625 -32.171875 C 6.140625 -35.054688 7.851562 -37.59375 10.03125 -39.78125 C 12.21875 -41.96875 14.75 -43.679688 17.625 -44.921875 C 20.507812 -46.171875 23.585938 -46.796875 26.859375 -46.796875 C 30.078125 -46.796875 33.132812 -46.171875 36.03125 -44.921875 C 38.9375 -43.679688 41.503906 -41.96875 43.734375 -39.78125 C 45.972656 -37.59375 47.726562 -35.054688 49 -32.171875 C 50.269531 -29.296875 50.90625 -26.226562 50.90625 -22.96875 C 50.90625 -19.707031 50.269531 -16.644531 49 -13.78125 C 47.726562 -10.925781 45.972656 -8.421875 43.734375 -6.265625 C 41.503906 -4.109375 38.9375 -2.414062 36.03125 -1.1875 C 33.132812 0.03125 30.078125 0.640625 26.859375 0.640625 Z M 26.859375 -8.203125 C 29.640625 -8.203125 32.132812 -8.835938 34.34375 -10.109375 C 36.550781 -11.390625 38.289062 -13.144531 39.5625 -15.375 C 40.832031 -17.601562 41.46875 -20.132812 41.46875 -22.96875 C 41.46875 -25.84375 40.832031 -28.410156 39.5625 -30.671875 C 38.289062 -32.929688 36.550781 -34.707031 34.34375 -36 C 32.132812 -37.289062 29.640625 -37.9375 26.859375 -37.9375 C 24.117188 -37.9375 21.65625 -37.289062 19.46875 -36 C 17.289062 -34.707031 15.566406 -32.929688 14.296875 -30.671875 C 13.023438 -28.410156 12.390625 -25.84375 12.390625 -22.96875 C 12.390625 -20.132812 13.023438 -17.601562 14.296875 -15.375 C 15.566406 -13.144531 17.289062 -11.390625 19.46875 -10.109375 C 21.65625 -8.835938 24.117188 -8.203125 26.859375 -8.203125 Z M 26.859375 -8.203125 "/></g></g></g><g fill="#14c8f8" fill-opacity="1"><g transform="translate(233.603722, 594.610959)"><g><path d="M 18.21875 0.640625 C 15.675781 0.640625 13.421875 0.257812 11.453125 -0.5 C 9.484375 -1.269531 7.8125 -2.226562 6.4375 -3.375 C 5.070312 -4.53125 4.003906 -5.6875 3.234375 -6.84375 C 2.515625 -7.851562 2.238281 -8.882812 2.40625 -9.9375 C 2.570312 -10.988281 3.039062 -11.875 3.8125 -12.59375 C 4.582031 -13.320312 5.546875 -13.6875 6.703125 -13.6875 C 7.273438 -13.6875 7.90625 -13.5625 8.59375 -13.3125 C 9.289062 -13.070312 9.953125 -12.570312 10.578125 -11.8125 C 11.398438 -10.75 12.519531 -9.878906 13.9375 -9.203125 C 15.351562 -8.535156 17.09375 -8.203125 19.15625 -8.203125 C 21.019531 -8.203125 22.550781 -8.625 23.75 -9.46875 C 24.957031 -10.3125 25.5625 -11.691406 25.5625 -13.609375 C 25.5625 -15.003906 24.898438 -16.128906 23.578125 -16.984375 C 22.253906 -17.847656 20.320312 -18.765625 17.78125 -19.734375 C 15.1875 -20.691406 12.832031 -21.734375 10.71875 -22.859375 C 8.613281 -23.984375 6.945312 -25.410156 5.71875 -27.140625 C 4.5 -28.867188 3.890625 -31.078125 3.890625 -33.765625 C 3.890625 -36.546875 4.523438 -38.894531 5.796875 -40.8125 C 7.066406 -42.738281 8.804688 -44.21875 11.015625 -45.25 C 13.222656 -46.28125 15.671875 -46.796875 18.359375 -46.796875 C 21.191406 -46.796875 23.9375 -46.234375 26.59375 -45.109375 C 29.257812 -43.984375 31.265625 -42.289062 32.609375 -40.03125 C 33.140625 -39.164062 33.257812 -38.265625 32.96875 -37.328125 C 32.6875 -36.390625 32.28125 -35.660156 31.75 -35.140625 C 31.125 -34.515625 30.234375 -34.140625 29.078125 -34.015625 C 27.929688 -33.898438 26.804688 -34.296875 25.703125 -35.203125 C 23.640625 -37.023438 21 -37.9375 17.78125 -37.9375 C 16.582031 -37.9375 15.503906 -37.625 14.546875 -37 C 13.585938 -36.382812 13.109375 -35.378906 13.109375 -33.984375 C 13.109375 -32.304688 13.78125 -31.046875 15.125 -30.203125 C 16.46875 -29.359375 17.953125 -28.648438 19.578125 -28.078125 C 22.503906 -27.066406 25.117188 -25.945312 27.421875 -24.71875 C 29.734375 -23.5 31.5625 -22.015625 32.90625 -20.265625 C 34.25 -18.515625 34.921875 -16.296875 34.921875 -13.609375 C 34.921875 -10.960938 34.210938 -8.5625 32.796875 -6.40625 C 31.378906 -4.25 29.410156 -2.535156 26.890625 -1.265625 C 24.367188 0.00390625 21.476562 0.640625 18.21875 0.640625 Z M 18.21875 0.640625 "/></g></g></g><g fill="#14c8f8" fill-opacity="1"><g transform="translate(293.429483, 594.610959)"><g><path d="M 5.046875 -46.078125 L 33.34375 -46.078125 C 34.632812 -46.078125 35.734375 -45.617188 36.640625 -44.703125 C 37.554688 -43.796875 38.015625 -42.71875 38.015625 -41.46875 C 38.015625 -40.414062 37.554688 -39.46875 36.640625 -38.625 C 35.734375 -37.789062 34.632812 -37.375 33.34375 -37.375 L 23.90625 -37.375 L 23.90625 -4.609375 C 23.90625 -3.304688 23.4375 -2.210938 22.5 -1.328125 C 21.5625 -0.441406 20.445312 0 19.15625 0 C 17.851562 0 16.742188 -0.441406 15.828125 -1.328125 C 14.921875 -2.210938 14.46875 -3.304688 14.46875 -4.609375 L 14.46875 -37.375 L 5.046875 -37.375 C 3.742188 -37.375 2.632812 -37.800781 1.71875 -38.65625 C 0.8125 -39.519531 0.359375 -40.457031 0.359375 -41.46875 C 0.359375 -42.71875 0.8125 -43.796875 1.71875 -44.703125 C 2.632812 -45.617188 3.742188 -46.078125 5.046875 -46.078125 Z M 5.046875 -46.078125 "/></g></g></g><g fill="#14c8f8" fill-opacity="1"><g transform="translate(353.471182, 594.610959)"><g><path d="M 9.640625 0 C 8.347656 0 7.242188 -0.453125 6.328125 -1.359375 C 5.421875 -2.273438 4.96875 -3.359375 4.96875 -4.609375 L 4.96875 -41.46875 C 4.96875 -42.769531 5.421875 -43.863281 6.328125 -44.75 C 7.242188 -45.632812 8.347656 -46.078125 9.640625 -46.078125 C 10.941406 -46.078125 12.0625 -45.632812 13 -44.75 C 13.9375 -43.863281 14.40625 -42.769531 14.40625 -41.46875 L 14.40625 -4.609375 C 14.40625 -3.359375 13.9375 -2.273438 13 -1.359375 C 12.0625 -0.453125 10.941406 0 9.640625 0 Z M 9.640625 0 "/></g></g></g><g fill="#14c8f8" fill-opacity="1"><g transform="translate(394.435994, 594.610959)"><g><path d="M 26.203125 0.640625 C 23.035156 0.640625 20.046875 0.0195312 17.234375 -1.21875 C 14.429688 -2.46875 11.972656 -4.171875 9.859375 -6.328125 C 7.753906 -8.492188 6.085938 -11.003906 4.859375 -13.859375 C 3.640625 -16.710938 3.03125 -19.75 3.03125 -22.96875 C 3.03125 -26.039062 3.601562 -29.003906 4.75 -31.859375 C 5.90625 -34.710938 7.515625 -37.253906 9.578125 -39.484375 C 11.640625 -41.722656 14.050781 -43.5 16.8125 -44.8125 C 19.570312 -46.132812 22.582031 -46.796875 25.84375 -46.796875 C 29.113281 -46.796875 32.054688 -46.300781 34.671875 -45.3125 C 37.285156 -44.332031 39.789062 -42.738281 42.1875 -40.53125 C 43.144531 -39.664062 43.71875 -38.632812 43.90625 -37.4375 C 44.101562 -36.238281 43.84375 -35.132812 43.125 -34.125 C 42.351562 -33.113281 41.320312 -32.617188 40.03125 -32.640625 C 38.738281 -32.671875 37.5625 -33.070312 36.5 -33.84375 C 35.0625 -35.09375 33.5 -36.078125 31.8125 -36.796875 C 30.132812 -37.515625 28.316406 -37.875 26.359375 -37.875 C 23.859375 -37.875 21.539062 -37.257812 19.40625 -36.03125 C 17.269531 -34.8125 15.566406 -33.082031 14.296875 -30.84375 C 13.023438 -28.613281 12.390625 -26.015625 12.390625 -23.046875 C 12.390625 -20.359375 12.988281 -17.894531 14.1875 -15.65625 C 15.382812 -13.425781 17.023438 -11.640625 19.109375 -10.296875 C 21.203125 -8.953125 23.566406 -8.28125 26.203125 -8.28125 C 28.265625 -8.28125 30.132812 -8.628906 31.8125 -9.328125 C 33.5 -10.023438 35.0625 -10.992188 36.5 -12.234375 C 37.507812 -13.003906 38.671875 -13.398438 39.984375 -13.421875 C 41.304688 -13.453125 42.351562 -12.960938 43.125 -11.953125 C 43.84375 -10.941406 44.101562 -9.820312 43.90625 -8.59375 C 43.71875 -7.375 43.144531 -6.332031 42.1875 -5.46875 C 39.789062 -3.3125 37.285156 -1.753906 34.671875 -0.796875 C 32.054688 0.160156 29.234375 0.640625 26.203125 0.640625 Z M 26.203125 0.640625 "/></g></g></g><g fill="#14c8f8" fill-opacity="1"><g transform="translate(462.972344, 594.610959)"><g><path d="M 27.359375 -41.765625 L 42.125 -6.625 C 42.601562 -5.664062 42.734375 -4.671875 42.515625 -3.640625 C 42.296875 -2.609375 41.8125 -1.742188 41.0625 -1.046875 C 40.320312 -0.347656 39.332031 0 38.09375 0 C 37.125 0.0507812 36.234375 -0.1875 35.421875 -0.71875 C 34.609375 -1.25 34.035156 -1.96875 33.703125 -2.875 L 31.6875 -8.140625 L 12.390625 -8.140625 L 10.375 -2.8125 C 10.03125 -1.894531 9.460938 -1.195312 8.671875 -0.71875 C 7.878906 -0.238281 7.003906 0 6.046875 0 C 4.273438 0 2.976562 -0.679688 2.15625 -2.046875 C 1.34375 -3.421875 1.25 -4.945312 1.875 -6.625 L 16.484375 -41.6875 C 17.015625 -42.9375 17.722656 -43.976562 18.609375 -44.8125 C 19.492188 -45.65625 20.609375 -46.078125 21.953125 -46.078125 C 23.347656 -46.078125 24.441406 -45.765625 25.234375 -45.140625 C 26.023438 -44.515625 26.734375 -43.390625 27.359375 -41.765625 Z M 22.03125 -33.265625 L 15.703125 -16.78125 L 28.375 -16.78125 Z M 22.03125 -33.265625 "/></g></g></g><g fill="#14c8f8" fill-opacity="1"><g transform="translate(528.557172, 594.610959)"><g><path d="M 41.1875 -46.078125 C 42.476562 -46.078125 43.578125 -45.632812 44.484375 -44.75 C 45.398438 -43.863281 45.859375 -42.769531 45.859375 -41.46875 L 45.859375 -4.609375 C 45.859375 -3.648438 45.570312 -2.785156 45 -2.015625 C 44.425781 -1.242188 43.726562 -0.664062 42.90625 -0.28125 C 42.144531 0.0507812 41.28125 0.109375 40.3125 -0.109375 C 39.351562 -0.328125 38.515625 -0.890625 37.796875 -1.796875 L 14.40625 -29.65625 L 14.40625 -4.609375 C 14.40625 -3.359375 13.9375 -2.273438 13 -1.359375 C 12.0625 -0.453125 10.941406 0 9.640625 0 C 8.347656 0 7.242188 -0.453125 6.328125 -1.359375 C 5.421875 -2.273438 4.96875 -3.359375 4.96875 -4.609375 L 4.96875 -41.328125 C 4.96875 -42.429688 5.242188 -43.351562 5.796875 -44.09375 C 6.347656 -44.84375 7.007812 -45.382812 7.78125 -45.71875 C 8.6875 -46.101562 9.65625 -46.1875 10.6875 -45.96875 C 11.71875 -45.75 12.617188 -45.210938 13.390625 -44.359375 L 36.4375 -16.78125 L 36.4375 -41.46875 C 36.4375 -42.769531 36.898438 -43.863281 37.828125 -44.75 C 38.765625 -45.632812 39.882812 -46.078125 41.1875 -46.078125 Z M 41.1875 -46.078125 "/></g></g></g><g fill="#14c8f8" fill-opacity="1"><g transform="translate(600.980875, 594.610959)"><g><path d="M 26.859375 0.640625 C 23.585938 0.640625 20.507812 0.03125 17.625 -1.1875 C 14.75 -2.414062 12.21875 -4.109375 10.03125 -6.265625 C 7.851562 -8.421875 6.140625 -10.925781 4.890625 -13.78125 C 3.648438 -16.644531 3.03125 -19.707031 3.03125 -22.96875 C 3.03125 -26.226562 3.648438 -29.296875 4.890625 -32.171875 C 6.140625 -35.054688 7.851562 -37.59375 10.03125 -39.78125 C 12.21875 -41.96875 14.75 -43.679688 17.625 -44.921875 C 20.507812 -46.171875 23.585938 -46.796875 26.859375 -46.796875 C 30.078125 -46.796875 33.132812 -46.171875 36.03125 -44.921875 C 38.9375 -43.679688 41.503906 -41.96875 43.734375 -39.78125 C 45.972656 -37.59375 47.726562 -35.054688 49 -32.171875 C 50.269531 -29.296875 50.90625 -26.226562 50.90625 -22.96875 C 50.90625 -19.707031 50.269531 -16.644531 49 -13.78125 C 47.726562 -10.925781 45.972656 -8.421875 43.734375 -6.265625 C 41.503906 -4.109375 38.9375 -2.414062 36.03125 -1.1875 C 33.132812 0.03125 30.078125 0.640625 26.859375 0.640625 Z M 26.859375 -8.203125 C 29.640625 -8.203125 32.132812 -8.835938 34.34375 -10.109375 C 36.550781 -11.390625 38.289062 -13.144531 39.5625 -15.375 C 40.832031 -17.601562 41.46875 -20.132812 41.46875 -22.96875 C 41.46875 -25.84375 40.832031 -28.410156 39.5625 -30.671875 C 38.289062 -32.929688 36.550781 -34.707031 34.34375 -36 C 32.132812 -37.289062 29.640625 -37.9375 26.859375 -37.9375 C 24.117188 -37.9375 21.65625 -37.289062 19.46875 -36 C 17.289062 -34.707031 15.566406 -32.929688 14.296875 -30.671875 C 13.023438 -28.410156 12.390625 -25.84375 12.390625 -22.96875 C 12.390625 -20.132812 13.023438 -17.601562 14.296875 -15.375 C 15.566406 -13.144531 17.289062 -11.390625 19.46875 -10.109375 C 21.65625 -8.835938 24.117188 -8.203125 26.859375 -8.203125 Z M 26.859375 -8.203125 "/></g></g></g><g clip-path="url(#662c748d8c)"><path fill="#14c8f8" d="M 428.027344 188.898438 C 401.367188 173.941406 374.277344 158.554688 348.125 143.09375 L 324.285156 129.078125 L 273.425781 158.480469 L 309.835938 179.503906 L 382.296875 221.550781 L 382.730469 221.550781 L 426.65625 246.765625 L 440.234375 239.324219 L 440.667969 238.890625 L 477.585938 217.867188 Z M 493.914062 298.203125 L 439.730469 329.484375 L 429.90625 335.550781 L 429.472656 335.550781 L 419.648438 341.1875 L 402.8125 351.011719 L 402.378906 351.445312 L 395.804688 355.203125 C 395.804688 393.058594 395.804688 430.84375 395.804688 469.203125 C 395.804688 470.144531 395.371094 471.515625 394.867188 472.457031 C 392.988281 475.707031 388.796875 476.644531 385.546875 474.765625 L 321.539062 437.851562 C 319.226562 436.910156 317.78125 434.597656 317.78125 431.78125 C 317.78125 418.707031 317.78125 405.628906 317.78125 392.554688 L 256.589844 357.007812 C 253.339844 355.128906 251.894531 350.941406 253.773438 347.691406 C 254.714844 346.75 255.652344 345.8125 256.589844 344.871094 L 283.683594 329.484375 L 317.78125 309.832031 L 317.78125 239.324219 C 317.78125 237.949219 317.78125 237.011719 318.722656 235.566406 C 320.601562 232.316406 324.355469 231.375 327.609375 233.253906 L 389.230469 268.726562 L 413.074219 254.710938 L 376.226562 233.6875 L 375.792969 233.253906 L 302.898438 191.207031 L 256.589844 164.550781 C 255.652344 164.117188 254.714844 163.179688 253.773438 161.734375 C 251.894531 158.914062 253.339844 154.726562 256.589844 152.847656 L 320.601562 115.570312 C 322.910156 114.195312 325.296875 114.195312 327.609375 115.570312 L 355.132812 131.460938 L 375.214844 143.167969 L 494.347656 211.796875 L 494.78125 211.796875 L 494.78125 212.230469 L 495.648438 212.230469 L 495.648438 212.664062 L 496.082031 212.664062 L 496.082031 213.097656 L 496.515625 213.097656 L 496.515625 213.964844 L 496.949219 213.964844 L 496.949219 214.832031 L 497.382812 214.832031 L 497.382812 216.132812 L 497.816406 216.132812 L 497.816406 291.699219 C 498.105469 294.878906 496.226562 297.261719 493.914062 298.203125 Z M 433.15625 317.78125 L 484.089844 288.378906 L 484.089844 229.496094 L 447.171875 250.519531 L 447.171875 250.953125 L 382.296875 288.378906 L 374.855469 292.566406 L 374.421875 293 L 370.664062 295.3125 L 328.546875 319.660156 C 328.113281 319.660156 327.609375 319.660156 327.175781 320.09375 L 290.761719 341.117188 L 273.496094 350.941406 L 324.429688 380.34375 L 385.621094 345.304688 L 386.054688 345.304688 L 395.371094 339.671875 L 395.804688 339.238281 L 413.074219 329.410156 L 422.898438 323.777344 L 423.332031 323.34375 Z M 382.296875 363.078125 L 352.386719 379.910156 L 331.363281 392.554688 C 331.363281 404.257812 331.363281 415.886719 331.363281 427.589844 L 382.296875 456.996094 C 382.296875 425.714844 382.296875 394.429688 382.296875 363.078125 Z M 375.722656 276.671875 L 331.363281 251.027344 L 331.363281 301.957031 L 363.585938 283.246094 L 367.34375 280.9375 L 367.773438 280.9375 Z M 375.722656 276.671875 " fill-opacity="1" fill-rule="nonzero"/></g></svg>