<svg xmlns="http://www.w3.org/2000/svg" xmlns:xlink="http://www.w3.org/1999/xlink" width="1000" zoomAndPan="magnify" viewBox="0 0 750 749.999995" height="1000" preserveAspectRatio="xMidYMid meet" version="1.0"><defs><g/><clipPath id="5306b0bd16"><rect x="0" width="528" y="0" height="155"/></clipPath><clipPath id="79b3e0925a"><rect x="0" width="710" y="0" height="363"/></clipPath><clipPath id="e74a56ba7c"><rect x="0" width="135" y="0" height="90"/></clipPath><clipPath id="c09203c74f"><rect x="0" width="107" y="0" height="85"/></clipPath><clipPath id="6e2c6f7222"><rect x="0" width="710" y="0" height="363"/></clipPath><clipPath id="8e59f77fd4"><rect x="0" width="135" y="0" height="90"/></clipPath><clipPath id="7f768c2663"><rect x="0" width="107" y="0" height="85"/></clipPath></defs><path fill="#0cc0df" d="M 425.421875 -80.007812 C 424.863281 -78.894531 424.863281 -77.777344 425.421875 -76.660156 C 423.746094 -73.125 422.070312 -69.773438 420.398438 -66.238281 C 419.28125 -66.238281 418.351562 -66.238281 417.234375 -66.238281 C 416.675781 -69.589844 415.746094 -72.9375 415.746094 -76.289062 C 415.929688 -82.800781 416.859375 -83.171875 425.421875 -80.007812 Z M 746.992188 319.351562 C 745.132812 327.539062 743.085938 335.167969 746.808594 343.355469 C 747.550781 344.84375 744.945312 347.636719 743.828125 349.871094 C 744.574219 356.195312 745.503906 362.339844 746.25 368.480469 C 743.085938 370.339844 739.921875 372.203125 736.570312 374.25 C 735.828125 375.738281 735.828125 377.039062 736.199219 378.527344 C 727.824219 396.207031 719.265625 413.886719 710.890625 431.378906 C 710.890625 438.453125 710.890625 445.335938 711.078125 452.410156 C 709.960938 453.523438 708.285156 454.640625 707.726562 455.945312 C 705.121094 462.828125 704.75 471.949219 699.910156 476.414062 C 695.074219 480.878906 685.953125 481.4375 678.695312 482.929688 C 669.207031 484.789062 665.113281 488.511719 671.253906 497.816406 C 665.667969 504.144531 669.019531 509.351562 671.996094 515.867188 C 675.53125 523.496094 669.019531 530.011719 665.113281 536.335938 C 665.113281 537.640625 664.925781 538.941406 664.367188 540.246094 C 660.832031 543.222656 656.550781 544.339844 652.085938 544.339844 C 645.570312 543.222656 640.175781 545.640625 636.082031 550.667969 C 633.660156 552.527344 630.496094 553.644531 628.449219 556.0625 L 628.824219 556.25 C 621.191406 565.738281 614.121094 562.949219 607.234375 555.503906 C 607.234375 556.992188 607.234375 558.296875 607.234375 559.785156 C 608.167969 560.15625 609.097656 560.714844 610.027344 561.460938 C 611.515625 563.136719 612.820312 564.808594 613.933594 566.671875 C 615.050781 568.34375 616.167969 570.207031 617.097656 572.066406 C 617.84375 573.554688 618.773438 574.859375 619.519531 576.347656 C 620.449219 577.277344 621.007812 578.582031 621.566406 579.695312 C 622.683594 581.558594 623.984375 583.417969 625.101562 585.28125 C 626.03125 587.140625 626.777344 589.003906 627.519531 591.050781 C 628.449219 594.027344 628.824219 597.191406 629.195312 600.167969 C 629.382812 600.726562 629.382812 601.285156 629.566406 601.65625 C 631.054688 600.910156 632.359375 600.726562 633.847656 602.027344 L 633.847656 602.214844 C 635.148438 604.261719 637.011719 606.121094 638.3125 608.167969 C 638.3125 613.195312 638.3125 618.03125 638.128906 623.058594 L 636.082031 622.5 C 636.082031 622.5 634.035156 622.683594 634.035156 622.683594 C 629.566406 618.40625 623.984375 614.871094 621.75 608.542969 C 620.449219 608.726562 619.144531 608.542969 617.84375 607.796875 L 615.609375 608.914062 L 613.191406 608.726562 C 611.515625 609.84375 609.839844 610.960938 608.167969 612.265625 C 602.398438 602.402344 596.628906 592.539062 590.859375 582.675781 C 575.226562 577.648438 563.503906 586.582031 551.59375 594.398438 C 546.941406 597.375 546.753906 602.960938 545.265625 607.796875 C 545.082031 612.078125 544.707031 616.359375 544.707031 620.636719 C 544.707031 625.847656 544.523438 631.058594 549.734375 634.410156 C 549.734375 634.410156 549.734375 634.59375 549.734375 634.59375 C 558.292969 637.757812 565.363281 642.96875 570.390625 650.597656 C 571.132812 654.507812 572.996094 658.601562 572.621094 662.507812 C 571.691406 675.722656 566.667969 678.515625 550.847656 675.164062 C 546.570312 669.023438 544.707031 662.324219 544.335938 654.878906 C 543.964844 637.386719 543.03125 636.457031 524.980469 634.96875 C 523.492188 637.945312 521.816406 640.921875 520.515625 644.085938 C 518.46875 648.738281 515.304688 650.597656 510.839844 647.25 C 507.488281 644.644531 504.882812 641.292969 501.535156 638.6875 C 491.671875 631.058594 480.503906 630.5 472.132812 639.621094 C 466.175781 645.945312 459.289062 650.226562 452.777344 655.4375 C 452.589844 666.230469 450.171875 677.023438 452.777344 687.632812 C 453.519531 690.609375 455.570312 693.402344 457.058594 696.191406 C 456.871094 697.867188 456.871094 699.726562 456.683594 701.402344 C 452.21875 711.265625 445.519531 712.753906 437.144531 706.054688 L 437.144531 705.871094 C 436.773438 698.984375 435.84375 692.285156 435.84375 685.398438 C 436.214844 669.394531 429.886719 657.296875 415.929688 649.484375 C 404.949219 652.460938 393.785156 655.066406 382.804688 658.601562 C 373.128906 661.765625 382.621094 665.671875 382.992188 669.207031 C 377.78125 670.324219 372.199219 670.140625 368.664062 675.164062 C 367.730469 675.164062 366.988281 675.351562 366.058594 675.164062 C 352.65625 673.117188 342.796875 677.957031 336.652344 690.238281 C 337.398438 690.796875 338.140625 691.167969 339.074219 691.355469 C 336.09375 694.519531 332.558594 696.378906 328.09375 696.566406 C 327.722656 696.007812 327.347656 695.632812 327.164062 695.074219 C 327.164062 695.261719 327.164062 695.261719 327.164062 695.449219 C 327.164062 695.449219 328.28125 696.566406 328.28125 696.566406 C 326.605469 698.425781 324.929688 700.101562 323.253906 701.960938 C 321.394531 700.101562 319.53125 698.238281 317.671875 696.191406 C 315.996094 696.007812 314.507812 695.820312 312.832031 696.007812 C 307.808594 690.609375 302.96875 685.398438 297.945312 680.003906 C 291.617188 676.839844 297.015625 668.835938 291.617188 665.300781 C 289.199219 662.882812 285.851562 661.953125 283.246094 659.902344 C 282.6875 659.347656 282.3125 658.789062 281.941406 658.230469 C 281.382812 658.601562 280.824219 659.160156 280.265625 659.160156 C 277.289062 663.066406 274.3125 666.976562 271.335938 670.882812 C 268.914062 670.511719 266.125 670.699219 264.078125 669.582031 C 258.308594 666.417969 264.449219 659.71875 260.726562 656.367188 C 257.191406 653.203125 250.863281 654.136719 248.074219 649.109375 C 244.722656 642.96875 244.535156 636.269531 244.535156 629.570312 C 229.464844 621.570312 214.574219 613.566406 199.316406 605.75 C 190.195312 601.097656 181.078125 600.539062 173.261719 608.914062 C 171.214844 620.824219 164.515625 630.6875 157.816406 640.363281 C 152.605469 647.621094 145.90625 652.273438 136.230469 650.042969 C 132.878906 642.785156 130.832031 635.898438 136.972656 628.828125 C 142.371094 622.3125 147.210938 615.425781 152.417969 608.542969 C 151.488281 600.726562 153.722656 592.164062 145.71875 586.023438 C 139.765625 581.371094 144.417969 571.136719 136.789062 566.671875 C 131.019531 560.53125 122.644531 558.109375 116.316406 552.714844 C 115.757812 551.96875 115.386719 551.039062 114.828125 550.292969 C 114.085938 550.480469 113.152344 550.851562 112.410156 551.039062 C 92.496094 560.15625 91.9375 560.15625 90.265625 538.757812 C 89.707031 531.5 85.238281 528.707031 80.773438 524.800781 C 75.5625 520.332031 76.679688 517.542969 84.308594 514.75 C 85.796875 514.191406 87.660156 514.378906 89.332031 514.378906 C 89.332031 514.378906 89.332031 514.378906 89.332031 514.5625 C 91.566406 510.285156 95.847656 509.726562 99.753906 508.796875 C 100.5 497.257812 103.105469 485.90625 99.011719 474.554688 C 85.984375 468.597656 73.886719 460.222656 57.882812 463.015625 C 53.230469 463.761719 48.019531 460.410156 42.996094 459.292969 C 32.015625 456.6875 25.503906 450.175781 21.59375 439.382812 C 15.453125 422.445312 14.894531 422.632812 -2.96875 431.195312 C -6.691406 433.054688 -10.414062 435.101562 -14.320312 436.960938 C -22.136719 433.796875 -18.972656 427.84375 -18.042969 422.445312 C -2.785156 417.238281 12.476562 412.027344 27.734375 406.816406 C 31.085938 403.28125 35.550781 402.347656 39.832031 400.488281 C 42.066406 399.742188 44.296875 399.183594 46.71875 399 C 47.277344 399 48.019531 399 48.578125 399 C 48.765625 394.347656 47.089844 389.136719 49.507812 385.042969 C 49.695312 384.484375 49.695312 384.113281 49.882812 383.554688 C 61.792969 373.691406 61.234375 361.964844 54.160156 349.683594 C 53.976562 348.941406 53.976562 348.007812 53.789062 347.265625 C 50.8125 345.777344 47.835938 344.472656 45.042969 342.613281 C 40.390625 339.636719 38.15625 335.167969 38.902344 329.585938 C 38.53125 327.910156 38.714844 326.421875 39.273438 324.933594 C 44.113281 324.746094 48.949219 324.5625 53.976562 324.1875 C 54.90625 324.1875 55.835938 324.1875 56.765625 324.1875 C 57.324219 323.445312 57.511719 322.515625 58.253906 321.769531 C 59 321.210938 59.746094 320.652344 60.488281 320.09375 C 63.09375 314.140625 62.90625 308 59.371094 302.042969 C 56.394531 302.042969 54.535156 300.742188 53.417969 298.136719 C 52.113281 297.390625 50.625 297.019531 49.136719 296.832031 C 47.089844 296.832031 45.042969 297.019531 42.808594 297.019531 C 38.714844 297.761719 34.4375 298.136719 30.339844 299.253906 C 26.246094 300.367188 22.527344 302.789062 18.429688 303.53125 C 11.359375 305.019531 5.21875 302.230469 2.800781 297.390625 C -0.550781 290.320312 1.867188 282.875 9.871094 278.039062 C 11.917969 276.734375 14.894531 276.734375 17.316406 276.175781 C 25.128906 271.710938 32.574219 275.058594 40.019531 277.105469 C 40.390625 277.292969 40.761719 277.292969 41.136719 277.480469 C 45.789062 273.386719 52.113281 272.082031 58.070312 270.222656 C 65.140625 269.105469 69.050781 262.777344 75.003906 259.984375 C 76.492188 259.800781 77.609375 259.984375 78.726562 260.359375 C 77.421875 244.914062 62.351562 230.957031 73.886719 214.019531 C 81.332031 207.136719 90.824219 203.042969 99.011719 197.273438 C 99.195312 195.96875 99.195312 194.851562 99.382812 193.738281 C 100.871094 187.035156 101.058594 180.335938 101.058594 173.453125 C 98.078125 173.078125 96.40625 170.476562 94.542969 167.683594 C 93.054688 165.820312 91.378906 163.960938 89.148438 162.84375 L 88.960938 162.660156 C 88.03125 160.238281 86.171875 158.75 83.75 157.820312 C 80.402344 155.773438 77.238281 153.910156 73.886719 151.863281 C 72.027344 150.191406 70.351562 148.515625 69.234375 146.28125 C 69.234375 146.28125 69.421875 146.28125 69.421875 146.28125 C 75.933594 141.816406 77.796875 136.976562 71.46875 130.464844 C 69.609375 128.417969 72.210938 126.183594 74.445312 124.882812 C 75.933594 125.8125 77.421875 126.183594 79.097656 125.996094 C 85.796875 131.207031 92.683594 136.605469 99.382812 141.816406 C 101.242188 143.492188 103.105469 145.164062 104.78125 146.839844 C 107.757812 149.816406 112.222656 148.886719 115.574219 150.933594 C 117.0625 151.492188 118.738281 151.863281 120.410156 152.050781 C 122.085938 152.980469 122.644531 153.914062 122.273438 154.84375 C 132.695312 155.402344 142.929688 154.84375 151.488281 146.65625 C 153.722656 144.792969 154.46875 142.1875 155.210938 139.582031 C 152.046875 135.300781 150.371094 129.90625 146.464844 126.183594 C 136.601562 119.855469 126.550781 113.714844 125.808594 100.128906 C 133.996094 93.429688 142.742188 91.382812 150 100.875 C 155.398438 107.945312 167.308594 109.621094 167.121094 121.34375 C 175.683594 126.371094 183.496094 119.113281 191.6875 120.042969 C 191.871094 117.066406 192.242188 114.273438 192.429688 111.296875 C 186.289062 107.015625 184.800781 99.945312 182.195312 93.617188 C 178.84375 85.617188 181.449219 81.148438 190.753906 78.914062 C 192.800781 78.359375 195.40625 79.289062 197.640625 79.660156 C 197.640625 79.289062 197.640625 79.101562 197.640625 78.730469 C 199.875 77.425781 201.921875 77.613281 203.78125 79.289062 C 210.667969 79.289062 217.554688 79.472656 224.4375 79.472656 C 232.625 80.03125 237.464844 75.9375 239.140625 68.308594 C 240.070312 63.285156 240.070312 58.074219 240.441406 53.046875 C 235.417969 40.394531 234.488281 28.296875 244.535156 16.945312 C 246.210938 15.085938 245.28125 10.617188 245.28125 7.457031 C 259.238281 15.269531 268.730469 28.484375 281.382812 37.976562 C 281.382812 39.648438 281.382812 41.511719 281.382812 43.1875 C 288.457031 44.300781 297.015625 40.207031 302.597656 48.023438 C 307.808594 48.953125 311.902344 51.746094 314.507812 56.585938 C 317.113281 61.980469 322.511719 62.351562 327.347656 63.46875 C 338.328125 58.074219 344.65625 48.953125 348.9375 37.976562 C 348.9375 33.695312 349.679688 29.785156 354.332031 27.925781 C 353.960938 26.25 354.148438 24.574219 354.519531 22.902344 C 360.289062 21.785156 364.753906 24.949219 369.21875 27.925781 C 371.082031 34.253906 372.941406 40.582031 374.804688 46.90625 C 374.058594 47.652344 373.5 48.582031 372.757812 49.328125 C 373.5 49.511719 374.246094 49.886719 375.175781 50.070312 C 375.363281 48.953125 375.175781 47.839844 374.804688 46.90625 C 376.292969 47.28125 377.78125 47.464844 379.269531 47.839844 C 382.621094 42.8125 385.96875 37.789062 389.503906 32.578125 C 389.875 30.902344 390.433594 29.230469 390.808594 27.554688 C 392.109375 25.691406 393.597656 24.203125 395.460938 22.902344 C 397.132812 22.714844 398.808594 22.714844 400.484375 22.527344 C 402.160156 22.527344 404.019531 22.527344 405.695312 22.527344 C 406.996094 21.972656 408.488281 21.414062 409.976562 21.226562 C 410.71875 16.761719 411.277344 12.292969 412.023438 7.828125 C 411.277344 7.640625 410.535156 7.269531 409.789062 7.082031 C 412.953125 -13.574219 417.792969 -34.230469 416.117188 -55.445312 C 416.488281 -58.980469 417.046875 -62.515625 417.417969 -66.050781 C 418.535156 -66.050781 419.464844 -66.050781 420.582031 -66.050781 C 420.953125 -48.746094 421.328125 -31.253906 421.699219 -13.945312 C 422.816406 -12.644531 423.1875 -11.339844 423.1875 -10.039062 C 423.1875 -8.546875 423 -7.804688 422.628906 -7.804688 C 422.070312 -5.945312 421.511719 -4.082031 421.140625 -2.222656 C 422.445312 5.222656 422.628906 12.851562 421.699219 20.480469 C 420.023438 34.8125 423 47.28125 432.679688 58.074219 C 442.914062 60.304688 453.148438 59.375 463.011719 56.210938 C 469.710938 53.980469 476.226562 53.234375 483.109375 53.046875 C 486.460938 47.464844 492.414062 46.347656 497.8125 44.675781 C 505.070312 51.558594 515.117188 56.398438 514.746094 68.679688 C 518.65625 71.84375 522.75 74.820312 526.46875 78.171875 C 531.867188 83.195312 537.265625 83.566406 544.894531 81.894531 C 562.574219 78.171875 572.25 88.964844 567.410156 106.085938 C 565.921875 111.109375 564.621094 115.578125 566.292969 120.601562 C 584.160156 119.671875 601.28125 124.136719 618.027344 129.71875 C 621.566406 128.230469 625.101562 128.230469 628.078125 131.394531 C 628.078125 131.394531 627.890625 131.394531 627.890625 131.394531 C 627.890625 132.882812 628.078125 134.558594 628.449219 136.046875 C 630.871094 147.957031 622.496094 156.332031 617.65625 165.820312 C 644.082031 175.5 644.082031 175.5 643.894531 203.597656 C 647.433594 203.414062 651.152344 203.414062 654.691406 203.226562 C 656.363281 203.226562 657.855469 203.226562 659.527344 203.226562 C 661.390625 205.089844 663.0625 207.136719 664.925781 208.996094 C 665.109375 208.996094 665.296875 209.183594 665.667969 209.183594 C 665.109375 207.695312 664.738281 206.019531 664.554688 204.34375 C 672.925781 195.96875 681.488281 200.0625 690.234375 203.785156 C 690.234375 214.207031 692.09375 224.070312 697.492188 233.375 C 703.074219 243.050781 708.472656 253.101562 712.007812 263.523438 C 716.289062 276.363281 725.035156 282.875 737.128906 286.410156 C 736.945312 292.367188 740.109375 296.648438 744.203125 300.554688 C 745.503906 300.742188 746.621094 301.113281 747.738281 301.671875 C 747.550781 307.8125 748.296875 313.769531 746.992188 319.351562 Z M 110.363281 540.429688 C 110.363281 540.429688 110.546875 540.429688 110.546875 540.429688 C 110.546875 540.246094 110.363281 540.246094 110.363281 540.058594 C 110.363281 540.246094 110.363281 540.246094 110.363281 540.429688 C 109.992188 539.871094 109.617188 539.5 109.246094 538.941406 C 109.617188 539.5 109.804688 540.058594 109.992188 540.617188 C 110.175781 540.617188 110.175781 540.617188 110.363281 540.429688 Z M 503.394531 83.566406 C 503.207031 83.753906 503.207031 83.941406 503.023438 83.941406 C 503.207031 83.941406 503.394531 83.753906 503.582031 83.753906 C 503.394531 83.566406 503.394531 83.566406 503.394531 83.566406 Z M 405.695312 146.46875 C 405.695312 146.65625 405.695312 146.65625 405.695312 146.839844 C 405.882812 146.839844 406.066406 146.839844 406.253906 146.839844 C 405.882812 146.839844 405.882812 146.652344 405.695312 146.46875 Z M 473.0625 358.058594 C 473.0625 358.246094 473.246094 358.246094 473.246094 358.429688 C 473.246094 358.246094 473.246094 357.871094 473.0625 357.6875 C 473.0625 357.871094 473.0625 357.871094 473.0625 358.058594 Z M 514.746094 342.796875 C 514.746094 342.984375 514.746094 342.984375 514.746094 342.796875 C 514.746094 342.984375 514.746094 342.984375 514.746094 342.796875 C 514.746094 342.984375 514.746094 342.984375 514.746094 342.796875 Z M 529.074219 337.773438 C 528.519531 338.519531 528.332031 338.890625 528.332031 338.890625 C 527.960938 339.449219 528.519531 339.078125 529.632812 338.144531 C 529.449219 337.960938 529.261719 337.773438 529.074219 337.773438 Z M 224.253906 530.011719 C 224.253906 530.195312 224.253906 530.195312 224.253906 530.382812 C 224.4375 530.195312 224.4375 530.011719 224.625 529.824219 C 224.625 530.011719 224.4375 530.011719 224.253906 530.011719 C 224.253906 529.824219 224.066406 529.636719 224.066406 529.453125 C 223.878906 529.636719 223.878906 529.824219 223.695312 530.011719 C 223.878906 530.011719 224.066406 530.011719 224.253906 530.011719 Z M 295.15625 640.738281 C 295.15625 640.738281 296.085938 639.433594 296.085938 639.433594 C 296.085938 639.433594 296.085938 639.246094 295.898438 639.246094 C 295.714844 639.804688 295.339844 640.179688 295.15625 640.738281 Z M 146.652344 182.757812 Z M 223.878906 556.0625 C 223.878906 556.0625 223.878906 556.25 223.878906 556.25 C 224.066406 556.0625 224.253906 556.0625 224.253906 555.878906 C 224.253906 555.691406 224.253906 555.503906 224.253906 555.320312 C 223.878906 555.691406 223.507812 555.878906 223.136719 556.0625 C 223.507812 556.0625 223.695312 556.0625 223.878906 556.0625 Z M 607.050781 555.320312 C 607.050781 555.320312 607.050781 555.503906 607.050781 555.320312 C 607.050781 555.503906 607.050781 555.503906 607.050781 555.320312 C 607.050781 555.503906 607.050781 555.503906 607.050781 555.320312 Z M 514.003906 69.050781 C 514.003906 69.050781 514.003906 69.238281 514.003906 69.238281 C 514.1875 68.867188 514.5625 68.679688 514.746094 68.308594 C 514.746094 68.496094 514.003906 69.050781 514.003906 69.050781 Z M 415.929688 -117.785156 C 422.070312 -117.226562 425.792969 -119.832031 426.351562 -125.976562 C 426.722656 -130.253906 426.351562 -134.347656 426.164062 -138.628906 C 427.097656 -139.933594 428.585938 -141.234375 429.144531 -142.722656 C 432.492188 -151.46875 431.191406 -159.285156 425.605469 -163.195312 C 424.492188 -163.9375 421.886719 -163.9375 420.953125 -163.195312 C 414.8125 -157.984375 409.789062 -152.027344 415.746094 -143.46875 C 415.746094 -135.09375 415.746094 -126.347656 415.929688 -117.785156 Z M 47.835938 709.964844 C 39.460938 709.964844 27.179688 718.710938 24.386719 727.085938 C 23.640625 729.316406 23.457031 732.296875 24.199219 734.527344 C 28.480469 746.996094 44.671875 749.972656 53.230469 740.296875 C 58.070312 734.714844 59.746094 728.386719 59.371094 721.128906 C 59.1875 714.800781 54.347656 709.964844 47.835938 709.964844 Z M 666.785156 194.667969 C 666.785156 194.480469 665.667969 193.921875 665.113281 193.734375 C 665.855469 195.785156 666.601562 196.15625 666.785156 194.667969 Z M 678.695312 675.910156 C 679.070312 674.417969 679.070312 672.929688 679.070312 671.441406 C 672.742188 663.8125 666.226562 656.367188 659.902344 648.738281 C 657.480469 646.503906 655.25 646.691406 653.203125 649.296875 C 655.433594 661.394531 666.414062 668.652344 669.765625 680.1875 C 671.066406 680.5625 672.554688 680.933594 673.859375 681.304688 C 674.601562 685.769531 675.347656 690.421875 676.089844 694.890625 C 677.765625 696.566406 679.628906 698.054688 681.300781 699.730469 C 684.09375 699.730469 687.070312 699.542969 689.863281 699.542969 C 694.699219 687.632812 684.652344 682.792969 678.695312 675.910156 Z M 313.390625 709.035156 C 309.855469 710.523438 309.113281 714.058594 307.808594 717.222656 C 307.066406 726.898438 306.320312 736.390625 308.367188 746.066406 C 313.949219 746.8125 318.417969 745.136719 320.835938 739.554688 C 324.742188 730.433594 324.1875 721.316406 321.953125 712.011719 C 320.089844 708.660156 316.929688 708.289062 313.390625 709.035156 Z M 172.703125 -2.40625 C 183.125 5.035156 193.917969 1.5 200.058594 -10.039062 C 206.757812 -22.320312 201.921875 -33.113281 197.640625 -44.277344 C 175.496094 -47.257812 174.378906 -46.882812 166.191406 -31.996094 C 160.609375 -21.949219 163.398438 -9.105469 172.703125 -2.40625 Z M 197.453125 -44.464844 C 197.640625 -44.277344 197.640625 -44.277344 197.640625 -44.277344 C 197.640625 -44.277344 197.453125 -44.464844 197.453125 -44.464844 Z M 244.910156 6.523438 C 244.910156 6.710938 244.910156 6.710938 244.910156 6.898438 C 245.09375 6.898438 245.09375 7.082031 245.28125 7.082031 C 245.28125 6.898438 245.28125 6.898438 245.28125 6.710938 C 245.09375 6.710938 244.910156 6.523438 244.910156 6.523438 Z M 241.558594 -11.527344 C 240.628906 -12.457031 238.394531 -12.644531 237.09375 -12.269531 C 235.976562 -11.710938 234.488281 -10.039062 234.488281 -8.734375 C 233.742188 -0.917969 239.699219 2.617188 244.910156 6.523438 C 246.210938 0.0117188 247.515625 -6.5 241.558594 -11.527344 Z M 390.621094 27.367188 C 392.109375 25.878906 393.785156 24.203125 395.273438 22.714844 C 392.109375 22.527344 390.621094 24.019531 390.621094 27.367188 Z M 58.628906 555.878906 C 55.277344 553.273438 56.394531 548.433594 53.417969 545.640625 C 50.441406 542.664062 45.972656 543.410156 42.808594 540.804688 C 39.460938 537.269531 36.109375 537.453125 33.132812 541.363281 C 25.316406 547.875 23.828125 556.433594 24.945312 566.113281 C 26.246094 577.277344 32.015625 582.117188 43.367188 580.070312 C 46.53125 579.511719 49.507812 577.648438 52.671875 576.347656 C 56.953125 574.300781 55.835938 569.089844 58.257812 566.113281 L 58.070312 566.296875 C 61.792969 562.949219 61.417969 559.597656 58.628906 555.878906 Z M 53.417969 545.640625 Z M -24.554688 74.261719 C -21.394531 73.332031 -19.53125 71.285156 -18.414062 68.308594 C -18.972656 67.003906 -19.347656 65.703125 -19.347656 64.398438 C -21.019531 61.796875 -23.066406 59.746094 -26.230469 59.003906 C -26.230469 59.003906 -28.277344 59.191406 -28.277344 59.191406 C -33.488281 67.003906 -33.488281 67.003906 -24.554688 74.261719 Z M 36.855469 18.0625 C 39.273438 15.644531 41.695312 13.222656 44.113281 10.804688 C 43.742188 10.0625 43.367188 9.316406 42.808594 8.570312 C 40.578125 5.964844 37.414062 3.359375 34.4375 5.222656 C 31.273438 7.082031 32.015625 11.175781 33.503906 14.339844 C 34.25 15.828125 35.738281 16.761719 36.855469 18.0625 Z M -69.777344 485.160156 C -75.359375 481.066406 -82.988281 480.882812 -88.757812 484.417969 C -95.273438 488.695312 -99.179688 497.070312 -97.503906 503.957031 C -96.390625 508.421875 -93.410156 511.402344 -89.503906 513.261719 C -80.199219 517.726562 -64.378906 506.75 -64.566406 495.394531 C -64.378906 491.488281 -66.054688 487.765625 -69.777344 485.160156 Z M -10.597656 276.363281 C -10.597656 268.175781 -14.507812 261.476562 -19.902344 255.519531 C -28.464844 250.125 -36.839844 250.867188 -45.027344 256.265625 C -46.328125 256.265625 -47.632812 256.265625 -48.933594 256.265625 C -48.933594 257.753906 -49.121094 259.054688 -49.121094 260.542969 L -49.679688 261.101562 C -50.980469 261.289062 -52.46875 261.476562 -53.773438 261.660156 C -53.773438 261.660156 -54.332031 264.082031 -54.332031 264.082031 C -52.84375 264.636719 -51.539062 265.382812 -50.238281 266.3125 C -50.238281 269.476562 -50.050781 272.828125 -50.050781 275.992188 C -50.609375 279.339844 -48.75 281.015625 -45.957031 281.945312 C -45.585938 283.433594 -45.214844 284.921875 -44.839844 286.410156 C -43.910156 286.410156 -42.980469 286.410156 -42.050781 286.597656 C -41.492188 288.085938 -41.117188 289.761719 -40.375 291.0625 C -25.859375 296.089844 -15.808594 291.25 -10.597656 276.363281 Z M -10.597656 276.363281 " fill-opacity="1" fill-rule="nonzero"/><g transform="matrix(1, 0, 0, 1, 186, 499)"><g clip-path="url(#5306b0bd16)"><g fill="#0979b9" fill-opacity="1"><g transform="translate(8.425971, 141.765513)"><g><path d="M 14.421875 -15.984375 C 15.898438 -15.972656 17.179688 -15.503906 18.265625 -14.578125 C 19.359375 -13.648438 20.050781 -12.472656 20.34375 -11.046875 C 20.757812 -8.992188 20.367188 -7.226562 19.171875 -5.75 C 17.984375 -4.269531 16.109375 -3.269531 13.546875 -2.75 L 2.15625 -0.4375 L -2.796875 -24.90625 L 8.21875 -27.140625 C 10.707031 -27.640625 12.765625 -27.460938 14.390625 -26.609375 C 16.023438 -25.765625 17.039062 -24.363281 17.4375 -22.40625 C 17.726562 -20.957031 17.59375 -19.679688 17.03125 -18.578125 C 16.46875 -17.484375 15.597656 -16.617188 14.421875 -15.984375 Z M 5.15625 -16.203125 L 9.0625 -17 C 10.039062 -17.195312 10.742188 -17.5625 11.171875 -18.09375 C 11.609375 -18.632812 11.742188 -19.328125 11.578125 -20.171875 C 11.410156 -20.992188 11.019531 -21.570312 10.40625 -21.90625 C 9.789062 -22.25 8.992188 -22.320312 8.015625 -22.125 L 4.109375 -21.328125 Z M 11.546875 -7.34375 C 12.546875 -7.550781 13.269531 -7.9375 13.71875 -8.5 C 14.175781 -9.0625 14.316406 -9.769531 14.140625 -10.625 C 13.972656 -11.488281 13.550781 -12.109375 12.875 -12.484375 C 12.195312 -12.859375 11.363281 -12.945312 10.375 -12.75 L 6.03125 -11.859375 L 7.140625 -6.453125 Z M 11.546875 -7.34375 "/></g></g></g><g fill="#0979b9" fill-opacity="1"><g transform="translate(31.392484, 137.109476)"><g><path d="M 3.0625 -26.09375 L 6.015625 -11.453125 C 6.316406 -9.984375 6.910156 -8.925781 7.796875 -8.28125 C 8.679688 -7.644531 9.816406 -7.46875 11.203125 -7.75 C 12.597656 -8.03125 13.582031 -8.640625 14.15625 -9.578125 C 14.738281 -10.515625 14.878906 -11.71875 14.578125 -13.1875 L 11.625 -27.828125 L 17.609375 -29.046875 L 20.5625 -14.4375 C 21.007812 -12.25 20.914062 -10.300781 20.28125 -8.59375 C 19.644531 -6.894531 18.617188 -5.503906 17.203125 -4.421875 C 15.796875 -3.335938 14.128906 -2.601562 12.203125 -2.21875 C 10.273438 -1.820312 8.472656 -1.847656 6.796875 -2.296875 C 5.128906 -2.742188 3.695312 -3.640625 2.5 -4.984375 C 1.3125 -6.328125 0.492188 -8.09375 0.046875 -10.28125 L -2.90625 -24.890625 Z M 3.0625 -26.09375 "/></g></g></g><g fill="#0979b9" fill-opacity="1"><g transform="translate(55.962125, 132.128434)"><g><path d="M 3.15625 -26.109375 L 8.109375 -1.640625 L 2.15625 -0.4375 L -2.796875 -24.90625 Z M 3.15625 -26.109375 "/></g></g></g><g fill="#0979b9" fill-opacity="1"><g transform="translate(66.243042, 130.044167)"><g><path d="M 7.171875 -6.234375 L 14.984375 -7.828125 L 15.921875 -3.234375 L 2.15625 -0.4375 L -2.796875 -24.90625 L 3.15625 -26.109375 Z M 7.171875 -6.234375 "/></g></g></g><g fill="#0979b9" fill-opacity="1"><g transform="translate(82.866753, 126.674016)"><g><path d="M 6.375 -26.765625 C 8.945312 -27.285156 11.300781 -27.226562 13.4375 -26.59375 C 15.570312 -25.957031 17.351562 -24.820312 18.78125 -23.1875 C 20.21875 -21.5625 21.179688 -19.539062 21.671875 -17.125 C 22.160156 -14.726562 22.0625 -12.492188 21.375 -10.421875 C 20.695312 -8.347656 19.488281 -6.601562 17.75 -5.1875 C 16.019531 -3.78125 13.878906 -2.816406 11.328125 -2.296875 L 2.15625 -0.4375 L -2.796875 -24.90625 Z M 9.90625 -7.375 C 12.144531 -7.832031 13.765625 -8.800781 14.765625 -10.28125 C 15.773438 -11.769531 16.050781 -13.644531 15.59375 -15.90625 C 15.132812 -18.164062 14.148438 -19.789062 12.640625 -20.78125 C 11.140625 -21.78125 9.269531 -22.050781 7.03125 -21.59375 L 4.1875 -21.015625 L 7.0625 -6.796875 Z M 9.90625 -7.375 "/></g></g></g><g fill="#0979b9" fill-opacity="1"><g transform="translate(108.203103, 121.537538)"><g/></g></g><g fill="#0979b9" fill-opacity="1"><g transform="translate(115.591418, 120.039694)"><g><path d="M 18.1875 -29.15625 L 13.03125 -11.046875 L 14.671875 -2.96875 L 8.71875 -1.765625 L 7.078125 -9.84375 L -4.703125 -24.515625 L 2.046875 -25.890625 L 8.859375 -16.59375 L 11.5 -27.796875 Z M 18.1875 -29.15625 "/></g></g></g><g fill="#0979b9" fill-opacity="1"><g transform="translate(138.97613, 115.298874)"><g><path d="M 13.78125 -2.53125 C 11.476562 -2.0625 9.257812 -2.164062 7.125 -2.84375 C 5 -3.53125 3.175781 -4.71875 1.65625 -6.40625 C 0.144531 -8.101562 -0.851562 -10.144531 -1.34375 -12.53125 C -1.820312 -14.925781 -1.691406 -17.191406 -0.953125 -19.328125 C -0.210938 -21.460938 1.003906 -23.257812 2.703125 -24.71875 C 4.398438 -26.175781 6.398438 -27.140625 8.703125 -27.609375 C 11.003906 -28.078125 13.222656 -27.96875 15.359375 -27.28125 C 17.492188 -26.601562 19.304688 -25.421875 20.796875 -23.734375 C 22.285156 -22.054688 23.269531 -20.019531 23.75 -17.625 C 24.238281 -15.238281 24.117188 -12.96875 23.390625 -10.8125 C 22.660156 -8.664062 21.453125 -6.863281 19.765625 -5.40625 C 18.078125 -3.957031 16.082031 -3 13.78125 -2.53125 Z M 12.6875 -7.96875 C 14.632812 -8.363281 16.0625 -9.332031 16.96875 -10.875 C 17.882812 -12.414062 18.125 -14.253906 17.6875 -16.390625 C 17.25 -18.554688 16.3125 -20.164062 14.875 -21.21875 C 13.4375 -22.269531 11.742188 -22.597656 9.796875 -22.203125 C 7.816406 -21.804688 6.367188 -20.847656 5.453125 -19.328125 C 4.546875 -17.804688 4.3125 -15.953125 4.75 -13.765625 C 5.1875 -11.609375 6.125 -10.003906 7.5625 -8.953125 C 9 -7.898438 10.707031 -7.570312 12.6875 -7.96875 Z M 12.6875 -7.96875 "/></g></g></g><g fill="#0979b9" fill-opacity="1"><g transform="translate(166.368663, 109.745543)"><g><path d="M 3.0625 -26.09375 L 6.015625 -11.453125 C 6.316406 -9.984375 6.910156 -8.925781 7.796875 -8.28125 C 8.679688 -7.644531 9.816406 -7.46875 11.203125 -7.75 C 12.597656 -8.03125 13.582031 -8.640625 14.15625 -9.578125 C 14.738281 -10.515625 14.878906 -11.71875 14.578125 -13.1875 L 11.625 -27.828125 L 17.609375 -29.046875 L 20.5625 -14.4375 C 21.007812 -12.25 20.914062 -10.300781 20.28125 -8.59375 C 19.644531 -6.894531 18.617188 -5.503906 17.203125 -4.421875 C 15.796875 -3.335938 14.128906 -2.601562 12.203125 -2.21875 C 10.273438 -1.820312 8.472656 -1.847656 6.796875 -2.296875 C 5.128906 -2.742188 3.695312 -3.640625 2.5 -4.984375 C 1.3125 -6.328125 0.492188 -8.09375 0.046875 -10.28125 L -2.90625 -24.890625 Z M 3.0625 -26.09375 "/></g></g></g><g fill="#0979b9" fill-opacity="1"><g transform="translate(190.938312, 104.7645)"><g><path d="M 14.640625 -2.96875 L 7.6875 -11.171875 L 6.234375 -10.875 L 8.109375 -1.640625 L 2.15625 -0.4375 L -2.796875 -24.90625 L 7.203125 -26.9375 C 9.128906 -27.320312 10.84375 -27.316406 12.34375 -26.921875 C 13.84375 -26.523438 15.046875 -25.804688 15.953125 -24.765625 C 16.859375 -23.734375 17.457031 -22.5 17.75 -21.0625 C 18.082031 -19.425781 17.921875 -17.875 17.265625 -16.40625 C 16.609375 -14.945312 15.4375 -13.769531 13.75 -12.875 L 21.359375 -4.328125 Z M 5.375 -15.09375 L 9.09375 -15.84375 C 10.175781 -16.070312 10.9375 -16.503906 11.375 -17.140625 C 11.820312 -17.785156 11.945312 -18.597656 11.75 -19.578125 C 11.5625 -20.515625 11.140625 -21.195312 10.484375 -21.625 C 9.828125 -22.050781 8.957031 -22.148438 7.875 -21.921875 L 4.15625 -21.171875 Z M 5.375 -15.09375 "/></g></g></g><g fill="#0979b9" fill-opacity="1"><g transform="translate(213.660872, 100.15792)"><g/></g></g><g fill="#0979b9" fill-opacity="1"><g transform="translate(221.049194, 98.660073)"><g><path d="M 30.875 -31.734375 L 29.453125 -5.96875 L 22.234375 -4.5 L 15.0625 -19.828125 L 14.28125 -2.890625 L 7.078125 -1.4375 L -4.078125 -24.640625 L 2.296875 -25.9375 L 9.421875 -8.84375 L 10.171875 -27.53125 L 16.734375 -28.859375 L 24.515625 -11.90625 L 24.46875 -30.4375 Z M 30.875 -31.734375 "/></g></g></g><g fill="#0979b9" fill-opacity="1"><g transform="translate(257.711974, 91.22737)"><g><path d="M 4.109375 -21.328125 L 5.125 -16.390625 L 13.125 -18.015625 L 14.046875 -13.40625 L 6.046875 -11.78125 L 7.140625 -6.421875 L 16.1875 -8.265625 L 17.15625 -3.484375 L 2.15625 -0.4375 L -2.796875 -24.90625 L 12.203125 -27.953125 L 13.15625 -23.171875 Z M 4.109375 -21.328125 "/></g></g></g><g fill="#0979b9" fill-opacity="1"><g transform="translate(276.566106, 87.405043)"><g><path d="M 14.421875 -15.984375 C 15.898438 -15.972656 17.179688 -15.503906 18.265625 -14.578125 C 19.359375 -13.648438 20.050781 -12.472656 20.34375 -11.046875 C 20.757812 -8.992188 20.367188 -7.226562 19.171875 -5.75 C 17.984375 -4.269531 16.109375 -3.269531 13.546875 -2.75 L 2.15625 -0.4375 L -2.796875 -24.90625 L 8.21875 -27.140625 C 10.707031 -27.640625 12.765625 -27.460938 14.390625 -26.609375 C 16.023438 -25.765625 17.039062 -24.363281 17.4375 -22.40625 C 17.726562 -20.957031 17.59375 -19.679688 17.03125 -18.578125 C 16.46875 -17.484375 15.597656 -16.617188 14.421875 -15.984375 Z M 5.15625 -16.203125 L 9.0625 -17 C 10.039062 -17.195312 10.742188 -17.5625 11.171875 -18.09375 C 11.609375 -18.632812 11.742188 -19.328125 11.578125 -20.171875 C 11.410156 -20.992188 11.019531 -21.570312 10.40625 -21.90625 C 9.789062 -22.25 8.992188 -22.320312 8.015625 -22.125 L 4.109375 -21.328125 Z M 11.546875 -7.34375 C 12.546875 -7.550781 13.269531 -7.9375 13.71875 -8.5 C 14.175781 -9.0625 14.316406 -9.769531 14.140625 -10.625 C 13.972656 -11.488281 13.550781 -12.109375 12.875 -12.484375 C 12.195312 -12.859375 11.363281 -12.945312 10.375 -12.75 L 6.03125 -11.859375 L 7.140625 -6.453125 Z M 11.546875 -7.34375 "/></g></g></g><g fill="#0979b9" fill-opacity="1"><g transform="translate(299.532619, 82.749006)"><g><path d="M 11.0625 -1.984375 C 9.269531 -1.617188 7.609375 -1.582031 6.078125 -1.875 C 4.546875 -2.175781 3.238281 -2.8125 2.15625 -3.78125 C 1.070312 -4.75 0.347656 -6.023438 -0.015625 -7.609375 L 6.328125 -8.890625 C 6.609375 -8.003906 7.0625 -7.378906 7.6875 -7.015625 C 8.320312 -6.648438 9.066406 -6.554688 9.921875 -6.734375 C 10.796875 -6.910156 11.445312 -7.253906 11.875 -7.765625 C 12.300781 -8.285156 12.441406 -8.898438 12.296875 -9.609375 C 12.179688 -10.210938 11.878906 -10.671875 11.390625 -10.984375 C 10.910156 -11.296875 10.347656 -11.519531 9.703125 -11.65625 C 9.054688 -11.789062 8.15625 -11.914062 7 -12.03125 C 5.320312 -12.1875 3.929688 -12.40625 2.828125 -12.6875 C 1.722656 -12.976562 0.71875 -13.523438 -0.1875 -14.328125 C -1.101562 -15.140625 -1.710938 -16.3125 -2.015625 -17.84375 C -2.484375 -20.125 -2.019531 -22.078125 -0.625 -23.703125 C 0.757812 -25.328125 2.773438 -26.410156 5.421875 -26.953125 C 8.117188 -27.492188 10.421875 -27.285156 12.328125 -26.328125 C 14.242188 -25.367188 15.488281 -23.753906 16.0625 -21.484375 L 9.625 -20.171875 C 9.425781 -20.953125 9.007812 -21.515625 8.375 -21.859375 C 7.75 -22.203125 7.019531 -22.289062 6.1875 -22.125 C 5.46875 -21.976562 4.925781 -21.664062 4.5625 -21.1875 C 4.195312 -20.71875 4.085938 -20.125 4.234375 -19.40625 C 4.390625 -18.613281 4.882812 -18.070312 5.71875 -17.78125 C 6.5625 -17.488281 7.820312 -17.25 9.5 -17.0625 C 11.1875 -16.84375 12.570312 -16.585938 13.65625 -16.296875 C 14.75 -16.015625 15.75 -15.484375 16.65625 -14.703125 C 17.5625 -13.921875 18.160156 -12.800781 18.453125 -11.34375 C 18.742188 -9.9375 18.648438 -8.59375 18.171875 -7.3125 C 17.691406 -6.03125 16.84375 -4.914062 15.625 -3.96875 C 14.414062 -3.019531 12.894531 -2.359375 11.0625 -1.984375 Z M 11.0625 -1.984375 "/></g></g></g><g fill="#0979b9" fill-opacity="1"><g transform="translate(320.965713, 78.403841)"><g><path d="M 3.15625 -26.109375 L 8.109375 -1.640625 L 2.15625 -0.4375 L -2.796875 -24.90625 Z M 3.15625 -26.109375 "/></g></g></g><g fill="#0979b9" fill-opacity="1"><g transform="translate(331.246637, 76.319573)"><g><path d="M 14.796875 -28.46875 L 15.75 -23.6875 L 9.28125 -22.375 L 13.28125 -2.6875 L 7.3125 -1.484375 L 3.3125 -21.171875 L -3.15625 -19.859375 L -4.109375 -24.640625 Z M 14.796875 -28.46875 "/></g></g></g><g fill="#0979b9" fill-opacity="1"><g transform="translate(351.843321, 72.143975)"><g><path d="M 4.109375 -21.328125 L 5.125 -16.390625 L 13.125 -18.015625 L 14.046875 -13.40625 L 6.046875 -11.78125 L 7.140625 -6.421875 L 16.1875 -8.265625 L 17.15625 -3.484375 L 2.15625 -0.4375 L -2.796875 -24.90625 L 12.203125 -27.953125 L 13.15625 -23.171875 Z M 4.109375 -21.328125 "/></g></g></g><g fill="#0979b9" fill-opacity="1"><g transform="translate(370.697452, 68.321647)"><g/></g></g><g fill="#0979b9" fill-opacity="1"><g transform="translate(378.085775, 66.823801)"><g><path d="M 30.875 -31.734375 L 29.453125 -5.96875 L 22.234375 -4.5 L 15.0625 -19.828125 L 14.28125 -2.890625 L 7.078125 -1.4375 L -4.078125 -24.640625 L 2.296875 -25.9375 L 9.421875 -8.84375 L 10.171875 -27.53125 L 16.734375 -28.859375 L 24.515625 -11.90625 L 24.46875 -30.4375 Z M 30.875 -31.734375 "/></g></g></g><g fill="#0979b9" fill-opacity="1"><g transform="translate(414.748555, 59.391098)"><g><path d="M 3.15625 -26.109375 L 8.109375 -1.640625 L 2.15625 -0.4375 L -2.796875 -24.90625 Z M 3.15625 -26.109375 "/></g></g></g><g fill="#0979b9" fill-opacity="1"><g transform="translate(425.029479, 57.30683)"><g><path d="M 14.796875 -28.46875 L 15.75 -23.6875 L 9.28125 -22.375 L 13.28125 -2.6875 L 7.3125 -1.484375 L 3.3125 -21.171875 L -3.15625 -19.859375 L -4.109375 -24.640625 Z M 14.796875 -28.46875 "/></g></g></g><g fill="#0979b9" fill-opacity="1"><g transform="translate(445.626162, 53.131232)"><g><path d="M 18.40625 -29.203125 L 23.359375 -4.734375 L 17.390625 -3.53125 L 15.34375 -13.609375 L 6.0625 -11.71875 L 8.109375 -1.640625 L 2.15625 -0.4375 L -2.796875 -24.90625 L 3.15625 -26.109375 L 5.09375 -16.53125 L 14.375 -18.421875 L 12.4375 -28 Z M 18.40625 -29.203125 "/></g></g></g><g fill="#0979b9" fill-opacity="1"><g transform="translate(471.101907, 47.966495)"><g/></g></g><g fill="#0979b9" fill-opacity="1"><g transform="translate(478.49023, 46.468649)"><g><path d="M 3.0625 -26.09375 L 6.015625 -11.453125 C 6.316406 -9.984375 6.910156 -8.925781 7.796875 -8.28125 C 8.679688 -7.644531 9.816406 -7.46875 11.203125 -7.75 C 12.597656 -8.03125 13.582031 -8.640625 14.15625 -9.578125 C 14.738281 -10.515625 14.878906 -11.71875 14.578125 -13.1875 L 11.625 -27.828125 L 17.609375 -29.046875 L 20.5625 -14.4375 C 21.007812 -12.25 20.914062 -10.300781 20.28125 -8.59375 C 19.644531 -6.894531 18.617188 -5.503906 17.203125 -4.421875 C 15.796875 -3.335938 14.128906 -2.601562 12.203125 -2.21875 C 10.273438 -1.820312 8.472656 -1.847656 6.796875 -2.296875 C 5.128906 -2.742188 3.695312 -3.640625 2.5 -4.984375 C 1.3125 -6.328125 0.492188 -8.09375 0.046875 -10.28125 L -2.90625 -24.890625 Z M 3.0625 -26.09375 "/></g></g></g><g fill="#0979b9" fill-opacity="1"><g transform="translate(503.059863, 41.487608)"><g><path d="M 11.0625 -1.984375 C 9.269531 -1.617188 7.609375 -1.582031 6.078125 -1.875 C 4.546875 -2.175781 3.238281 -2.8125 2.15625 -3.78125 C 1.070312 -4.75 0.347656 -6.023438 -0.015625 -7.609375 L 6.328125 -8.890625 C 6.609375 -8.003906 7.0625 -7.378906 7.6875 -7.015625 C 8.320312 -6.648438 9.066406 -6.554688 9.921875 -6.734375 C 10.796875 -6.910156 11.445312 -7.253906 11.875 -7.765625 C 12.300781 -8.285156 12.441406 -8.898438 12.296875 -9.609375 C 12.179688 -10.210938 11.878906 -10.671875 11.390625 -10.984375 C 10.910156 -11.296875 10.347656 -11.519531 9.703125 -11.65625 C 9.054688 -11.789062 8.15625 -11.914062 7 -12.03125 C 5.320312 -12.1875 3.929688 -12.40625 2.828125 -12.6875 C 1.722656 -12.976562 0.71875 -13.523438 -0.1875 -14.328125 C -1.101562 -15.140625 -1.710938 -16.3125 -2.015625 -17.84375 C -2.484375 -20.125 -2.019531 -22.078125 -0.625 -23.703125 C 0.757812 -25.328125 2.773438 -26.410156 5.421875 -26.953125 C 8.117188 -27.492188 10.421875 -27.285156 12.328125 -26.328125 C 14.242188 -25.367188 15.488281 -23.753906 16.0625 -21.484375 L 9.625 -20.171875 C 9.425781 -20.953125 9.007812 -21.515625 8.375 -21.859375 C 7.75 -22.203125 7.019531 -22.289062 6.1875 -22.125 C 5.46875 -21.976562 4.925781 -21.664062 4.5625 -21.1875 C 4.195312 -20.71875 4.085938 -20.125 4.234375 -19.40625 C 4.390625 -18.613281 4.882812 -18.070312 5.71875 -17.78125 C 6.5625 -17.488281 7.820312 -17.25 9.5 -17.0625 C 11.1875 -16.84375 12.570312 -16.585938 13.65625 -16.296875 C 14.75 -16.015625 15.75 -15.484375 16.65625 -14.703125 C 17.5625 -13.921875 18.160156 -12.800781 18.453125 -11.34375 C 18.742188 -9.9375 18.648438 -8.59375 18.171875 -7.3125 C 17.691406 -6.03125 16.84375 -4.914062 15.625 -3.96875 C 14.414062 -3.019531 12.894531 -2.359375 11.0625 -1.984375 Z M 11.0625 -1.984375 "/></g></g></g></g></g><g transform="matrix(1, 0, 0, 1, 26, 171)"><g clip-path="url(#79b3e0925a)"><g fill="#d9d9d9" fill-opacity="1"><g transform="translate(39.493773, 321.949845)"><g><path d="M 8.640625 -1.78125 L -22.359375 -152.265625 L 7.359375 -158.390625 C 18.523438 -160.691406 27.140625 -159.976562 33.203125 -156.25 C 39.265625 -152.53125 43.597656 -145.320312 46.203125 -134.625 C 47.859375 -127.78125 49.257812 -121.566406 50.40625 -115.984375 C 51.5625 -110.398438 52.65625 -104.507812 53.6875 -98.3125 C 55.519531 -87.4375 54.382812 -79.09375 50.28125 -73.28125 C 46.1875 -67.476562 38.5 -63.410156 27.21875 -61.078125 L 18.1875 -59.21875 L 29.15625 -6 Z M 14.46875 -77.28125 L 23.5 -79.140625 C 31.394531 -80.773438 34.742188 -85.457031 33.546875 -93.1875 C 32.554688 -99.257812 31.367188 -105.648438 29.984375 -112.359375 C 28.609375 -119.066406 27.175781 -125.398438 25.6875 -131.359375 C 23.726562 -138.941406 18.859375 -141.929688 11.078125 -140.328125 L 1.875 -138.421875 Z M 14.46875 -77.28125 "/></g></g></g><g fill="#d9d9d9" fill-opacity="1"><g transform="translate(113.794804, 306.644304)"><g><path d="M 41.6875 -7.03125 C 30.40625 -4.695312 21.796875 -5.398438 15.859375 -9.140625 C 9.921875 -12.890625 5.679688 -20.316406 3.140625 -31.421875 C -3.765625 -61.765625 -10.054688 -92.296875 -15.734375 -123.015625 C -17.753906 -134.109375 -16.78125 -142.546875 -12.8125 -148.328125 C -8.84375 -154.117188 -1.21875 -158.179688 10.0625 -160.515625 C 21.351562 -162.835938 29.9375 -162.117188 35.8125 -158.359375 C 41.6875 -154.597656 45.945312 -147.238281 48.59375 -136.28125 C 55.6875 -105.71875 61.976562 -75.1875 67.46875 -44.6875 C 69.382812 -33.445312 68.390625 -24.941406 64.484375 -19.171875 C 60.578125 -13.398438 52.976562 -9.351562 41.6875 -7.03125 Z M 38.234375 -23.78125 C 45.890625 -25.351562 49.101562 -29.734375 47.875 -36.921875 C 46.113281 -47.398438 44.101562 -58.289062 41.84375 -69.59375 C 39.582031 -80.90625 37.222656 -92.1875 34.765625 -103.4375 C 32.316406 -114.695312 29.90625 -125.441406 27.53125 -135.671875 C 25.84375 -142.640625 21.171875 -145.335938 13.515625 -143.765625 C 5.742188 -142.160156 2.519531 -137.832031 3.84375 -130.78125 C 5.582031 -120.425781 7.550781 -109.59375 9.75 -98.28125 C 11.957031 -86.976562 14.285156 -75.691406 16.734375 -64.421875 C 19.179688 -53.160156 21.664062 -42.363281 24.1875 -32.03125 C 25.78125 -24.925781 30.460938 -22.175781 38.234375 -23.78125 Z M 38.234375 -23.78125 "/></g></g></g><g fill="#d9d9d9" fill-opacity="1"><g transform="translate(193.927095, 290.13756)"><g><path d="M 41.6875 -7.03125 C 30.40625 -4.695312 21.882812 -5.453125 16.125 -9.296875 C 10.363281 -13.148438 6.082031 -20.601562 3.28125 -31.65625 C 2.25 -36.007812 1.335938 -40.265625 0.546875 -44.421875 C -0.234375 -48.578125 -0.90625 -52.945312 -1.46875 -57.53125 L 17.71875 -61.484375 C 18.53125 -56.296875 19.421875 -51.1875 20.390625 -46.15625 C 21.359375 -41.132812 22.484375 -36.460938 23.765625 -32.140625 C 24.796875 -28.429688 26.460938 -25.898438 28.765625 -24.546875 C 31.066406 -23.203125 34.222656 -22.945312 38.234375 -23.78125 C 42.128906 -24.570312 44.800781 -26.03125 46.25 -28.15625 C 47.707031 -30.28125 48.175781 -33.25 47.65625 -37.0625 C 47.15625 -41.40625 46.519531 -45.289062 45.75 -48.71875 C 44.976562 -52.15625 43.988281 -56.171875 42.78125 -60.765625 C 41.769531 -64.359375 40.367188 -67.34375 38.578125 -69.71875 C 36.785156 -72.09375 34.164062 -73.378906 30.71875 -73.578125 L 17.46875 -74.1875 C 8.5 -74.570312 1.90625 -77.066406 -2.3125 -81.671875 C -6.53125 -86.285156 -9.695312 -93.085938 -11.8125 -102.078125 C -12.507812 -105.460938 -13.21875 -108.910156 -13.9375 -112.421875 C -14.65625 -115.929688 -15.300781 -119.390625 -15.875 -122.796875 C -17.800781 -134.035156 -16.84375 -142.535156 -13 -148.296875 C -9.15625 -154.054688 -1.46875 -158.128906 10.0625 -160.515625 C 20.851562 -162.734375 29.1875 -161.960938 35.0625 -158.203125 C 40.9375 -154.441406 45.210938 -147.019531 47.890625 -135.9375 C 48.648438 -132.832031 49.457031 -129.046875 50.3125 -124.578125 C 51.175781 -120.117188 52.003906 -115.617188 52.796875 -111.078125 L 33.25 -107.046875 C 32.382812 -111.835938 31.5 -116.585938 30.59375 -121.296875 C 29.695312 -126.015625 28.628906 -130.734375 27.390625 -135.453125 C 25.660156 -142.535156 20.976562 -145.289062 13.34375 -143.71875 C 9.445312 -142.914062 6.738281 -141.441406 5.21875 -139.296875 C 3.707031 -137.160156 3.195312 -134.253906 3.6875 -130.578125 C 4.144531 -126.472656 4.820312 -122.390625 5.71875 -118.328125 C 6.625 -114.265625 7.613281 -110.253906 8.6875 -106.296875 C 9.789062 -102.222656 11.242188 -99.125 13.046875 -97 C 14.859375 -94.882812 17.613281 -93.75 21.3125 -93.59375 L 33.140625 -93.296875 C 42.484375 -92.992188 49.28125 -90.4375 53.53125 -85.625 C 57.789062 -80.820312 61.039062 -73.945312 63.28125 -65 C 64.226562 -61.007812 64.96875 -57.566406 65.5 -54.671875 C 66.03125 -51.773438 66.601562 -48.492188 67.21875 -44.828125 C 69.15625 -33.597656 68.175781 -25.0625 64.28125 -19.21875 C 60.382812 -13.382812 52.851562 -9.320312 41.6875 -7.03125 Z M 41.6875 -7.03125 "/></g></g></g><g fill="#d9d9d9" fill-opacity="1"><g transform="translate(271.237793, 274.212046)"><g><path d="M 26.140625 -5.390625 L -1.140625 -137.8125 L -22.953125 -133.3125 L -26.671875 -151.375 L 37.078125 -164.515625 L 40.796875 -146.453125 L 19.1875 -142 L 46.46875 -9.578125 Z M 26.140625 -5.390625 "/></g></g></g><g fill="#d9d9d9" fill-opacity="1"><g transform="translate(340.460022, 259.952706)"><g><path d="M 8.640625 -1.78125 L -22.359375 -152.265625 L -1.84375 -156.484375 L 29.15625 -6 Z M 8.640625 -1.78125 "/></g></g></g><g fill="#d9d9d9" fill-opacity="1"><g transform="translate(376.952205, 252.435547)"><g><path d="M 41.34375 -6.734375 C 29.9375 -4.390625 21.320312 -5.132812 15.5 -8.96875 C 9.675781 -12.8125 5.492188 -20.285156 2.953125 -31.390625 C 0.890625 -40.773438 -1.257812 -50.722656 -3.5 -61.234375 C -5.738281 -71.753906 -7.90625 -82.285156 -10 -92.828125 C -12.101562 -103.378906 -14.0625 -113.367188 -15.875 -122.796875 C -17.769531 -132.609375 -16.769531 -140.757812 -12.875 -147.25 C -8.988281 -153.738281 -1.46875 -158.128906 9.6875 -160.421875 C 20.726562 -162.703125 29.222656 -161.9375 35.171875 -158.125 C 41.117188 -154.320312 45.359375 -146.925781 47.890625 -135.9375 C 48.710938 -132.570312 49.625 -128.445312 50.625 -123.5625 C 51.632812 -118.675781 52.425781 -114.53125 53 -111.125 L 32.671875 -106.9375 C 31.816406 -111.0625 30.878906 -115.765625 29.859375 -121.046875 C 28.835938 -126.328125 27.820312 -131.09375 26.8125 -135.34375 C 25.226562 -142.445312 20.671875 -145.222656 13.140625 -143.671875 C 5.617188 -142.128906 2.46875 -137.765625 3.6875 -130.578125 C 6.59375 -114.566406 9.789062 -98.09375 13.28125 -81.15625 C 16.769531 -64.226562 20.34375 -47.84375 24 -32 C 25.75 -24.78125 30.382812 -21.941406 37.90625 -23.484375 C 45.9375 -25.140625 49.257812 -29.617188 47.875 -36.921875 C 47.101562 -41.328125 46.15625 -46.257812 45.03125 -51.71875 C 43.90625 -57.175781 42.835938 -62.03125 41.828125 -66.28125 L 62.15625 -70.46875 C 63.132812 -66.34375 64.070312 -62.085938 64.96875 -57.703125 C 65.875 -53.316406 66.707031 -48.976562 67.46875 -44.6875 C 69.507812 -33.476562 68.488281 -24.929688 64.40625 -19.046875 C 60.320312 -13.171875 52.632812 -9.066406 41.34375 -6.734375 Z M 41.34375 -6.734375 "/></g></g></g><g fill="#d9d9d9" fill-opacity="1"><g transform="translate(453.698575, 236.626282)"><g><path d="M 4.328125 -0.890625 L -8.25 -155.171875 L 25.625 -162.140625 L 75.046875 -15.453125 L 54.359375 -11.203125 L 43.046875 -48.078125 L 21.03125 -43.53125 L 25.203125 -5.1875 Z M 19.21875 -61.796875 L 37.28125 -65.515625 L 27.265625 -97.96875 L 15.03125 -141.140625 L 9.765625 -140.046875 L 15.609375 -95.5625 Z M 19.21875 -61.796875 "/></g></g></g><g fill="#d9d9d9" fill-opacity="1"><g transform="translate(529.880631, 220.933261)"><g><path d="M 8.640625 -1.78125 L -22.359375 -152.265625 L 9.25 -158.78125 L 28.875 -113.015625 L 58.53125 -30.890625 L 62.875 -31.78125 L 44.09375 -104.78125 L 30.5 -163.15625 L 50.265625 -167.21875 L 81.265625 -16.734375 L 48.34375 -9.953125 L 27.578125 -59.40625 L 0.90625 -138.421875 L -3.8125 -137.453125 L 14.890625 -62.875 L 28.40625 -5.84375 Z M 8.640625 -1.78125 "/></g></g></g><g fill="#d9d9d9" fill-opacity="1"><g transform="translate(618.477625, 202.682842)"><g><path d="M 41.6875 -7.03125 C 30.40625 -4.695312 21.796875 -5.398438 15.859375 -9.140625 C 9.921875 -12.890625 5.679688 -20.316406 3.140625 -31.421875 C -3.765625 -61.765625 -10.054688 -92.296875 -15.734375 -123.015625 C -17.753906 -134.109375 -16.78125 -142.546875 -12.8125 -148.328125 C -8.84375 -154.117188 -1.21875 -158.179688 10.0625 -160.515625 C 21.351562 -162.835938 29.9375 -162.117188 35.8125 -158.359375 C 41.6875 -154.597656 45.945312 -147.238281 48.59375 -136.28125 C 55.6875 -105.71875 61.976562 -75.1875 67.46875 -44.6875 C 69.382812 -33.445312 68.390625 -24.941406 64.484375 -19.171875 C 60.578125 -13.398438 52.976562 -9.351562 41.6875 -7.03125 Z M 38.234375 -23.78125 C 45.890625 -25.351562 49.101562 -29.734375 47.875 -36.921875 C 46.113281 -47.398438 44.101562 -58.289062 41.84375 -69.59375 C 39.582031 -80.90625 37.222656 -92.1875 34.765625 -103.4375 C 32.316406 -114.695312 29.90625 -125.441406 27.53125 -135.671875 C 25.84375 -142.640625 21.171875 -145.335938 13.515625 -143.765625 C 5.742188 -142.160156 2.519531 -137.832031 3.84375 -130.78125 C 5.582031 -120.425781 7.550781 -109.59375 9.75 -98.28125 C 11.957031 -86.976562 14.285156 -75.691406 16.734375 -64.421875 C 19.179688 -53.160156 21.664062 -42.363281 24.1875 -32.03125 C 25.78125 -24.925781 30.460938 -22.175781 38.234375 -23.78125 Z M 38.234375 -23.78125 "/></g></g></g></g></g><g transform="matrix(1, 0, 0, 1, 74, 221)"><g clip-path="url(#e74a56ba7c)"><g fill="#d9d9d9" fill-opacity="1"><g transform="translate(12.074824, 78.181468)"><g><path d="M 4.96875 -1.03125 L -7.5 -43.515625 L -1.609375 -44.71875 L 3.28125 -26.984375 L 8.390625 -7.140625 L 9.640625 -7.390625 L 6.140625 -27.5625 L 5.3125 -45.859375 L 13.25 -47.484375 L 19.703125 -30.359375 L 24.5 -10.453125 L 25.671875 -10.6875 L 22.5625 -30.953125 L 20.046875 -49.1875 L 25.9375 -50.390625 L 31.28125 -6.4375 L 21.4375 -4.421875 L 17.125 -17.203125 L 10.859375 -41.828125 L 9.71875 -41.59375 L 13.71875 -16.5 L 14.796875 -3.046875 Z M 4.96875 -1.03125 "/></g></g></g><g fill="#d9d9d9" fill-opacity="1"><g transform="translate(48.274373, 70.72459)"><g><path d="M 4.96875 -1.03125 L -7.5 -43.515625 L -1.609375 -44.71875 L 3.28125 -26.984375 L 8.390625 -7.140625 L 9.640625 -7.390625 L 6.140625 -27.5625 L 5.3125 -45.859375 L 13.25 -47.484375 L 19.703125 -30.359375 L 24.5 -10.453125 L 25.671875 -10.6875 L 22.5625 -30.953125 L 20.046875 -49.1875 L 25.9375 -50.390625 L 31.28125 -6.4375 L 21.4375 -4.421875 L 17.125 -17.203125 L 10.859375 -41.828125 L 9.71875 -41.59375 L 13.71875 -16.5 L 14.796875 -3.046875 Z M 4.96875 -1.03125 "/></g></g></g><g fill="#d9d9d9" fill-opacity="1"><g transform="translate(84.473922, 63.267711)"><g><path d="M 4.96875 -1.03125 L -7.5 -43.515625 L -1.609375 -44.71875 L 3.28125 -26.984375 L 8.390625 -7.140625 L 9.640625 -7.390625 L 6.140625 -27.5625 L 5.3125 -45.859375 L 13.25 -47.484375 L 19.703125 -30.359375 L 24.5 -10.453125 L 25.671875 -10.6875 L 22.5625 -30.953125 L 20.046875 -49.1875 L 25.9375 -50.390625 L 31.28125 -6.4375 L 21.4375 -4.421875 L 17.125 -17.203125 L 10.859375 -41.828125 L 9.71875 -41.59375 L 13.71875 -16.5 L 14.796875 -3.046875 Z M 4.96875 -1.03125 "/></g></g></g><g fill="#d9d9d9" fill-opacity="1"><g transform="translate(119.592884, 56.033427)"><g><path d="M 2.328125 -0.484375 L 1.0625 -6.640625 L 8.6875 -8.203125 L 9.953125 -2.046875 Z M 2.328125 -0.484375 "/></g></g></g></g></g><g transform="matrix(1, 0, 0, 1, 601, 399)"><g clip-path="url(#c09203c74f)"><g fill="#d9d9d9" fill-opacity="1"><g transform="translate(11.785276, 72.29824)"><g><path d="M 2.328125 -0.484375 L 1.0625 -6.640625 L 8.6875 -8.203125 L 9.953125 -2.046875 Z M 2.328125 -0.484375 "/></g></g></g><g fill="#d9d9d9" fill-opacity="1"><g transform="translate(24.049893, 69.771806)"><g><path d="M 11.875 -1.9375 C 8.59375 -1.257812 6.113281 -1.472656 4.4375 -2.578125 C 2.769531 -3.679688 1.570312 -5.828125 0.84375 -9.015625 C 0.257812 -11.703125 -0.351562 -14.554688 -1 -17.578125 C -1.644531 -20.609375 -2.269531 -23.632812 -2.875 -26.65625 C -3.476562 -29.6875 -4.039062 -32.554688 -4.5625 -35.265625 C -5.101562 -38.085938 -4.8125 -40.425781 -3.6875 -42.28125 C -2.570312 -44.144531 -0.410156 -45.40625 2.796875 -46.0625 C 5.960938 -46.71875 8.394531 -46.5 10.09375 -45.40625 C 11.800781 -44.3125 13.019531 -42.191406 13.75 -39.046875 C 13.988281 -38.066406 14.253906 -36.875 14.546875 -35.46875 C 14.835938 -34.070312 15.0625 -32.890625 15.21875 -31.921875 L 9.390625 -30.71875 C 9.148438 -31.90625 8.878906 -33.253906 8.578125 -34.765625 C 8.285156 -36.273438 8 -37.644531 7.71875 -38.875 C 7.25 -40.914062 5.9375 -41.710938 3.78125 -41.265625 C 1.625 -40.828125 0.722656 -39.570312 1.078125 -37.5 C 1.898438 -32.90625 2.8125 -28.175781 3.8125 -23.3125 C 4.8125 -18.445312 5.84375 -13.738281 6.90625 -9.1875 C 7.40625 -7.113281 8.734375 -6.296875 10.890625 -6.734375 C 13.191406 -7.210938 14.144531 -8.503906 13.75 -10.609375 C 13.53125 -11.867188 13.257812 -13.28125 12.9375 -14.84375 C 12.613281 -16.414062 12.304688 -17.816406 12.015625 -19.046875 L 17.859375 -20.234375 C 18.140625 -19.046875 18.410156 -17.820312 18.671875 -16.5625 C 18.929688 -15.300781 19.164062 -14.054688 19.375 -12.828125 C 19.96875 -9.609375 19.675781 -7.15625 18.5 -5.46875 C 17.320312 -3.78125 15.113281 -2.601562 11.875 -1.9375 Z M 11.875 -1.9375 "/></g></g></g><g fill="#d9d9d9" fill-opacity="1"><g transform="translate(46.093791, 65.230902)"><g><path d="M 11.984375 -2.03125 C 8.742188 -1.363281 6.269531 -1.5625 4.5625 -2.625 C 2.851562 -3.695312 1.628906 -5.832031 0.890625 -9.03125 C -1.085938 -17.738281 -2.894531 -26.503906 -4.53125 -35.328125 C -5.101562 -38.515625 -4.816406 -40.9375 -3.671875 -42.59375 C -2.523438 -44.257812 -0.332031 -45.425781 2.90625 -46.09375 C 6.132812 -46.757812 8.59375 -46.550781 10.28125 -45.46875 C 11.976562 -44.394531 13.203125 -42.28125 13.953125 -39.125 C 15.984375 -30.351562 17.789062 -21.585938 19.375 -12.828125 C 19.9375 -9.597656 19.648438 -7.15625 18.515625 -5.5 C 17.390625 -3.851562 15.210938 -2.695312 11.984375 -2.03125 Z M 10.984375 -6.828125 C 13.179688 -7.273438 14.101562 -8.535156 13.75 -10.609375 C 13.25 -13.617188 12.671875 -16.742188 12.015625 -19.984375 C 11.359375 -23.234375 10.675781 -26.472656 9.96875 -29.703125 C 9.269531 -32.941406 8.582031 -36.03125 7.90625 -38.96875 C 7.425781 -40.96875 6.085938 -41.742188 3.890625 -41.296875 C 1.660156 -40.835938 0.734375 -39.59375 1.109375 -37.5625 C 1.609375 -34.59375 2.171875 -31.484375 2.796875 -28.234375 C 3.429688 -24.984375 4.101562 -21.738281 4.8125 -18.5 C 5.519531 -15.269531 6.234375 -12.171875 6.953125 -9.203125 C 7.410156 -7.160156 8.753906 -6.367188 10.984375 -6.828125 Z M 10.984375 -6.828125 "/></g></g></g><g fill="#d9d9d9" fill-opacity="1"><g transform="translate(69.110224, 60.489663)"><g><path d="M 2.484375 -0.515625 L -6.421875 -43.734375 L 3.5625 -45.78125 L 10 -29.375 L 15.71875 -8.703125 L 16.90625 -8.9375 L 13.890625 -30.171875 L 13.34375 -47.796875 L 23.296875 -49.84375 L 32.203125 -6.625 L 26.375 -5.4375 L 23.6875 -18.5 L 19.5625 -43.671875 L 18.328125 -43.421875 L 20.84375 -17.40625 L 20.890625 -4.421875 L 13.75 -2.953125 L 8.703125 -14.90625 L 0.75 -39.796875 L -0.484375 -39.546875 L 5.71875 -14.640625 L 8.375 -1.71875 Z M 2.484375 -0.515625 "/></g></g></g></g></g><g transform="matrix(1, 0, 0, 1, 30, 169)"><g clip-path="url(#6e2c6f7222)"><g fill="#ffffff" fill-opacity="1"><g transform="translate(39.522297, 322.045988)"><g><path d="M 8.640625 -1.78125 L -22.359375 -152.265625 L 7.359375 -158.390625 C 18.523438 -160.691406 27.140625 -159.976562 33.203125 -156.25 C 39.265625 -152.53125 43.597656 -145.320312 46.203125 -134.625 C 47.859375 -127.78125 49.257812 -121.566406 50.40625 -115.984375 C 51.5625 -110.398438 52.65625 -104.507812 53.6875 -98.3125 C 55.519531 -87.4375 54.382812 -79.09375 50.28125 -73.28125 C 46.1875 -67.476562 38.5 -63.410156 27.21875 -61.078125 L 18.1875 -59.21875 L 29.15625 -6 Z M 14.46875 -77.28125 L 23.5 -79.140625 C 31.394531 -80.773438 34.742188 -85.457031 33.546875 -93.1875 C 32.554688 -99.257812 31.367188 -105.648438 29.984375 -112.359375 C 28.609375 -119.066406 27.175781 -125.398438 25.6875 -131.359375 C 23.726562 -138.941406 18.859375 -141.929688 11.078125 -140.328125 L 1.875 -138.421875 Z M 14.46875 -77.28125 "/></g></g></g><g fill="#ffffff" fill-opacity="1"><g transform="translate(113.823329, 306.740446)"><g><path d="M 41.6875 -7.03125 C 30.40625 -4.695312 21.796875 -5.398438 15.859375 -9.140625 C 9.921875 -12.890625 5.679688 -20.316406 3.140625 -31.421875 C -3.765625 -61.765625 -10.054688 -92.296875 -15.734375 -123.015625 C -17.753906 -134.109375 -16.78125 -142.546875 -12.8125 -148.328125 C -8.84375 -154.117188 -1.21875 -158.179688 10.0625 -160.515625 C 21.351562 -162.835938 29.9375 -162.117188 35.8125 -158.359375 C 41.6875 -154.597656 45.945312 -147.238281 48.59375 -136.28125 C 55.6875 -105.71875 61.976562 -75.1875 67.46875 -44.6875 C 69.382812 -33.445312 68.390625 -24.941406 64.484375 -19.171875 C 60.578125 -13.398438 52.976562 -9.351562 41.6875 -7.03125 Z M 38.234375 -23.78125 C 45.890625 -25.351562 49.101562 -29.734375 47.875 -36.921875 C 46.113281 -47.398438 44.101562 -58.289062 41.84375 -69.59375 C 39.582031 -80.90625 37.222656 -92.1875 34.765625 -103.4375 C 32.316406 -114.695312 29.90625 -125.441406 27.53125 -135.671875 C 25.84375 -142.640625 21.171875 -145.335938 13.515625 -143.765625 C 5.742188 -142.160156 2.519531 -137.832031 3.84375 -130.78125 C 5.582031 -120.425781 7.550781 -109.59375 9.75 -98.28125 C 11.957031 -86.976562 14.285156 -75.691406 16.734375 -64.421875 C 19.179688 -53.160156 21.664062 -42.363281 24.1875 -32.03125 C 25.78125 -24.925781 30.460938 -22.175781 38.234375 -23.78125 Z M 38.234375 -23.78125 "/></g></g></g><g fill="#ffffff" fill-opacity="1"><g transform="translate(193.955619, 290.233702)"><g><path d="M 41.6875 -7.03125 C 30.40625 -4.695312 21.882812 -5.453125 16.125 -9.296875 C 10.363281 -13.148438 6.082031 -20.601562 3.28125 -31.65625 C 2.25 -36.007812 1.335938 -40.265625 0.546875 -44.421875 C -0.234375 -48.578125 -0.90625 -52.945312 -1.46875 -57.53125 L 17.71875 -61.484375 C 18.53125 -56.296875 19.421875 -51.1875 20.390625 -46.15625 C 21.359375 -41.132812 22.484375 -36.460938 23.765625 -32.140625 C 24.796875 -28.429688 26.460938 -25.898438 28.765625 -24.546875 C 31.066406 -23.203125 34.222656 -22.945312 38.234375 -23.78125 C 42.128906 -24.570312 44.800781 -26.03125 46.25 -28.15625 C 47.707031 -30.28125 48.175781 -33.25 47.65625 -37.0625 C 47.15625 -41.40625 46.519531 -45.289062 45.75 -48.71875 C 44.976562 -52.15625 43.988281 -56.171875 42.78125 -60.765625 C 41.769531 -64.359375 40.367188 -67.34375 38.578125 -69.71875 C 36.785156 -72.09375 34.164062 -73.378906 30.71875 -73.578125 L 17.46875 -74.1875 C 8.5 -74.570312 1.90625 -77.066406 -2.3125 -81.671875 C -6.53125 -86.285156 -9.695312 -93.085938 -11.8125 -102.078125 C -12.507812 -105.460938 -13.21875 -108.910156 -13.9375 -112.421875 C -14.65625 -115.929688 -15.300781 -119.390625 -15.875 -122.796875 C -17.800781 -134.035156 -16.84375 -142.535156 -13 -148.296875 C -9.15625 -154.054688 -1.46875 -158.128906 10.0625 -160.515625 C 20.851562 -162.734375 29.1875 -161.960938 35.0625 -158.203125 C 40.9375 -154.441406 45.210938 -147.019531 47.890625 -135.9375 C 48.648438 -132.832031 49.457031 -129.046875 50.3125 -124.578125 C 51.175781 -120.117188 52.003906 -115.617188 52.796875 -111.078125 L 33.25 -107.046875 C 32.382812 -111.835938 31.5 -116.585938 30.59375 -121.296875 C 29.695312 -126.015625 28.628906 -130.734375 27.390625 -135.453125 C 25.660156 -142.535156 20.976562 -145.289062 13.34375 -143.71875 C 9.445312 -142.914062 6.738281 -141.441406 5.21875 -139.296875 C 3.707031 -137.160156 3.195312 -134.253906 3.6875 -130.578125 C 4.144531 -126.472656 4.820312 -122.390625 5.71875 -118.328125 C 6.625 -114.265625 7.613281 -110.253906 8.6875 -106.296875 C 9.789062 -102.222656 11.242188 -99.125 13.046875 -97 C 14.859375 -94.882812 17.613281 -93.75 21.3125 -93.59375 L 33.140625 -93.296875 C 42.484375 -92.992188 49.28125 -90.4375 53.53125 -85.625 C 57.789062 -80.820312 61.039062 -73.945312 63.28125 -65 C 64.226562 -61.007812 64.96875 -57.566406 65.5 -54.671875 C 66.03125 -51.773438 66.601562 -48.492188 67.21875 -44.828125 C 69.15625 -33.597656 68.175781 -25.0625 64.28125 -19.21875 C 60.382812 -13.382812 52.851562 -9.320312 41.6875 -7.03125 Z M 41.6875 -7.03125 "/></g></g></g><g fill="#ffffff" fill-opacity="1"><g transform="translate(271.266318, 274.308188)"><g><path d="M 26.140625 -5.390625 L -1.140625 -137.8125 L -22.953125 -133.3125 L -26.671875 -151.375 L 37.078125 -164.515625 L 40.796875 -146.453125 L 19.1875 -142 L 46.46875 -9.578125 Z M 26.140625 -5.390625 "/></g></g></g><g fill="#ffffff" fill-opacity="1"><g transform="translate(340.488546, 260.048848)"><g><path d="M 8.640625 -1.78125 L -22.359375 -152.265625 L -1.84375 -156.484375 L 29.15625 -6 Z M 8.640625 -1.78125 "/></g></g></g><g fill="#ffffff" fill-opacity="1"><g transform="translate(376.980729, 252.53169)"><g><path d="M 41.34375 -6.734375 C 29.9375 -4.390625 21.320312 -5.132812 15.5 -8.96875 C 9.675781 -12.8125 5.492188 -20.285156 2.953125 -31.390625 C 0.890625 -40.773438 -1.257812 -50.722656 -3.5 -61.234375 C -5.738281 -71.753906 -7.90625 -82.285156 -10 -92.828125 C -12.101562 -103.378906 -14.0625 -113.367188 -15.875 -122.796875 C -17.769531 -132.609375 -16.769531 -140.757812 -12.875 -147.25 C -8.988281 -153.738281 -1.46875 -158.128906 9.6875 -160.421875 C 20.726562 -162.703125 29.222656 -161.9375 35.171875 -158.125 C 41.117188 -154.320312 45.359375 -146.925781 47.890625 -135.9375 C 48.710938 -132.570312 49.625 -128.445312 50.625 -123.5625 C 51.632812 -118.675781 52.425781 -114.53125 53 -111.125 L 32.671875 -106.9375 C 31.816406 -111.0625 30.878906 -115.765625 29.859375 -121.046875 C 28.835938 -126.328125 27.820312 -131.09375 26.8125 -135.34375 C 25.226562 -142.445312 20.671875 -145.222656 13.140625 -143.671875 C 5.617188 -142.128906 2.46875 -137.765625 3.6875 -130.578125 C 6.59375 -114.566406 9.789062 -98.09375 13.28125 -81.15625 C 16.769531 -64.226562 20.34375 -47.84375 24 -32 C 25.75 -24.78125 30.382812 -21.941406 37.90625 -23.484375 C 45.9375 -25.140625 49.257812 -29.617188 47.875 -36.921875 C 47.101562 -41.328125 46.15625 -46.257812 45.03125 -51.71875 C 43.90625 -57.175781 42.835938 -62.03125 41.828125 -66.28125 L 62.15625 -70.46875 C 63.132812 -66.34375 64.070312 -62.085938 64.96875 -57.703125 C 65.875 -53.316406 66.707031 -48.976562 67.46875 -44.6875 C 69.507812 -33.476562 68.488281 -24.929688 64.40625 -19.046875 C 60.320312 -13.171875 52.632812 -9.066406 41.34375 -6.734375 Z M 41.34375 -6.734375 "/></g></g></g><g fill="#ffffff" fill-opacity="1"><g transform="translate(453.727099, 236.722424)"><g><path d="M 4.328125 -0.890625 L -8.25 -155.171875 L 25.625 -162.140625 L 75.046875 -15.453125 L 54.359375 -11.203125 L 43.046875 -48.078125 L 21.03125 -43.53125 L 25.203125 -5.1875 Z M 19.21875 -61.796875 L 37.28125 -65.515625 L 27.265625 -97.96875 L 15.03125 -141.140625 L 9.765625 -140.046875 L 15.609375 -95.5625 Z M 19.21875 -61.796875 "/></g></g></g><g fill="#ffffff" fill-opacity="1"><g transform="translate(529.909155, 221.029404)"><g><path d="M 8.640625 -1.78125 L -22.359375 -152.265625 L 9.25 -158.78125 L 28.875 -113.015625 L 58.53125 -30.890625 L 62.875 -31.78125 L 44.09375 -104.78125 L 30.5 -163.15625 L 50.265625 -167.21875 L 81.265625 -16.734375 L 48.34375 -9.953125 L 27.578125 -59.40625 L 0.90625 -138.421875 L -3.8125 -137.453125 L 14.890625 -62.875 L 28.40625 -5.84375 Z M 8.640625 -1.78125 "/></g></g></g><g fill="#ffffff" fill-opacity="1"><g transform="translate(618.506149, 202.778984)"><g><path d="M 41.6875 -7.03125 C 30.40625 -4.695312 21.796875 -5.398438 15.859375 -9.140625 C 9.921875 -12.890625 5.679688 -20.316406 3.140625 -31.421875 C -3.765625 -61.765625 -10.054688 -92.296875 -15.734375 -123.015625 C -17.753906 -134.109375 -16.78125 -142.546875 -12.8125 -148.328125 C -8.84375 -154.117188 -1.21875 -158.179688 10.0625 -160.515625 C 21.351562 -162.835938 29.9375 -162.117188 35.8125 -158.359375 C 41.6875 -154.597656 45.945312 -147.238281 48.59375 -136.28125 C 55.6875 -105.71875 61.976562 -75.1875 67.46875 -44.6875 C 69.382812 -33.445312 68.390625 -24.941406 64.484375 -19.171875 C 60.578125 -13.398438 52.976562 -9.351562 41.6875 -7.03125 Z M 38.234375 -23.78125 C 45.890625 -25.351562 49.101562 -29.734375 47.875 -36.921875 C 46.113281 -47.398438 44.101562 -58.289062 41.84375 -69.59375 C 39.582031 -80.90625 37.222656 -92.1875 34.765625 -103.4375 C 32.316406 -114.695312 29.90625 -125.441406 27.53125 -135.671875 C 25.84375 -142.640625 21.171875 -145.335938 13.515625 -143.765625 C 5.742188 -142.160156 2.519531 -137.832031 3.84375 -130.78125 C 5.582031 -120.425781 7.550781 -109.59375 9.75 -98.28125 C 11.957031 -86.976562 14.285156 -75.691406 16.734375 -64.421875 C 19.179688 -53.160156 21.664062 -42.363281 24.1875 -32.03125 C 25.78125 -24.925781 30.460938 -22.175781 38.234375 -23.78125 Z M 38.234375 -23.78125 "/></g></g></g></g></g><g transform="matrix(1, 0, 0, 1, 76, 221)"><g clip-path="url(#8e59f77fd4)"><g fill="#ffffff" fill-opacity="1"><g transform="translate(12.006188, 78.181468)"><g><path d="M 4.96875 -1.03125 L -7.5 -43.515625 L -1.609375 -44.71875 L 3.28125 -26.984375 L 8.390625 -7.140625 L 9.640625 -7.390625 L 6.140625 -27.5625 L 5.3125 -45.859375 L 13.25 -47.484375 L 19.703125 -30.359375 L 24.5 -10.453125 L 25.671875 -10.6875 L 22.5625 -30.953125 L 20.046875 -49.1875 L 25.9375 -50.390625 L 31.28125 -6.4375 L 21.4375 -4.421875 L 17.125 -17.203125 L 10.859375 -41.828125 L 9.71875 -41.59375 L 13.71875 -16.5 L 14.796875 -3.046875 Z M 4.96875 -1.03125 "/></g></g></g><g fill="#ffffff" fill-opacity="1"><g transform="translate(48.205737, 70.72459)"><g><path d="M 4.96875 -1.03125 L -7.5 -43.515625 L -1.609375 -44.71875 L 3.28125 -26.984375 L 8.390625 -7.140625 L 9.640625 -7.390625 L 6.140625 -27.5625 L 5.3125 -45.859375 L 13.25 -47.484375 L 19.703125 -30.359375 L 24.5 -10.453125 L 25.671875 -10.6875 L 22.5625 -30.953125 L 20.046875 -49.1875 L 25.9375 -50.390625 L 31.28125 -6.4375 L 21.4375 -4.421875 L 17.125 -17.203125 L 10.859375 -41.828125 L 9.71875 -41.59375 L 13.71875 -16.5 L 14.796875 -3.046875 Z M 4.96875 -1.03125 "/></g></g></g><g fill="#ffffff" fill-opacity="1"><g transform="translate(84.405286, 63.267711)"><g><path d="M 4.96875 -1.03125 L -7.5 -43.515625 L -1.609375 -44.71875 L 3.28125 -26.984375 L 8.390625 -7.140625 L 9.640625 -7.390625 L 6.140625 -27.5625 L 5.3125 -45.859375 L 13.25 -47.484375 L 19.703125 -30.359375 L 24.5 -10.453125 L 25.671875 -10.6875 L 22.5625 -30.953125 L 20.046875 -49.1875 L 25.9375 -50.390625 L 31.28125 -6.4375 L 21.4375 -4.421875 L 17.125 -17.203125 L 10.859375 -41.828125 L 9.71875 -41.59375 L 13.71875 -16.5 L 14.796875 -3.046875 Z M 4.96875 -1.03125 "/></g></g></g><g fill="#ffffff" fill-opacity="1"><g transform="translate(119.524248, 56.033427)"><g><path d="M 2.328125 -0.484375 L 1.0625 -6.640625 L 8.6875 -8.203125 L 9.953125 -2.046875 Z M 2.328125 -0.484375 "/></g></g></g></g></g><g transform="matrix(1, 0, 0, 1, 603, 399)"><g clip-path="url(#7f768c2663)"><g fill="#ffffff" fill-opacity="1"><g transform="translate(12.059768, 72.29824)"><g><path d="M 2.328125 -0.484375 L 1.0625 -6.640625 L 8.6875 -8.203125 L 9.953125 -2.046875 Z M 2.328125 -0.484375 "/></g></g></g><g fill="#ffffff" fill-opacity="1"><g transform="translate(24.324385, 69.771806)"><g><path d="M 11.875 -1.9375 C 8.59375 -1.257812 6.113281 -1.472656 4.4375 -2.578125 C 2.769531 -3.679688 1.570312 -5.828125 0.84375 -9.015625 C 0.257812 -11.703125 -0.351562 -14.554688 -1 -17.578125 C -1.644531 -20.609375 -2.269531 -23.632812 -2.875 -26.65625 C -3.476562 -29.6875 -4.039062 -32.554688 -4.5625 -35.265625 C -5.101562 -38.085938 -4.8125 -40.425781 -3.6875 -42.28125 C -2.570312 -44.144531 -0.410156 -45.40625 2.796875 -46.0625 C 5.960938 -46.71875 8.394531 -46.5 10.09375 -45.40625 C 11.800781 -44.3125 13.019531 -42.191406 13.75 -39.046875 C 13.988281 -38.066406 14.253906 -36.875 14.546875 -35.46875 C 14.835938 -34.070312 15.0625 -32.890625 15.21875 -31.921875 L 9.390625 -30.71875 C 9.148438 -31.90625 8.878906 -33.253906 8.578125 -34.765625 C 8.285156 -36.273438 8 -37.644531 7.71875 -38.875 C 7.25 -40.914062 5.9375 -41.710938 3.78125 -41.265625 C 1.625 -40.828125 0.722656 -39.570312 1.078125 -37.5 C 1.898438 -32.90625 2.8125 -28.175781 3.8125 -23.3125 C 4.8125 -18.445312 5.84375 -13.738281 6.90625 -9.1875 C 7.40625 -7.113281 8.734375 -6.296875 10.890625 -6.734375 C 13.191406 -7.210938 14.144531 -8.503906 13.75 -10.609375 C 13.53125 -11.867188 13.257812 -13.28125 12.9375 -14.84375 C 12.613281 -16.414062 12.304688 -17.816406 12.015625 -19.046875 L 17.859375 -20.234375 C 18.140625 -19.046875 18.410156 -17.820312 18.671875 -16.5625 C 18.929688 -15.300781 19.164062 -14.054688 19.375 -12.828125 C 19.96875 -9.609375 19.675781 -7.15625 18.5 -5.46875 C 17.320312 -3.78125 15.113281 -2.601562 11.875 -1.9375 Z M 11.875 -1.9375 "/></g></g></g><g fill="#ffffff" fill-opacity="1"><g transform="translate(46.368283, 65.230902)"><g><path d="M 11.984375 -2.03125 C 8.742188 -1.363281 6.269531 -1.5625 4.5625 -2.625 C 2.851562 -3.695312 1.628906 -5.832031 0.890625 -9.03125 C -1.085938 -17.738281 -2.894531 -26.503906 -4.53125 -35.328125 C -5.101562 -38.515625 -4.816406 -40.9375 -3.671875 -42.59375 C -2.523438 -44.257812 -0.332031 -45.425781 2.90625 -46.09375 C 6.132812 -46.757812 8.59375 -46.550781 10.28125 -45.46875 C 11.976562 -44.394531 13.203125 -42.28125 13.953125 -39.125 C 15.984375 -30.351562 17.789062 -21.585938 19.375 -12.828125 C 19.9375 -9.597656 19.648438 -7.15625 18.515625 -5.5 C 17.390625 -3.851562 15.210938 -2.695312 11.984375 -2.03125 Z M 10.984375 -6.828125 C 13.179688 -7.273438 14.101562 -8.535156 13.75 -10.609375 C 13.25 -13.617188 12.671875 -16.742188 12.015625 -19.984375 C 11.359375 -23.234375 10.675781 -26.472656 9.96875 -29.703125 C 9.269531 -32.941406 8.582031 -36.03125 7.90625 -38.96875 C 7.425781 -40.96875 6.085938 -41.742188 3.890625 -41.296875 C 1.660156 -40.835938 0.734375 -39.59375 1.109375 -37.5625 C 1.609375 -34.59375 2.171875 -31.484375 2.796875 -28.234375 C 3.429688 -24.984375 4.101562 -21.738281 4.8125 -18.5 C 5.519531 -15.269531 6.234375 -12.171875 6.953125 -9.203125 C 7.410156 -7.160156 8.753906 -6.367188 10.984375 -6.828125 Z M 10.984375 -6.828125 "/></g></g></g><g fill="#ffffff" fill-opacity="1"><g transform="translate(69.384716, 60.489663)"><g><path d="M 2.484375 -0.515625 L -6.421875 -43.734375 L 3.5625 -45.78125 L 10 -29.375 L 15.71875 -8.703125 L 16.90625 -8.9375 L 13.890625 -30.171875 L 13.34375 -47.796875 L 23.296875 -49.84375 L 32.203125 -6.625 L 26.375 -5.4375 L 23.6875 -18.5 L 19.5625 -43.671875 L 18.328125 -43.421875 L 20.84375 -17.40625 L 20.890625 -4.421875 L 13.75 -2.953125 L 8.703125 -14.90625 L 0.75 -39.796875 L -0.484375 -39.546875 L 5.71875 -14.640625 L 8.375 -1.71875 Z M 2.484375 -0.515625 "/></g></g></g></g></g></svg>