<svg xmlns="http://www.w3.org/2000/svg" xmlns:xlink="http://www.w3.org/1999/xlink" width="1000" zoomAndPan="magnify" viewBox="0 0 750 749.999995" height="1000" preserveAspectRatio="xMidYMid meet" version="1.0"><defs><g/></defs><g fill="#000f52" fill-opacity="1"><g transform="translate(9.653267, 715.149537)"><g><path d="M 12.59375 0 C 10.90625 0 9.460938 -0.578125 8.265625 -1.734375 C 7.078125 -2.898438 6.484375 -4.328125 6.484375 -6.015625 L 6.484375 -54.140625 C 6.484375 -55.765625 7.078125 -57.171875 8.265625 -58.359375 C 9.460938 -59.554688 10.90625 -60.15625 12.59375 -60.15625 L 29.140625 -60.15625 C 33.398438 -60.15625 37.25 -59.132812 40.6875 -57.09375 C 44.132812 -55.0625 46.890625 -52.320312 48.953125 -48.875 C 51.023438 -45.425781 52.0625 -41.570312 52.0625 -37.3125 C 52.0625 -33.175781 51.023438 -29.445312 48.953125 -26.125 C 46.890625 -22.800781 44.117188 -20.179688 40.640625 -18.265625 C 37.171875 -16.359375 33.335938 -15.40625 29.140625 -15.40625 L 18.796875 -15.40625 L 18.796875 -6.015625 C 18.796875 -4.390625 18.179688 -2.976562 16.953125 -1.78125 C 15.734375 -0.59375 14.28125 0 12.59375 0 Z M 18.796875 -48.875 L 18.796875 -26.6875 L 29.328125 -26.6875 C 32.453125 -26.6875 34.96875 -27.734375 36.875 -29.828125 C 38.789062 -31.929688 39.75 -34.550781 39.75 -37.6875 C 39.75 -40.820312 38.789062 -43.46875 36.875 -45.625 C 34.96875 -47.789062 32.453125 -48.875 29.328125 -48.875 Z M 18.796875 -48.875 "/></g></g></g><g fill="#000f52" fill-opacity="1"><g transform="translate(91.892887, 715.149537)"><g><path d="M 35.0625 0.84375 C 30.800781 0.84375 26.789062 0.046875 23.03125 -1.546875 C 19.269531 -3.148438 15.960938 -5.359375 13.109375 -8.171875 C 10.253906 -10.992188 8.015625 -14.269531 6.390625 -18 C 4.765625 -21.726562 3.953125 -25.722656 3.953125 -29.984375 C 3.953125 -34.242188 4.765625 -38.253906 6.390625 -42.015625 C 8.015625 -45.773438 10.253906 -49.078125 13.109375 -51.921875 C 15.960938 -54.773438 19.269531 -57.015625 23.03125 -58.640625 C 26.789062 -60.273438 30.800781 -61.09375 35.0625 -61.09375 C 39.257812 -61.09375 43.25 -60.273438 47.03125 -58.640625 C 50.820312 -57.015625 54.175781 -54.773438 57.09375 -51.921875 C 60.007812 -49.078125 62.296875 -45.773438 63.953125 -42.015625 C 65.617188 -38.253906 66.453125 -34.242188 66.453125 -29.984375 C 66.453125 -25.722656 65.617188 -21.726562 63.953125 -18 C 62.296875 -14.269531 60.007812 -10.992188 57.09375 -8.171875 C 54.175781 -5.359375 50.820312 -3.148438 47.03125 -1.546875 C 43.25 0.046875 39.257812 0.84375 35.0625 0.84375 Z M 35.0625 -10.71875 C 38.6875 -10.71875 41.941406 -11.546875 44.828125 -13.203125 C 47.710938 -14.867188 49.984375 -17.15625 51.640625 -20.0625 C 53.304688 -22.976562 54.140625 -26.285156 54.140625 -29.984375 C 54.140625 -33.742188 53.304688 -37.09375 51.640625 -40.03125 C 49.984375 -42.976562 47.710938 -45.296875 44.828125 -46.984375 C 41.941406 -48.679688 38.6875 -49.53125 35.0625 -49.53125 C 31.488281 -49.53125 28.273438 -48.679688 25.421875 -46.984375 C 22.566406 -45.296875 20.3125 -42.976562 18.65625 -40.03125 C 17 -37.09375 16.171875 -33.742188 16.171875 -29.984375 C 16.171875 -26.285156 17 -22.976562 18.65625 -20.0625 C 20.3125 -17.15625 22.566406 -14.867188 25.421875 -13.203125 C 28.273438 -11.546875 31.488281 -10.71875 35.0625 -10.71875 Z M 35.0625 -10.71875 "/></g></g></g><g fill="#000f52" fill-opacity="1"><g transform="translate(190.391802, 715.149537)"><g><path d="M 23.78125 0.84375 C 20.457031 0.84375 17.507812 0.34375 14.9375 -0.65625 C 12.375 -1.65625 10.195312 -2.90625 8.40625 -4.40625 C 6.625 -5.914062 5.234375 -7.421875 4.234375 -8.921875 C 3.285156 -10.242188 2.921875 -11.59375 3.140625 -12.96875 C 3.367188 -14.34375 3.984375 -15.5 4.984375 -16.4375 C 5.984375 -17.382812 7.234375 -17.859375 8.734375 -17.859375 C 9.492188 -17.859375 10.328125 -17.703125 11.234375 -17.390625 C 12.140625 -17.078125 13 -16.414062 13.8125 -15.40625 C 14.875 -14.03125 16.328125 -12.90625 18.171875 -12.03125 C 20.023438 -11.15625 22.300781 -10.71875 25 -10.71875 C 27.445312 -10.71875 29.453125 -11.265625 31.015625 -12.359375 C 32.578125 -13.453125 33.359375 -15.253906 33.359375 -17.765625 C 33.359375 -19.578125 32.492188 -21.046875 30.765625 -22.171875 C 29.046875 -23.304688 26.53125 -24.5 23.21875 -25.75 C 19.832031 -27 16.757812 -28.359375 14 -29.828125 C 11.25 -31.304688 9.070312 -33.171875 7.46875 -35.421875 C 5.875 -37.679688 5.078125 -40.566406 5.078125 -44.078125 C 5.078125 -47.710938 5.90625 -50.78125 7.5625 -53.28125 C 9.226562 -55.789062 11.5 -57.71875 14.375 -59.0625 C 17.257812 -60.414062 20.457031 -61.09375 23.96875 -61.09375 C 27.664062 -61.09375 31.25 -60.351562 34.71875 -58.875 C 38.195312 -57.40625 40.816406 -55.195312 42.578125 -52.25 C 43.265625 -51.125 43.421875 -49.945312 43.046875 -48.71875 C 42.671875 -47.5 42.140625 -46.546875 41.453125 -45.859375 C 40.628906 -45.046875 39.46875 -44.5625 37.96875 -44.40625 C 36.46875 -44.25 34.992188 -44.765625 33.546875 -45.953125 C 30.859375 -48.335938 27.414062 -49.53125 23.21875 -49.53125 C 21.644531 -49.53125 20.234375 -49.125 18.984375 -48.3125 C 17.734375 -47.5 17.109375 -46.179688 17.109375 -44.359375 C 17.109375 -42.171875 17.984375 -40.523438 19.734375 -39.421875 C 21.492188 -38.328125 23.4375 -37.40625 25.5625 -36.65625 C 29.382812 -35.34375 32.796875 -33.882812 35.796875 -32.28125 C 38.804688 -30.6875 41.1875 -28.742188 42.9375 -26.453125 C 44.695312 -24.171875 45.578125 -21.273438 45.578125 -17.765625 C 45.578125 -14.316406 44.648438 -11.179688 42.796875 -8.359375 C 40.953125 -5.546875 38.382812 -3.304688 35.09375 -1.640625 C 31.8125 0.015625 28.039062 0.84375 23.78125 0.84375 Z M 23.78125 0.84375 "/></g></g></g><g fill="#000f52" fill-opacity="1"><g transform="translate(268.496088, 715.149537)"><g><path d="M 6.578125 -60.15625 L 43.515625 -60.15625 C 45.203125 -60.15625 46.640625 -59.554688 47.828125 -58.359375 C 49.023438 -57.171875 49.625 -55.765625 49.625 -54.140625 C 49.625 -52.753906 49.023438 -51.515625 47.828125 -50.421875 C 46.640625 -49.328125 45.203125 -48.78125 43.515625 -48.78125 L 31.203125 -48.78125 L 31.203125 -6.015625 C 31.203125 -4.328125 30.585938 -2.898438 29.359375 -1.734375 C 28.140625 -0.578125 26.6875 0 25 0 C 23.3125 0 21.867188 -0.578125 20.671875 -1.734375 C 19.484375 -2.898438 18.890625 -4.328125 18.890625 -6.015625 L 18.890625 -48.78125 L 6.578125 -48.78125 C 4.890625 -48.78125 3.445312 -49.34375 2.25 -50.46875 C 1.0625 -51.59375 0.46875 -52.816406 0.46875 -54.140625 C 0.46875 -55.765625 1.0625 -57.171875 2.25 -58.359375 C 3.445312 -59.554688 4.890625 -60.15625 6.578125 -60.15625 Z M 6.578125 -60.15625 "/></g></g></g><g fill="#000f52" fill-opacity="1"><g transform="translate(346.882346, 715.149537)"><g><path d="M 12.59375 0 C 10.90625 0 9.460938 -0.59375 8.265625 -1.78125 C 7.078125 -2.976562 6.484375 -4.390625 6.484375 -6.015625 L 6.484375 -54.140625 C 6.484375 -55.828125 7.078125 -57.25 8.265625 -58.40625 C 9.460938 -59.570312 10.90625 -60.15625 12.59375 -60.15625 C 14.28125 -60.15625 15.734375 -59.570312 16.953125 -58.40625 C 18.179688 -57.25 18.796875 -55.828125 18.796875 -54.140625 L 18.796875 -6.015625 C 18.796875 -4.390625 18.179688 -2.976562 16.953125 -1.78125 C 15.734375 -0.59375 14.28125 0 12.59375 0 Z M 12.59375 0 "/></g></g></g><g fill="#000f52" fill-opacity="1"><g transform="translate(400.362736, 715.149537)"><g><path d="M 34.203125 0.84375 C 30.066406 0.84375 26.164062 0.03125 22.5 -1.59375 C 18.84375 -3.226562 15.632812 -5.453125 12.875 -8.265625 C 10.113281 -11.085938 7.9375 -14.363281 6.34375 -18.09375 C 4.75 -21.820312 3.953125 -25.785156 3.953125 -29.984375 C 3.953125 -33.992188 4.703125 -37.863281 6.203125 -41.59375 C 7.703125 -45.320312 9.800781 -48.640625 12.5 -51.546875 C 15.195312 -54.460938 18.34375 -56.78125 21.9375 -58.5 C 25.539062 -60.226562 29.472656 -61.09375 33.734375 -61.09375 C 37.992188 -61.09375 41.832031 -60.445312 45.25 -59.15625 C 48.664062 -57.875 51.941406 -55.789062 55.078125 -52.90625 C 56.328125 -51.78125 57.078125 -50.429688 57.328125 -48.859375 C 57.578125 -47.296875 57.234375 -45.859375 56.296875 -44.546875 C 55.296875 -43.234375 53.945312 -42.59375 52.25 -42.625 C 50.5625 -42.65625 49.03125 -43.171875 47.65625 -44.171875 C 45.769531 -45.796875 43.726562 -47.078125 41.53125 -48.015625 C 39.34375 -48.960938 36.960938 -49.4375 34.390625 -49.4375 C 31.140625 -49.4375 28.117188 -48.632812 25.328125 -47.03125 C 22.535156 -45.4375 20.3125 -43.179688 18.65625 -40.265625 C 17 -37.359375 16.171875 -33.960938 16.171875 -30.078125 C 16.171875 -26.566406 16.953125 -23.351562 18.515625 -20.4375 C 20.078125 -17.53125 22.222656 -15.195312 24.953125 -13.4375 C 27.679688 -11.6875 30.765625 -10.8125 34.203125 -10.8125 C 36.898438 -10.8125 39.34375 -11.265625 41.53125 -12.171875 C 43.726562 -13.078125 45.769531 -14.347656 47.65625 -15.984375 C 48.96875 -16.984375 50.484375 -17.5 52.203125 -17.53125 C 53.929688 -17.5625 55.296875 -16.914062 56.296875 -15.59375 C 57.234375 -14.28125 57.578125 -12.820312 57.328125 -11.21875 C 57.078125 -9.625 56.328125 -8.265625 55.078125 -7.140625 C 51.941406 -4.316406 48.664062 -2.28125 45.25 -1.03125 C 41.832031 0.21875 38.148438 0.84375 34.203125 0.84375 Z M 34.203125 0.84375 "/></g></g></g><g fill="#000f52" fill-opacity="1"><g transform="translate(489.839141, 715.149537)"><g><path d="M 35.71875 -54.515625 L 54.984375 -8.640625 C 55.609375 -7.390625 55.78125 -6.085938 55.5 -4.734375 C 55.21875 -3.390625 54.585938 -2.265625 53.609375 -1.359375 C 52.640625 -0.453125 51.34375 0 49.71875 0 C 48.46875 0.0625 47.304688 -0.25 46.234375 -0.9375 C 45.171875 -1.625 44.421875 -2.566406 43.984375 -3.765625 L 41.359375 -10.625 L 16.171875 -10.625 L 13.53125 -3.671875 C 13.09375 -2.472656 12.359375 -1.5625 11.328125 -0.9375 C 10.296875 -0.3125 9.148438 0 7.890625 0 C 5.578125 0 3.882812 -0.890625 2.8125 -2.671875 C 1.75 -4.460938 1.625 -6.453125 2.4375 -8.640625 L 21.515625 -54.421875 C 22.210938 -56.046875 23.140625 -57.40625 24.296875 -58.5 C 25.453125 -59.601562 26.910156 -60.15625 28.671875 -60.15625 C 30.484375 -60.15625 31.90625 -59.742188 32.9375 -58.921875 C 33.976562 -58.109375 34.90625 -56.640625 35.71875 -54.515625 Z M 28.765625 -43.421875 L 20.484375 -21.890625 L 37.03125 -21.890625 Z M 28.765625 -43.421875 "/></g></g></g><g fill="#000f52" fill-opacity="1"><g transform="translate(575.46223, 715.149537)"><g><path d="M 53.765625 -60.15625 C 55.453125 -60.15625 56.890625 -59.570312 58.078125 -58.40625 C 59.273438 -57.25 59.875 -55.828125 59.875 -54.140625 L 59.875 -6.015625 C 59.875 -4.765625 59.492188 -3.632812 58.734375 -2.625 C 57.984375 -1.625 57.078125 -0.875 56.015625 -0.375 C 55.015625 0.0625 53.882812 0.140625 52.625 -0.140625 C 51.375 -0.421875 50.28125 -1.15625 49.34375 -2.34375 L 18.796875 -38.71875 L 18.796875 -6.015625 C 18.796875 -4.390625 18.179688 -2.976562 16.953125 -1.78125 C 15.734375 -0.59375 14.28125 0 12.59375 0 C 10.90625 0 9.460938 -0.59375 8.265625 -1.78125 C 7.078125 -2.976562 6.484375 -4.390625 6.484375 -6.015625 L 6.484375 -53.953125 C 6.484375 -55.390625 6.84375 -56.59375 7.5625 -57.5625 C 8.28125 -58.53125 9.144531 -59.238281 10.15625 -59.6875 C 11.34375 -60.1875 12.609375 -60.296875 13.953125 -60.015625 C 15.304688 -59.734375 16.484375 -59.023438 17.484375 -57.890625 L 47.5625 -21.890625 L 47.5625 -54.140625 C 47.5625 -55.828125 48.171875 -57.25 49.390625 -58.40625 C 50.609375 -59.570312 52.066406 -60.15625 53.765625 -60.15625 Z M 53.765625 -60.15625 "/></g></g></g><g fill="#000f52" fill-opacity="1"><g transform="translate(670.01377, 715.149537)"><g><path d="M 35.0625 0.84375 C 30.800781 0.84375 26.789062 0.046875 23.03125 -1.546875 C 19.269531 -3.148438 15.960938 -5.359375 13.109375 -8.171875 C 10.253906 -10.992188 8.015625 -14.269531 6.390625 -18 C 4.765625 -21.726562 3.953125 -25.722656 3.953125 -29.984375 C 3.953125 -34.242188 4.765625 -38.253906 6.390625 -42.015625 C 8.015625 -45.773438 10.253906 -49.078125 13.109375 -51.921875 C 15.960938 -54.773438 19.269531 -57.015625 23.03125 -58.640625 C 26.789062 -60.273438 30.800781 -61.09375 35.0625 -61.09375 C 39.257812 -61.09375 43.25 -60.273438 47.03125 -58.640625 C 50.820312 -57.015625 54.175781 -54.773438 57.09375 -51.921875 C 60.007812 -49.078125 62.296875 -45.773438 63.953125 -42.015625 C 65.617188 -38.253906 66.453125 -34.242188 66.453125 -29.984375 C 66.453125 -25.722656 65.617188 -21.726562 63.953125 -18 C 62.296875 -14.269531 60.007812 -10.992188 57.09375 -8.171875 C 54.175781 -5.359375 50.820312 -3.148438 47.03125 -1.546875 C 43.25 0.046875 39.257812 0.84375 35.0625 0.84375 Z M 35.0625 -10.71875 C 38.6875 -10.71875 41.941406 -11.546875 44.828125 -13.203125 C 47.710938 -14.867188 49.984375 -17.15625 51.640625 -20.0625 C 53.304688 -22.976562 54.140625 -26.285156 54.140625 -29.984375 C 54.140625 -33.742188 53.304688 -37.09375 51.640625 -40.03125 C 49.984375 -42.976562 47.710938 -45.296875 44.828125 -46.984375 C 41.941406 -48.679688 38.6875 -49.53125 35.0625 -49.53125 C 31.488281 -49.53125 28.273438 -48.679688 25.421875 -46.984375 C 22.566406 -45.296875 20.3125 -42.976562 18.65625 -40.03125 C 17 -37.09375 16.171875 -33.742188 16.171875 -29.984375 C 16.171875 -26.285156 17 -22.976562 18.65625 -20.0625 C 20.3125 -17.15625 22.566406 -14.867188 25.421875 -13.203125 C 28.273438 -11.546875 31.488281 -10.71875 35.0625 -10.71875 Z M 35.0625 -10.71875 "/></g></g></g><path fill="#000f52" d="M 459.476562 131.667969 C 417.007812 107.84375 373.847656 83.328125 332.183594 58.699219 L 294.203125 36.371094 L 213.175781 83.214844 L 271.183594 116.707031 L 386.625 183.691406 L 387.3125 183.691406 L 457.289062 223.859375 L 478.929688 212.003906 L 479.617188 211.3125 L 538.429688 177.820312 Z M 564.441406 305.804688 L 478.121094 355.640625 L 462.46875 365.308594 L 461.78125 365.308594 L 446.125 374.285156 L 419.308594 389.9375 L 418.621094 390.628906 L 408.144531 396.613281 C 408.144531 456.921875 408.144531 517.117188 408.144531 578.230469 C 408.144531 579.726562 407.457031 581.914062 406.648438 583.410156 C 403.65625 588.589844 396.980469 590.085938 391.800781 587.09375 L 289.828125 528.28125 C 286.148438 526.785156 283.84375 523.101562 283.84375 518.613281 C 283.84375 497.78125 283.84375 476.949219 283.84375 456.117188 L 186.359375 399.492188 C 181.183594 396.5 178.878906 389.824219 181.871094 384.644531 C 183.367188 383.148438 184.863281 381.652344 186.359375 380.15625 L 229.519531 355.640625 L 283.84375 324.335938 L 283.84375 212.003906 C 283.84375 209.816406 283.84375 208.320312 285.339844 206.019531 C 288.332031 200.839844 294.320312 199.34375 299.496094 202.335938 L 397.671875 258.847656 L 435.652344 236.519531 L 376.957031 203.027344 L 376.265625 202.335938 L 260.136719 135.351562 L 186.359375 92.882812 C 184.863281 92.191406 183.367188 90.695312 181.871094 88.394531 C 178.878906 83.90625 181.183594 77.230469 186.359375 74.238281 L 288.332031 14.847656 C 292.015625 12.664062 295.816406 12.664062 299.496094 14.847656 L 343.347656 40.167969 L 375.34375 58.816406 L 565.132812 168.152344 L 565.824219 168.152344 L 565.824219 168.84375 L 567.203125 168.84375 L 567.203125 169.535156 L 567.894531 169.535156 L 567.894531 170.226562 L 568.585938 170.226562 L 568.585938 171.605469 L 569.277344 171.605469 L 569.277344 172.988281 L 569.96875 172.988281 L 569.96875 175.058594 L 570.65625 175.058594 L 570.65625 295.445312 C 571.117188 300.511719 568.125 304.308594 564.441406 305.804688 Z M 467.648438 336.996094 L 548.789062 290.152344 L 548.789062 196.351562 L 489.976562 229.84375 L 489.976562 230.535156 L 386.625 290.152344 L 374.769531 296.828125 L 374.078125 297.519531 L 368.09375 301.203125 L 300.992188 339.988281 C 300.304688 339.988281 299.496094 339.988281 298.808594 340.679688 L 240.800781 374.171875 L 213.292969 389.824219 L 294.433594 436.667969 L 391.917969 380.847656 L 392.609375 380.847656 L 407.457031 371.867188 L 408.144531 371.179688 L 435.652344 355.523438 L 451.304688 346.546875 L 451.996094 345.859375 Z M 386.625 409.160156 L 338.976562 435.976562 L 305.484375 456.117188 C 305.484375 474.761719 305.484375 493.292969 305.484375 511.9375 L 386.625 558.78125 C 386.625 508.945312 386.625 459.109375 386.625 409.160156 Z M 376.148438 271.507812 L 305.484375 230.648438 L 305.484375 311.789062 L 356.8125 281.980469 L 362.800781 278.296875 L 363.488281 278.296875 Z M 376.148438 271.507812 " fill-opacity="1" fill-rule="nonzero"/></svg>