<svg xmlns="http://www.w3.org/2000/svg" xmlns:xlink="http://www.w3.org/1999/xlink" width="1000" zoomAndPan="magnify" viewBox="0 0 750 749.999995" height="1000" preserveAspectRatio="xMidYMid meet" version="1.0"><defs><g/><clipPath id="e9eee9b47d"><rect x="0" width="428" y="0" height="135"/></clipPath><clipPath id="5a6b1c4a91"><rect x="0" width="578" y="0" height="296"/></clipPath><clipPath id="12bf17b59b"><rect x="0" width="578" y="0" height="296"/></clipPath><clipPath id="7b95144358"><rect x="0" width="110" y="0" height="74"/></clipPath><clipPath id="3af707d526"><rect x="0" width="87" y="0" height="69"/></clipPath><clipPath id="faddfc449e"><rect x="0" width="691" y="0" height="743"/></clipPath></defs><g transform="matrix(1, 0, 0, 1, 0, -0.000000000000042435)"><g clip-path="url(#faddfc449e)"><path fill="#0cc0df" d="M 427.175781 68.359375 C 426.722656 69.269531 426.722656 70.179688 427.175781 71.089844 C 425.8125 73.96875 424.449219 76.695312 423.085938 79.574219 C 422.175781 79.574219 421.417969 79.574219 420.507812 79.574219 C 420.054688 76.847656 419.296875 74.117188 419.296875 71.390625 C 419.449219 66.085938 420.207031 65.785156 427.175781 68.359375 Z M 689.03125 393.554688 C 687.515625 400.222656 685.847656 406.433594 688.878906 413.101562 C 689.484375 414.316406 687.363281 416.589844 686.453125 418.40625 C 687.058594 423.558594 687.816406 428.558594 688.421875 433.558594 C 685.847656 435.074219 683.273438 436.589844 680.542969 438.257812 C 679.9375 439.46875 679.9375 440.53125 680.242188 441.742188 C 673.421875 456.140625 666.449219 470.535156 659.632812 484.777344 C 659.632812 490.539062 659.632812 496.144531 659.785156 501.902344 C 658.875 502.8125 657.511719 503.71875 657.054688 504.78125 C 654.933594 510.386719 654.632812 517.8125 650.691406 521.449219 C 646.75 525.085938 639.328125 525.542969 633.417969 526.753906 C 625.6875 528.269531 622.355469 531.300781 627.355469 538.875 C 622.808594 544.027344 625.535156 548.273438 627.960938 553.574219 C 630.839844 559.789062 625.535156 565.09375 622.355469 570.246094 C 622.355469 571.304688 622.203125 572.367188 621.75 573.425781 C 618.867188 575.851562 615.382812 576.761719 611.746094 576.761719 C 606.441406 575.851562 602.046875 577.820312 598.714844 581.914062 C 596.746094 583.429688 594.167969 584.335938 592.5 586.308594 L 592.804688 586.457031 C 586.59375 594.1875 580.832031 591.914062 575.226562 585.851562 C 575.226562 587.066406 575.226562 588.125 575.226562 589.339844 C 575.984375 589.640625 576.742188 590.09375 577.5 590.703125 C 578.710938 592.066406 579.773438 593.429688 580.683594 594.945312 C 581.589844 596.308594 582.5 597.824219 583.257812 599.339844 C 583.863281 600.550781 584.621094 601.613281 585.226562 602.824219 C 585.984375 603.582031 586.441406 604.644531 586.894531 605.550781 C 587.804688 607.066406 588.863281 608.582031 589.773438 610.097656 C 590.53125 611.613281 591.136719 613.128906 591.746094 614.796875 C 592.5 617.21875 592.804688 619.796875 593.109375 622.222656 C 593.257812 622.675781 593.257812 623.128906 593.410156 623.433594 C 594.625 622.828125 595.683594 622.675781 596.894531 623.738281 L 596.894531 623.886719 C 597.957031 625.554688 599.472656 627.070312 600.535156 628.738281 C 600.535156 632.828125 600.535156 636.769531 600.382812 640.859375 L 598.714844 640.40625 C 598.714844 640.40625 597.046875 640.558594 597.046875 640.558594 C 593.410156 637.070312 588.863281 634.191406 587.046875 629.039062 C 585.984375 629.191406 584.925781 629.039062 583.863281 628.433594 L 582.046875 629.34375 L 580.074219 629.191406 C 578.710938 630.101562 577.347656 631.011719 575.984375 632.070312 C 571.285156 624.039062 566.589844 616.007812 561.890625 607.976562 C 549.164062 603.886719 539.617188 611.160156 529.917969 617.523438 C 526.128906 619.949219 525.976562 624.492188 524.765625 628.433594 C 524.613281 631.917969 524.3125 635.40625 524.3125 638.890625 C 524.3125 643.132812 524.160156 647.375 528.402344 650.105469 C 528.402344 650.105469 528.402344 650.253906 528.402344 650.253906 C 535.375 652.832031 541.132812 657.074219 545.222656 663.285156 C 545.828125 666.46875 547.34375 669.804688 547.042969 672.984375 C 546.285156 683.746094 542.191406 686.015625 529.3125 683.289062 C 525.828125 678.289062 524.3125 672.832031 524.007812 666.773438 C 523.703125 652.527344 522.949219 651.769531 508.25 650.558594 C 507.035156 652.984375 505.671875 655.40625 504.613281 657.984375 C 502.945312 661.773438 500.367188 663.285156 496.730469 660.558594 C 494.003906 658.4375 491.882812 655.710938 489.15625 653.589844 C 481.125 647.375 472.03125 646.921875 465.210938 654.347656 C 460.363281 659.5 454.757812 662.984375 449.453125 667.226562 C 449.300781 676.015625 447.332031 684.804688 449.453125 693.441406 C 450.058594 695.867188 451.726562 698.140625 452.9375 700.414062 C 452.785156 701.777344 452.785156 703.292969 452.636719 704.65625 C 449 712.6875 443.542969 713.898438 436.722656 708.445312 L 436.722656 708.292969 C 436.421875 702.6875 435.664062 697.230469 435.664062 691.625 C 435.964844 678.59375 430.8125 668.742188 419.449219 662.378906 C 410.507812 664.800781 401.417969 666.925781 392.476562 669.804688 C 384.597656 672.378906 392.324219 675.5625 392.628906 678.441406 C 388.382812 679.351562 383.839844 679.199219 380.957031 683.289062 C 380.203125 683.289062 379.59375 683.441406 378.835938 683.289062 C 367.925781 681.621094 359.894531 685.5625 354.894531 695.5625 C 355.5 696.019531 356.105469 696.320312 356.863281 696.472656 C 354.441406 699.050781 351.5625 700.566406 347.925781 700.714844 C 347.621094 700.261719 347.316406 699.957031 347.167969 699.503906 C 347.167969 699.65625 347.167969 699.65625 347.167969 699.808594 C 347.167969 699.808594 348.074219 700.714844 348.074219 700.714844 C 346.710938 702.230469 345.347656 703.59375 343.984375 705.109375 C 342.46875 703.59375 340.953125 702.078125 339.4375 700.414062 C 338.074219 700.261719 336.863281 700.109375 335.5 700.261719 C 331.40625 695.867188 327.46875 691.625 323.375 687.230469 C 318.222656 684.652344 322.617188 678.136719 318.222656 675.257812 C 316.253906 673.289062 313.527344 672.53125 311.40625 670.863281 C 310.949219 670.410156 310.648438 669.953125 310.34375 669.5 C 309.890625 669.804688 309.433594 670.257812 308.980469 670.257812 C 306.554688 673.441406 304.128906 676.621094 301.707031 679.804688 C 299.734375 679.5 297.464844 679.652344 295.796875 678.742188 C 291.097656 676.167969 296.097656 670.710938 293.070312 667.984375 C 290.191406 665.410156 285.039062 666.167969 282.765625 662.074219 C 280.035156 657.074219 279.886719 651.617188 279.886719 646.164062 C 267.609375 639.648438 255.488281 633.132812 243.0625 626.765625 C 235.636719 622.980469 228.210938 622.523438 221.847656 629.34375 C 220.179688 639.042969 214.726562 647.074219 209.269531 654.953125 C 205.027344 660.863281 199.570312 664.652344 191.691406 662.832031 C 188.964844 656.921875 187.296875 651.316406 192.296875 645.558594 C 196.691406 640.253906 200.632812 634.648438 204.875 629.039062 C 204.117188 622.675781 205.9375 615.707031 199.421875 610.703125 C 194.570312 606.917969 198.359375 598.582031 192.144531 594.945312 C 187.449219 589.945312 180.628906 587.972656 175.476562 583.578125 C 175.023438 582.972656 174.71875 582.214844 174.265625 581.609375 C 173.660156 581.761719 172.902344 582.0625 172.296875 582.214844 C 156.082031 589.640625 155.625 589.640625 154.261719 572.214844 C 153.808594 566.304688 150.171875 564.03125 146.535156 560.847656 C 142.292969 557.210938 143.199219 554.941406 149.414062 552.667969 C 150.625 552.210938 152.140625 552.363281 153.503906 552.363281 C 153.503906 552.363281 153.503906 552.363281 153.503906 552.515625 C 155.324219 549.03125 158.808594 548.574219 161.992188 547.816406 C 162.597656 538.421875 164.71875 529.179688 161.382812 519.933594 C 150.777344 515.085938 140.925781 508.265625 127.894531 510.539062 C 124.105469 511.144531 119.863281 508.417969 115.773438 507.507812 C 106.832031 505.386719 101.527344 500.082031 98.347656 491.292969 C 93.34375 477.503906 92.890625 477.65625 78.34375 484.628906 C 75.3125 486.144531 72.28125 487.808594 69.101562 489.324219 C 62.734375 486.75 65.3125 481.898438 66.070312 477.503906 C 78.496094 473.261719 90.921875 469.019531 103.347656 464.777344 C 106.074219 461.898438 109.710938 461.140625 113.195312 459.625 C 115.015625 459.019531 116.832031 458.5625 118.804688 458.410156 C 119.257812 458.410156 119.863281 458.410156 120.320312 458.410156 C 120.46875 454.625 119.105469 450.378906 121.078125 447.046875 C 121.226562 446.59375 121.226562 446.289062 121.378906 445.835938 C 131.078125 437.804688 130.625 428.257812 124.863281 418.253906 C 124.714844 417.648438 124.714844 416.890625 124.5625 416.285156 C 122.136719 415.074219 119.710938 414.011719 117.441406 412.496094 C 113.652344 410.070312 111.832031 406.433594 112.4375 401.890625 C 112.136719 400.527344 112.289062 399.3125 112.742188 398.101562 C 116.683594 397.949219 120.621094 397.796875 124.714844 397.496094 C 125.472656 397.496094 126.230469 397.496094 126.984375 397.496094 C 127.441406 396.886719 127.59375 396.132812 128.199219 395.523438 C 128.804688 395.070312 129.410156 394.617188 130.015625 394.160156 C 132.136719 389.3125 131.988281 384.3125 129.109375 379.460938 C 126.683594 379.460938 125.167969 378.402344 124.257812 376.28125 C 123.199219 375.671875 121.984375 375.371094 120.773438 375.21875 C 119.105469 375.21875 117.441406 375.371094 115.621094 375.371094 C 112.289062 375.976562 108.800781 376.28125 105.46875 377.1875 C 102.132812 378.097656 99.105469 380.066406 95.769531 380.675781 C 90.011719 381.886719 85.011719 379.613281 83.042969 375.671875 C 80.3125 369.914062 82.285156 363.855469 88.800781 359.914062 C 90.464844 358.851562 92.890625 358.851562 94.859375 358.398438 C 101.226562 354.761719 107.285156 357.488281 113.347656 359.15625 C 113.652344 359.308594 113.953125 359.308594 114.257812 359.460938 C 118.046875 356.125 123.199219 355.066406 128.046875 353.550781 C 133.804688 352.640625 136.988281 347.488281 141.835938 345.214844 C 143.050781 345.0625 143.957031 345.214844 144.867188 345.519531 C 143.808594 332.941406 131.53125 321.574219 140.925781 307.785156 C 146.988281 302.179688 154.71875 298.84375 161.382812 294.148438 C 161.535156 293.085938 161.535156 292.179688 161.6875 291.269531 C 162.898438 285.8125 163.050781 280.359375 163.050781 274.75 C 160.628906 274.449219 159.261719 272.328125 157.746094 270.054688 C 156.535156 268.539062 155.171875 267.023438 153.351562 266.113281 L 153.203125 265.960938 C 152.445312 263.992188 150.929688 262.78125 148.957031 262.023438 C 146.230469 260.355469 143.65625 258.839844 140.925781 257.171875 C 139.414062 255.808594 138.046875 254.445312 137.140625 252.628906 C 137.140625 252.628906 137.289062 252.628906 137.289062 252.628906 C 142.59375 248.992188 144.109375 245.050781 138.957031 239.746094 C 137.441406 238.078125 139.5625 236.261719 141.382812 235.199219 C 142.59375 235.957031 143.804688 236.261719 145.171875 236.109375 C 150.625 240.351562 156.234375 244.746094 161.6875 248.992188 C 163.203125 250.355469 164.71875 251.71875 166.082031 253.082031 C 168.507812 255.507812 172.144531 254.75 174.871094 256.414062 C 176.082031 256.871094 177.449219 257.171875 178.8125 257.324219 C 180.175781 258.082031 180.628906 258.839844 180.328125 259.597656 C 188.8125 260.050781 197.148438 259.597656 204.117188 252.929688 C 205.9375 251.414062 206.542969 249.292969 207.148438 247.171875 C 204.570312 243.6875 203.207031 239.292969 200.027344 236.261719 C 191.996094 231.109375 183.8125 226.109375 183.207031 215.046875 C 189.875 209.589844 196.996094 207.925781 202.90625 215.652344 C 207.300781 221.410156 217 222.773438 216.847656 232.320312 C 223.816406 236.414062 230.179688 230.503906 236.847656 231.261719 C 237 228.835938 237.304688 226.5625 237.457031 224.140625 C 232.453125 220.652344 231.242188 214.894531 229.121094 209.742188 C 226.394531 203.226562 228.515625 199.589844 236.089844 197.773438 C 237.757812 197.316406 239.878906 198.074219 241.699219 198.378906 C 241.699219 198.074219 241.699219 197.921875 241.699219 197.621094 C 243.515625 196.558594 245.183594 196.710938 246.699219 198.074219 C 252.304688 198.074219 257.914062 198.226562 263.519531 198.226562 C 270.1875 198.679688 274.125 195.347656 275.492188 189.132812 C 276.25 185.042969 276.25 180.800781 276.550781 176.707031 C 272.460938 166.402344 271.703125 156.554688 279.886719 147.308594 C 281.25 145.796875 280.492188 142.160156 280.492188 139.582031 C 291.855469 145.945312 299.585938 156.707031 309.890625 164.433594 C 309.890625 165.796875 309.890625 167.3125 309.890625 168.675781 C 315.648438 169.585938 322.617188 166.253906 327.164062 172.617188 C 331.40625 173.375 334.742188 175.648438 336.863281 179.585938 C 338.984375 183.980469 343.378906 184.285156 347.316406 185.195312 C 356.257812 180.800781 361.410156 173.375 364.894531 164.433594 C 364.894531 160.949219 365.503906 157.765625 369.289062 156.25 C 368.988281 154.886719 369.140625 153.523438 369.441406 152.160156 C 374.140625 151.25 377.777344 153.828125 381.414062 156.25 C 382.929688 161.402344 384.445312 166.554688 385.960938 171.707031 C 385.351562 172.3125 384.898438 173.070312 384.292969 173.675781 C 384.898438 173.828125 385.503906 174.132812 386.261719 174.285156 C 386.414062 173.375 386.261719 172.464844 385.960938 171.707031 C 387.171875 172.011719 388.382812 172.164062 389.597656 172.464844 C 392.324219 168.375 395.050781 164.28125 397.929688 160.039062 C 398.234375 158.675781 398.6875 157.3125 398.992188 155.949219 C 400.050781 154.433594 401.265625 153.21875 402.78125 152.160156 C 404.144531 152.007812 405.507812 152.007812 406.871094 151.855469 C 408.234375 151.855469 409.75 151.855469 411.113281 151.855469 C 412.175781 151.402344 413.386719 150.949219 414.601562 150.796875 C 415.207031 147.160156 415.660156 143.523438 416.265625 139.886719 C 415.660156 139.734375 415.054688 139.429688 414.449219 139.277344 C 417.023438 122.457031 420.964844 105.636719 419.601562 88.363281 C 419.902344 85.484375 420.359375 82.605469 420.660156 79.726562 C 421.570312 79.726562 422.328125 79.726562 423.238281 79.726562 C 423.539062 93.820312 423.84375 108.0625 424.144531 122.15625 C 425.054688 123.214844 425.359375 124.277344 425.359375 125.335938 C 425.359375 126.550781 425.207031 127.15625 424.902344 127.15625 C 424.449219 128.671875 423.996094 130.1875 423.691406 131.703125 C 424.753906 137.765625 424.902344 143.976562 424.144531 150.191406 C 422.78125 161.859375 425.207031 172.011719 433.085938 180.800781 C 441.421875 182.617188 449.753906 181.859375 457.789062 179.285156 C 463.242188 177.464844 468.546875 176.859375 474.152344 176.707031 C 476.878906 172.164062 481.730469 171.253906 486.125 169.890625 C 492.035156 175.496094 500.21875 179.4375 499.914062 189.4375 C 503.097656 192.011719 506.429688 194.4375 509.460938 197.164062 C 513.855469 201.257812 518.25 201.558594 524.460938 200.195312 C 538.859375 197.164062 546.738281 205.953125 542.796875 219.894531 C 541.585938 223.988281 540.523438 227.625 541.890625 231.714844 C 556.4375 230.957031 570.378906 234.59375 584.015625 239.140625 C 586.894531 237.929688 589.773438 237.929688 592.199219 240.503906 C 592.199219 240.503906 592.046875 240.503906 592.046875 240.503906 C 592.046875 241.714844 592.199219 243.082031 592.5 244.292969 C 594.472656 253.992188 587.652344 260.808594 583.710938 268.539062 C 605.230469 276.417969 605.230469 276.417969 605.078125 299.300781 C 607.957031 299.148438 610.988281 299.148438 613.867188 298.996094 C 615.230469 298.996094 616.445312 298.996094 617.808594 298.996094 C 619.324219 300.511719 620.6875 302.179688 622.203125 303.695312 C 622.355469 303.695312 622.503906 303.847656 622.808594 303.847656 C 622.355469 302.632812 622.050781 301.269531 621.898438 299.90625 C 628.71875 293.085938 635.6875 296.421875 642.8125 299.453125 C 642.8125 307.9375 644.328125 315.96875 648.722656 323.546875 C 653.265625 331.425781 657.660156 339.609375 660.539062 348.09375 C 664.027344 358.550781 671.148438 363.855469 681 366.734375 C 680.847656 371.582031 683.421875 375.066406 686.757812 378.25 C 687.816406 378.402344 688.726562 378.703125 689.636719 379.160156 C 689.484375 384.160156 690.089844 389.007812 689.03125 393.554688 Z M 170.628906 573.578125 C 170.628906 573.578125 170.78125 573.578125 170.78125 573.578125 C 170.78125 573.425781 170.628906 573.425781 170.628906 573.273438 C 170.628906 573.425781 170.628906 573.425781 170.628906 573.578125 C 170.324219 573.125 170.023438 572.820312 169.71875 572.367188 C 170.023438 572.820312 170.175781 573.273438 170.324219 573.730469 C 170.476562 573.730469 170.476562 573.730469 170.628906 573.578125 Z M 490.671875 201.558594 C 490.519531 201.710938 490.519531 201.863281 490.367188 201.863281 C 490.519531 201.863281 490.671875 201.710938 490.820312 201.710938 C 490.671875 201.558594 490.671875 201.558594 490.671875 201.558594 Z M 411.113281 252.777344 C 411.113281 252.929688 411.113281 252.929688 411.113281 253.082031 C 411.265625 253.082031 411.417969 253.082031 411.570312 253.082031 C 411.265625 253.082031 411.265625 252.929688 411.113281 252.777344 Z M 465.96875 425.074219 C 465.96875 425.226562 466.121094 425.226562 466.121094 425.378906 C 466.121094 425.226562 466.121094 424.921875 465.96875 424.769531 C 465.96875 424.921875 465.96875 424.921875 465.96875 425.074219 Z M 499.914062 412.648438 C 499.914062 412.800781 499.914062 412.800781 499.914062 412.648438 C 499.914062 412.800781 499.914062 412.800781 499.914062 412.648438 C 499.914062 412.800781 499.914062 412.800781 499.914062 412.648438 Z M 511.582031 408.558594 C 511.128906 409.164062 510.976562 409.464844 510.976562 409.464844 C 510.671875 409.921875 511.128906 409.617188 512.035156 408.859375 C 511.886719 408.707031 511.734375 408.558594 511.582031 408.558594 Z M 263.367188 565.09375 C 263.367188 565.242188 263.367188 565.242188 263.367188 565.394531 C 263.519531 565.242188 263.519531 565.09375 263.671875 564.941406 C 263.671875 565.09375 263.519531 565.09375 263.367188 565.09375 C 263.367188 564.941406 263.214844 564.789062 263.214844 564.636719 C 263.066406 564.789062 263.066406 564.941406 262.914062 565.09375 C 263.066406 565.09375 263.214844 565.09375 263.367188 565.09375 Z M 321.101562 655.253906 C 321.101562 655.253906 321.859375 654.195312 321.859375 654.195312 C 321.859375 654.195312 321.859375 654.042969 321.707031 654.042969 C 321.558594 654.5 321.253906 654.800781 321.101562 655.253906 Z M 200.179688 282.328125 Z M 263.066406 586.308594 C 263.066406 586.308594 263.066406 586.457031 263.066406 586.457031 C 263.214844 586.308594 263.367188 586.308594 263.367188 586.15625 C 263.367188 586.003906 263.367188 585.851562 263.367188 585.699219 C 263.066406 586.003906 262.761719 586.15625 262.457031 586.308594 C 262.761719 586.308594 262.914062 586.308594 263.066406 586.308594 Z M 575.074219 585.699219 C 575.074219 585.699219 575.074219 585.851562 575.074219 585.699219 C 575.074219 585.851562 575.074219 585.851562 575.074219 585.699219 C 575.074219 585.851562 575.074219 585.851562 575.074219 585.699219 Z M 499.308594 189.738281 C 499.308594 189.738281 499.308594 189.890625 499.308594 189.890625 C 499.460938 189.589844 499.761719 189.4375 499.914062 189.132812 C 499.914062 189.285156 499.308594 189.738281 499.308594 189.738281 Z M 419.449219 37.597656 C 424.449219 38.054688 427.480469 35.933594 427.933594 30.929688 C 428.238281 27.445312 427.933594 24.113281 427.785156 20.628906 C 428.542969 19.566406 429.753906 18.503906 430.207031 17.292969 C 432.9375 10.171875 431.875 3.804688 427.328125 0.625 C 426.417969 0.0195312 424.296875 0.0195312 423.539062 0.625 C 418.539062 4.867188 414.449219 9.714844 419.296875 16.6875 C 419.296875 23.507812 419.296875 30.628906 419.449219 37.597656 Z M 119.710938 711.625 C 112.894531 711.625 102.890625 718.75 100.621094 725.566406 C 100.011719 727.386719 99.863281 729.8125 100.46875 731.628906 C 103.953125 741.78125 117.136719 744.207031 124.105469 736.328125 C 128.046875 731.78125 129.410156 726.628906 129.109375 720.71875 C 128.957031 715.566406 125.015625 711.625 119.710938 711.625 Z M 623.71875 292.027344 C 623.71875 291.875 622.808594 291.421875 622.355469 291.269531 C 622.960938 292.933594 623.566406 293.238281 623.71875 292.027344 Z M 633.417969 683.894531 C 633.71875 682.683594 633.71875 681.472656 633.71875 680.257812 C 628.566406 674.046875 623.261719 667.984375 618.113281 661.773438 C 616.140625 659.953125 614.324219 660.105469 612.65625 662.226562 C 614.476562 672.074219 623.414062 677.984375 626.144531 687.382812 C 627.203125 687.683594 628.414062 687.988281 629.476562 688.289062 C 630.082031 691.925781 630.6875 695.714844 631.296875 699.351562 C 632.660156 700.714844 634.175781 701.929688 635.539062 703.292969 C 637.8125 703.292969 640.234375 703.140625 642.507812 703.140625 C 646.449219 693.441406 638.265625 689.503906 633.417969 683.894531 Z M 335.953125 710.867188 C 333.074219 712.082031 332.46875 714.960938 331.40625 717.535156 C 330.800781 725.417969 330.195312 733.144531 331.863281 741.023438 C 336.40625 741.628906 340.042969 740.265625 342.015625 735.722656 C 345.195312 728.296875 344.742188 720.871094 342.925781 713.292969 C 341.410156 710.566406 338.832031 710.261719 335.953125 710.867188 Z M 221.394531 131.550781 C 229.878906 137.613281 238.667969 134.734375 243.667969 125.335938 C 249.125 115.335938 245.183594 106.546875 241.699219 97.457031 C 223.664062 95.03125 222.757812 95.332031 216.089844 107.457031 C 211.542969 115.640625 213.816406 126.09375 221.394531 131.550781 Z M 241.546875 97.304688 C 241.699219 97.457031 241.699219 97.457031 241.699219 97.457031 C 241.699219 97.457031 241.546875 97.304688 241.546875 97.304688 Z M 280.1875 138.824219 C 280.1875 138.976562 280.1875 138.976562 280.1875 139.128906 C 280.339844 139.128906 280.339844 139.277344 280.492188 139.277344 C 280.492188 139.128906 280.492188 139.128906 280.492188 138.976562 C 280.339844 138.976562 280.1875 138.824219 280.1875 138.824219 Z M 277.460938 124.125 C 276.703125 123.367188 274.882812 123.214844 273.824219 123.519531 C 272.914062 123.972656 271.703125 125.335938 271.703125 126.398438 C 271.097656 132.761719 275.945312 135.640625 280.1875 138.824219 C 281.25 133.519531 282.308594 128.21875 277.460938 124.125 Z M 398.839844 155.796875 C 400.050781 154.582031 401.417969 153.21875 402.628906 152.007812 C 400.050781 151.855469 398.839844 153.070312 398.839844 155.796875 Z M 128.5 586.15625 C 125.773438 584.035156 126.683594 580.09375 124.257812 577.820312 C 121.835938 575.398438 118.199219 576.003906 115.621094 573.882812 C 112.894531 571.003906 110.164062 571.152344 107.742188 574.335938 C 101.378906 579.640625 100.164062 586.609375 101.074219 594.488281 C 102.132812 603.582031 106.832031 607.523438 116.074219 605.855469 C 118.652344 605.402344 121.078125 603.886719 123.652344 602.824219 C 127.136719 601.15625 126.230469 596.914062 128.199219 594.488281 L 128.046875 594.640625 C 131.078125 591.914062 130.773438 589.1875 128.5 586.15625 Z M 124.257812 577.820312 Z M 60.765625 193.984375 C 63.339844 193.226562 64.855469 191.558594 65.765625 189.132812 C 65.3125 188.074219 65.007812 187.011719 65.007812 185.953125 C 63.644531 183.832031 61.976562 182.164062 59.402344 181.558594 C 59.402344 181.558594 57.734375 181.707031 57.734375 181.707031 C 53.492188 188.074219 53.492188 188.074219 60.765625 193.984375 Z M 110.773438 148.21875 C 112.742188 146.25 114.710938 144.28125 116.683594 142.308594 C 116.378906 141.703125 116.074219 141.097656 115.621094 140.492188 C 113.804688 138.371094 111.226562 136.25 108.800781 137.761719 C 106.226562 139.277344 106.832031 142.613281 108.042969 145.1875 C 108.652344 146.402344 109.863281 147.160156 110.773438 148.21875 Z M 23.941406 528.574219 C 19.398438 525.238281 13.183594 525.085938 8.484375 527.964844 C 3.183594 531.453125 0 538.269531 1.363281 543.878906 C 2.273438 547.515625 4.699219 549.9375 7.878906 551.453125 C 15.457031 555.089844 28.335938 546.152344 28.183594 536.90625 C 28.335938 533.726562 26.972656 530.695312 23.941406 528.574219 Z M 72.128906 358.550781 C 72.128906 351.882812 68.949219 346.425781 64.554688 341.578125 C 57.582031 337.183594 50.765625 337.789062 44.097656 342.183594 C 43.035156 342.183594 41.976562 342.183594 40.914062 342.183594 C 40.914062 343.398438 40.761719 344.457031 40.761719 345.667969 L 40.308594 346.125 C 39.246094 346.277344 38.035156 346.425781 36.972656 346.578125 C 36.972656 346.578125 36.519531 348.550781 36.519531 348.550781 C 37.730469 349.003906 38.792969 349.609375 39.855469 350.367188 C 39.855469 352.941406 40.003906 355.671875 40.003906 358.246094 C 39.550781 360.976562 41.066406 362.339844 43.339844 363.097656 C 43.640625 364.308594 43.945312 365.519531 44.25 366.734375 C 45.007812 366.734375 45.761719 366.734375 46.519531 366.882812 C 46.976562 368.097656 47.277344 369.460938 47.886719 370.519531 C 59.703125 374.613281 67.886719 370.671875 72.128906 358.550781 Z M 72.128906 358.550781 " fill-opacity="1" fill-rule="nonzero"/><g transform="matrix(1, 0, 0, 1, 233, 536)"><g clip-path="url(#e9eee9b47d)"><g fill="#4396c5" fill-opacity="1"><g transform="translate(7.292861, 123.897189)"><g><path d="M 11.46875 -13.28125 C 12.664062 -13.289062 13.710938 -12.925781 14.609375 -12.1875 C 15.515625 -11.457031 16.097656 -10.515625 16.359375 -9.359375 C 16.734375 -7.703125 16.445312 -6.257812 15.5 -5.03125 C 14.5625 -3.800781 13.054688 -2.953125 10.984375 -2.484375 L 1.75 -0.390625 L -2.734375 -20.234375 L 6.203125 -22.265625 C 8.210938 -22.710938 9.890625 -22.601562 11.234375 -21.9375 C 12.585938 -21.269531 13.445312 -20.144531 13.8125 -18.5625 C 14.070312 -17.394531 13.976562 -16.351562 13.53125 -15.4375 C 13.09375 -14.53125 12.40625 -13.8125 11.46875 -13.28125 Z M 3.90625 -13.296875 L 7.078125 -14.015625 C 7.859375 -14.191406 8.421875 -14.503906 8.765625 -14.953125 C 9.117188 -15.398438 9.21875 -15.960938 9.0625 -16.640625 C 8.914062 -17.316406 8.585938 -17.785156 8.078125 -18.046875 C 7.566406 -18.304688 6.921875 -18.347656 6.140625 -18.171875 L 2.96875 -17.453125 Z M 9.28125 -6.203125 C 10.082031 -6.378906 10.660156 -6.695312 11.015625 -7.15625 C 11.378906 -7.625 11.476562 -8.207031 11.3125 -8.90625 C 11.164062 -9.601562 10.816406 -10.097656 10.265625 -10.390625 C 9.710938 -10.691406 9.03125 -10.75 8.21875 -10.5625 L 4.703125 -9.765625 L 5.703125 -5.390625 Z M 9.28125 -6.203125 "/></g></g></g><g fill="#4396c5" fill-opacity="1"><g transform="translate(25.905384, 119.690703)"><g><path d="M 2.015625 -21.3125 L 4.703125 -9.4375 C 4.972656 -8.25 5.46875 -7.398438 6.1875 -6.890625 C 6.914062 -6.378906 7.847656 -6.253906 8.984375 -6.515625 C 10.109375 -6.765625 10.898438 -7.28125 11.359375 -8.0625 C 11.828125 -8.84375 11.925781 -9.828125 11.65625 -11.015625 L 8.96875 -22.890625 L 13.796875 -23.984375 L 16.46875 -12.140625 C 16.875 -10.359375 16.835938 -8.769531 16.359375 -7.375 C 15.878906 -5.976562 15.070312 -4.828125 13.9375 -3.921875 C 12.8125 -3.015625 11.46875 -2.382812 9.90625 -2.03125 C 8.34375 -1.675781 6.875 -1.664062 5.5 -2 C 4.125 -2.332031 2.9375 -3.03125 1.9375 -4.09375 C 0.945312 -5.164062 0.25 -6.59375 -0.15625 -8.375 L -2.828125 -20.21875 Z M 2.015625 -21.3125 "/></g></g></g><g fill="#4396c5" fill-opacity="1"><g transform="translate(45.817114, 115.190593)"><g><path d="M 2.09375 -21.328125 L 6.578125 -1.484375 L 1.75 -0.390625 L -2.734375 -20.234375 Z M 2.09375 -21.328125 "/></g></g></g><g fill="#4396c5" fill-opacity="1"><g transform="translate(54.148975, 113.307568)"><g><path d="M 5.734375 -5.21875 L 12.0625 -6.65625 L 12.90625 -2.921875 L 1.75 -0.390625 L -2.734375 -20.234375 L 2.09375 -21.328125 Z M 5.734375 -5.21875 "/></g></g></g><g fill="#4396c5" fill-opacity="1"><g transform="translate(67.621164, 110.262813)"><g><path d="M 4.703125 -21.921875 C 6.785156 -22.390625 8.703125 -22.382812 10.453125 -21.90625 C 12.210938 -21.425781 13.6875 -20.535156 14.875 -19.234375 C 16.070312 -17.929688 16.894531 -16.300781 17.34375 -14.34375 C 17.78125 -12.40625 17.738281 -10.582031 17.21875 -8.875 C 16.707031 -7.175781 15.753906 -5.734375 14.359375 -4.546875 C 12.972656 -3.367188 11.25 -2.546875 9.1875 -2.078125 L 1.75 -0.390625 L -2.734375 -20.234375 Z M 7.9375 -6.171875 C 9.757812 -6.585938 11.0625 -7.410156 11.84375 -8.640625 C 12.632812 -9.867188 12.828125 -11.398438 12.421875 -13.234375 C 12.003906 -15.066406 11.171875 -16.375 9.921875 -17.15625 C 8.679688 -17.945312 7.148438 -18.132812 5.328125 -17.71875 L 3.03125 -17.203125 L 5.640625 -5.65625 Z M 7.9375 -6.171875 "/></g></g></g><g fill="#4396c5" fill-opacity="1"><g transform="translate(88.15425, 105.622274)"><g/></g></g><g fill="#4396c5" fill-opacity="1"><g transform="translate(94.141889, 104.26905)"><g><path d="M 14.28125 -24.078125 L 10.421875 -9.234375 L 11.90625 -2.6875 L 7.078125 -1.59375 L 5.59375 -8.140625 L -4.28125 -19.890625 L 1.203125 -21.125 L 6.921875 -13.671875 L 8.84375 -22.859375 Z M 14.28125 -24.078125 "/></g></g></g><g fill="#4396c5" fill-opacity="1"><g transform="translate(113.093328, 99.985968)"><g><path d="M 11.171875 -2.3125 C 9.316406 -1.894531 7.507812 -1.941406 5.75 -2.453125 C 4 -2.972656 2.488281 -3.90625 1.21875 -5.25 C -0.0390625 -6.601562 -0.890625 -8.242188 -1.328125 -10.171875 C -1.765625 -12.109375 -1.695312 -13.953125 -1.125 -15.703125 C -0.5625 -17.460938 0.394531 -18.953125 1.75 -20.171875 C 3.113281 -21.398438 4.722656 -22.222656 6.578125 -22.640625 C 8.453125 -23.054688 10.265625 -23.003906 12.015625 -22.484375 C 13.765625 -21.972656 15.257812 -21.046875 16.5 -19.703125 C 17.75 -18.359375 18.59375 -16.71875 19.03125 -14.78125 C 19.46875 -12.851562 19.40625 -11.003906 18.84375 -9.234375 C 18.289062 -7.472656 17.34375 -5.984375 16 -4.765625 C 14.65625 -3.546875 13.046875 -2.726562 11.171875 -2.3125 Z M 10.171875 -6.71875 C 11.753906 -7.070312 12.898438 -7.882812 13.609375 -9.15625 C 14.328125 -10.4375 14.492188 -11.941406 14.109375 -13.671875 C 13.710938 -15.429688 12.914062 -16.722656 11.71875 -17.546875 C 10.53125 -18.378906 9.144531 -18.617188 7.5625 -18.265625 C 5.96875 -17.898438 4.8125 -17.09375 4.09375 -15.84375 C 3.375 -14.59375 3.21875 -13.078125 3.625 -11.296875 C 4.019531 -9.546875 4.8125 -8.253906 6 -7.421875 C 7.1875 -6.585938 8.578125 -6.351562 10.171875 -6.71875 Z M 10.171875 -6.71875 "/></g></g></g><g fill="#4396c5" fill-opacity="1"><g transform="translate(135.292787, 94.968825)"><g><path d="M 2.015625 -21.3125 L 4.703125 -9.4375 C 4.972656 -8.25 5.46875 -7.398438 6.1875 -6.890625 C 6.914062 -6.378906 7.847656 -6.253906 8.984375 -6.515625 C 10.109375 -6.765625 10.898438 -7.28125 11.359375 -8.0625 C 11.828125 -8.84375 11.925781 -9.828125 11.65625 -11.015625 L 8.96875 -22.890625 L 13.796875 -23.984375 L 16.46875 -12.140625 C 16.875 -10.359375 16.835938 -8.769531 16.359375 -7.375 C 15.878906 -5.976562 15.070312 -4.828125 13.9375 -3.921875 C 12.8125 -3.015625 11.46875 -2.382812 9.90625 -2.03125 C 8.34375 -1.675781 6.875 -1.664062 5.5 -2 C 4.125 -2.332031 2.9375 -3.03125 1.9375 -4.09375 C 0.945312 -5.164062 0.25 -6.59375 -0.15625 -8.375 L -2.828125 -20.21875 Z M 2.015625 -21.3125 "/></g></g></g><g fill="#4396c5" fill-opacity="1"><g transform="translate(155.204523, 90.468713)"><g><path d="M 11.875 -2.6875 L 6.046875 -9.234375 L 4.890625 -8.96875 L 6.578125 -1.484375 L 1.75 -0.390625 L -2.734375 -20.234375 L 5.375 -22.078125 C 6.9375 -22.429688 8.332031 -22.457031 9.5625 -22.15625 C 10.789062 -21.851562 11.78125 -21.285156 12.53125 -20.453125 C 13.289062 -19.628906 13.800781 -18.632812 14.0625 -17.46875 C 14.363281 -16.144531 14.257812 -14.878906 13.75 -13.671875 C 13.25 -12.472656 12.316406 -11.488281 10.953125 -10.71875 L 17.328125 -3.921875 Z M 4.109375 -12.390625 L 7.125 -13.078125 C 8 -13.273438 8.609375 -13.640625 8.953125 -14.171875 C 9.296875 -14.703125 9.378906 -15.363281 9.203125 -16.15625 C 9.035156 -16.914062 8.679688 -17.457031 8.140625 -17.78125 C 7.597656 -18.113281 6.890625 -18.179688 6.015625 -17.984375 L 3 -17.296875 Z M 4.109375 -12.390625 "/></g></g></g><g fill="#4396c5" fill-opacity="1"><g transform="translate(173.619341, 86.306909)"><g/></g></g><g fill="#4396c5" fill-opacity="1"><g transform="translate(179.606986, 84.953684)"><g><path d="M 24.5625 -26.40625 L 23.875 -5.390625 L 18.03125 -4.078125 L 11.90625 -16.421875 L 11.578125 -2.625 L 5.734375 -1.296875 L -3.78125 -20 L 1.390625 -21.171875 L 7.515625 -7.359375 L 7.78125 -22.609375 L 13.09375 -23.8125 L 19.75 -10.125 L 19.359375 -25.234375 Z M 24.5625 -26.40625 "/></g></g></g><g fill="#4396c5" fill-opacity="1"><g transform="translate(209.319239, 78.238626)"><g><path d="M 2.96875 -17.453125 L 3.875 -13.4375 L 10.359375 -14.90625 L 11.203125 -11.1875 L 4.71875 -9.71875 L 5.703125 -5.359375 L 13.03125 -7.015625 L 13.90625 -3.140625 L 1.75 -0.390625 L -2.734375 -20.234375 L 9.421875 -22.984375 L 10.296875 -19.109375 Z M 2.96875 -17.453125 "/></g></g></g><g fill="#4396c5" fill-opacity="1"><g transform="translate(224.599005, 74.785353)"><g><path d="M 11.46875 -13.28125 C 12.664062 -13.289062 13.710938 -12.925781 14.609375 -12.1875 C 15.515625 -11.457031 16.097656 -10.515625 16.359375 -9.359375 C 16.734375 -7.703125 16.445312 -6.257812 15.5 -5.03125 C 14.5625 -3.800781 13.054688 -2.953125 10.984375 -2.484375 L 1.75 -0.390625 L -2.734375 -20.234375 L 6.203125 -22.265625 C 8.210938 -22.710938 9.890625 -22.601562 11.234375 -21.9375 C 12.585938 -21.269531 13.445312 -20.144531 13.8125 -18.5625 C 14.070312 -17.394531 13.976562 -16.351562 13.53125 -15.4375 C 13.09375 -14.53125 12.40625 -13.8125 11.46875 -13.28125 Z M 3.90625 -13.296875 L 7.078125 -14.015625 C 7.859375 -14.191406 8.421875 -14.503906 8.765625 -14.953125 C 9.117188 -15.398438 9.21875 -15.960938 9.0625 -16.640625 C 8.914062 -17.316406 8.585938 -17.785156 8.078125 -18.046875 C 7.566406 -18.304688 6.921875 -18.347656 6.140625 -18.171875 L 2.96875 -17.453125 Z M 9.28125 -6.203125 C 10.082031 -6.378906 10.660156 -6.695312 11.015625 -7.15625 C 11.378906 -7.625 11.476562 -8.207031 11.3125 -8.90625 C 11.164062 -9.601562 10.816406 -10.097656 10.265625 -10.390625 C 9.710938 -10.691406 9.03125 -10.75 8.21875 -10.5625 L 4.703125 -9.765625 L 5.703125 -5.390625 Z M 9.28125 -6.203125 "/></g></g></g><g fill="#4396c5" fill-opacity="1"><g transform="translate(243.211528, 70.578868)"><g><path d="M 8.984375 -1.8125 C 7.523438 -1.488281 6.164062 -1.429688 4.90625 -1.640625 C 3.65625 -1.859375 2.582031 -2.347656 1.6875 -3.109375 C 0.789062 -3.878906 0.175781 -4.90625 -0.15625 -6.1875 L 4.984375 -7.34375 C 5.234375 -6.632812 5.613281 -6.132812 6.125 -5.84375 C 6.644531 -5.5625 7.257812 -5.5 7.96875 -5.65625 C 8.675781 -5.820312 9.203125 -6.113281 9.546875 -6.53125 C 9.890625 -6.957031 9.992188 -7.460938 9.859375 -8.046875 C 9.742188 -8.546875 9.484375 -8.914062 9.078125 -9.15625 C 8.679688 -9.394531 8.21875 -9.5625 7.6875 -9.65625 C 7.15625 -9.75 6.421875 -9.832031 5.484375 -9.90625 C 4.109375 -10.007812 2.972656 -10.164062 2.078125 -10.375 C 1.179688 -10.59375 0.351562 -11.019531 -0.40625 -11.65625 C -1.164062 -12.300781 -1.6875 -13.25 -1.96875 -14.5 C -2.382812 -16.34375 -2.039062 -17.9375 -0.9375 -19.28125 C 0.164062 -20.632812 1.785156 -21.554688 3.921875 -22.046875 C 6.109375 -22.535156 7.988281 -22.40625 9.5625 -21.65625 C 11.144531 -20.914062 12.191406 -19.625 12.703125 -17.78125 L 7.484375 -16.609375 C 7.296875 -17.242188 6.941406 -17.691406 6.421875 -17.953125 C 5.910156 -18.222656 5.316406 -18.28125 4.640625 -18.125 C 4.054688 -18 3.617188 -17.738281 3.328125 -17.34375 C 3.035156 -16.945312 2.957031 -16.457031 3.09375 -15.875 C 3.238281 -15.226562 3.65625 -14.796875 4.34375 -14.578125 C 5.03125 -14.359375 6.0625 -14.1875 7.4375 -14.0625 C 8.8125 -13.914062 9.941406 -13.738281 10.828125 -13.53125 C 11.722656 -13.320312 12.546875 -12.90625 13.296875 -12.28125 C 14.046875 -11.65625 14.554688 -10.742188 14.828125 -9.546875 C 15.078125 -8.421875 15.019531 -7.332031 14.65625 -6.28125 C 14.289062 -5.238281 13.625 -4.316406 12.65625 -3.515625 C 11.6875 -2.710938 10.460938 -2.144531 8.984375 -1.8125 Z M 8.984375 -1.8125 "/></g></g></g><g fill="#4396c5" fill-opacity="1"><g transform="translate(260.581337, 66.653239)"><g><path d="M 2.09375 -21.328125 L 6.578125 -1.484375 L 1.75 -0.390625 L -2.734375 -20.234375 Z M 2.09375 -21.328125 "/></g></g></g><g fill="#4396c5" fill-opacity="1"><g transform="translate(268.913205, 64.770212)"><g><path d="M 11.53125 -23.46875 L 12.40625 -19.59375 L 7.15625 -18.40625 L 10.765625 -2.4375 L 5.921875 -1.34375 L 2.3125 -17.3125 L -2.9375 -16.125 L -3.8125 -20 Z M 11.53125 -23.46875 "/></g></g></g><g fill="#4396c5" fill-opacity="1"><g transform="translate(285.60517, 60.997779)"><g><path d="M 2.96875 -17.453125 L 3.875 -13.4375 L 10.359375 -14.90625 L 11.203125 -11.1875 L 4.71875 -9.71875 L 5.703125 -5.359375 L 13.03125 -7.015625 L 13.90625 -3.140625 L 1.75 -0.390625 L -2.734375 -20.234375 L 9.421875 -22.984375 L 10.296875 -19.109375 Z M 2.96875 -17.453125 "/></g></g></g><g fill="#4396c5" fill-opacity="1"><g transform="translate(300.884936, 57.544506)"><g/></g></g><g fill="#4396c5" fill-opacity="1"><g transform="translate(306.872581, 56.19128)"><g><path d="M 24.5625 -26.40625 L 23.875 -5.390625 L 18.03125 -4.078125 L 11.90625 -16.421875 L 11.578125 -2.625 L 5.734375 -1.296875 L -3.78125 -20 L 1.390625 -21.171875 L 7.515625 -7.359375 L 7.78125 -22.609375 L 13.09375 -23.8125 L 19.75 -10.125 L 19.359375 -25.234375 Z M 24.5625 -26.40625 "/></g></g></g><g fill="#4396c5" fill-opacity="1"><g transform="translate(336.584834, 49.476223)"><g><path d="M 2.09375 -21.328125 L 6.578125 -1.484375 L 1.75 -0.390625 L -2.734375 -20.234375 Z M 2.09375 -21.328125 "/></g></g></g><g fill="#4396c5" fill-opacity="1"><g transform="translate(344.916701, 47.593196)"><g><path d="M 11.53125 -23.46875 L 12.40625 -19.59375 L 7.15625 -18.40625 L 10.765625 -2.4375 L 5.921875 -1.34375 L 2.3125 -17.3125 L -2.9375 -16.125 L -3.8125 -20 Z M 11.53125 -23.46875 "/></g></g></g><g fill="#4396c5" fill-opacity="1"><g transform="translate(361.608666, 43.820762)"><g><path d="M 14.4375 -24.125 L 18.921875 -4.28125 L 14.09375 -3.1875 L 12.25 -11.359375 L 4.734375 -9.65625 L 6.578125 -1.484375 L 1.75 -0.390625 L -2.734375 -20.234375 L 2.09375 -21.328125 L 3.84375 -13.5625 L 11.359375 -15.265625 L 9.609375 -23.03125 Z M 14.4375 -24.125 "/></g></g></g><g fill="#4396c5" fill-opacity="1"><g transform="translate(382.254721, 39.154693)"><g/></g></g><g fill="#4396c5" fill-opacity="1"><g transform="translate(388.242366, 37.801467)"><g><path d="M 2.015625 -21.3125 L 4.703125 -9.4375 C 4.972656 -8.25 5.46875 -7.398438 6.1875 -6.890625 C 6.914062 -6.378906 7.847656 -6.253906 8.984375 -6.515625 C 10.109375 -6.765625 10.898438 -7.28125 11.359375 -8.0625 C 11.828125 -8.84375 11.925781 -9.828125 11.65625 -11.015625 L 8.96875 -22.890625 L 13.796875 -23.984375 L 16.46875 -12.140625 C 16.875 -10.359375 16.835938 -8.769531 16.359375 -7.375 C 15.878906 -5.976562 15.070312 -4.828125 13.9375 -3.921875 C 12.8125 -3.015625 11.46875 -2.382812 9.90625 -2.03125 C 8.34375 -1.675781 6.875 -1.664062 5.5 -2 C 4.125 -2.332031 2.9375 -3.03125 1.9375 -4.09375 C 0.945312 -5.164062 0.25 -6.59375 -0.15625 -8.375 L -2.828125 -20.21875 Z M 2.015625 -21.3125 "/></g></g></g><g fill="#4396c5" fill-opacity="1"><g transform="translate(408.154089, 33.301358)"><g><path d="M 8.984375 -1.8125 C 7.523438 -1.488281 6.164062 -1.429688 4.90625 -1.640625 C 3.65625 -1.859375 2.582031 -2.347656 1.6875 -3.109375 C 0.789062 -3.878906 0.175781 -4.90625 -0.15625 -6.1875 L 4.984375 -7.34375 C 5.234375 -6.632812 5.613281 -6.132812 6.125 -5.84375 C 6.644531 -5.5625 7.257812 -5.5 7.96875 -5.65625 C 8.675781 -5.820312 9.203125 -6.113281 9.546875 -6.53125 C 9.890625 -6.957031 9.992188 -7.460938 9.859375 -8.046875 C 9.742188 -8.546875 9.484375 -8.914062 9.078125 -9.15625 C 8.679688 -9.394531 8.21875 -9.5625 7.6875 -9.65625 C 7.15625 -9.75 6.421875 -9.832031 5.484375 -9.90625 C 4.109375 -10.007812 2.972656 -10.164062 2.078125 -10.375 C 1.179688 -10.59375 0.351562 -11.019531 -0.40625 -11.65625 C -1.164062 -12.300781 -1.6875 -13.25 -1.96875 -14.5 C -2.382812 -16.34375 -2.039062 -17.9375 -0.9375 -19.28125 C 0.164062 -20.632812 1.785156 -21.554688 3.921875 -22.046875 C 6.109375 -22.535156 7.988281 -22.40625 9.5625 -21.65625 C 11.144531 -20.914062 12.191406 -19.625 12.703125 -17.78125 L 7.484375 -16.609375 C 7.296875 -17.242188 6.941406 -17.691406 6.421875 -17.953125 C 5.910156 -18.222656 5.316406 -18.28125 4.640625 -18.125 C 4.054688 -18 3.617188 -17.738281 3.328125 -17.34375 C 3.035156 -16.945312 2.957031 -16.457031 3.09375 -15.875 C 3.238281 -15.226562 3.65625 -14.796875 4.34375 -14.578125 C 5.03125 -14.359375 6.0625 -14.1875 7.4375 -14.0625 C 8.8125 -13.914062 9.941406 -13.738281 10.828125 -13.53125 C 11.722656 -13.320312 12.546875 -12.90625 13.296875 -12.28125 C 14.046875 -11.65625 14.554688 -10.742188 14.828125 -9.546875 C 15.078125 -8.421875 15.019531 -7.332031 14.65625 -6.28125 C 14.289062 -5.238281 13.625 -4.316406 12.65625 -3.515625 C 11.6875 -2.710938 10.460938 -2.144531 8.984375 -1.8125 Z M 8.984375 -1.8125 "/></g></g></g></g></g><g transform="matrix(1, 0, 0, 1, 102, 273)"><g clip-path="url(#5a6b1c4a91)"><g fill="#ffffff" fill-opacity="1"><g transform="translate(32.093448, 261.913556)"><g><path d="M 7.046875 -1.453125 L -18.1875 -123.984375 L 6.015625 -128.96875 C 15.109375 -130.84375 22.117188 -130.265625 27.046875 -127.234375 C 31.972656 -124.210938 35.492188 -118.34375 37.609375 -109.625 C 38.972656 -104.039062 40.125 -98.972656 41.0625 -94.421875 C 42 -89.878906 42.875 -85.085938 43.6875 -80.046875 C 45.195312 -71.203125 44.285156 -64.414062 40.953125 -59.6875 C 37.617188 -54.96875 31.351562 -51.660156 22.15625 -49.765625 L 14.796875 -48.25 L 23.734375 -4.890625 Z M 11.78125 -62.9375 L 19.140625 -64.453125 C 25.566406 -65.773438 28.289062 -69.582031 27.3125 -75.875 C 26.507812 -80.820312 25.546875 -86.023438 24.421875 -91.484375 C 23.296875 -96.953125 22.128906 -102.117188 20.921875 -106.984375 C 19.316406 -113.140625 15.351562 -115.566406 9.03125 -114.265625 L 1.515625 -112.71875 Z M 11.78125 -62.9375 "/></g></g></g><g fill="#ffffff" fill-opacity="1"><g transform="translate(92.596332, 249.450345)"><g><path d="M 33.953125 -5.71875 C 24.753906 -3.820312 17.738281 -4.398438 12.90625 -7.453125 C 8.082031 -10.503906 4.628906 -16.550781 2.546875 -25.59375 C -3.078125 -50.3125 -8.195312 -75.175781 -12.8125 -100.1875 C -14.457031 -109.21875 -13.664062 -116.085938 -10.4375 -120.796875 C -7.207031 -125.503906 -0.992188 -128.804688 8.203125 -130.703125 C 17.390625 -132.597656 24.375 -132.015625 29.15625 -128.953125 C 33.9375 -125.890625 37.410156 -119.898438 39.578125 -110.984375 C 45.335938 -86.097656 50.457031 -61.234375 54.9375 -36.390625 C 56.5 -27.234375 55.6875 -20.304688 52.5 -15.609375 C 49.320312 -10.910156 43.140625 -7.613281 33.953125 -5.71875 Z M 31.140625 -19.34375 C 37.367188 -20.632812 39.988281 -24.210938 39 -30.078125 C 37.5625 -38.617188 35.921875 -47.488281 34.078125 -56.6875 C 32.234375 -65.882812 30.3125 -75.066406 28.3125 -84.234375 C 26.320312 -93.398438 24.363281 -102.15625 22.4375 -110.5 C 21.050781 -116.164062 17.242188 -118.351562 11.015625 -117.0625 C 4.671875 -115.757812 2.039062 -112.242188 3.125 -106.515625 C 4.539062 -98.066406 6.144531 -89.238281 7.9375 -80.03125 C 9.726562 -70.820312 11.617188 -61.632812 13.609375 -52.46875 C 15.609375 -43.300781 17.632812 -34.507812 19.6875 -26.09375 C 20.976562 -20.289062 24.796875 -18.039062 31.140625 -19.34375 Z M 31.140625 -19.34375 "/></g></g></g><g fill="#ffffff" fill-opacity="1"><g transform="translate(157.847576, 236.009001)"><g><path d="M 33.953125 -5.71875 C 24.753906 -3.820312 17.8125 -4.441406 13.125 -7.578125 C 8.4375 -10.710938 4.953125 -16.773438 2.671875 -25.765625 C 1.828125 -29.328125 1.082031 -32.796875 0.4375 -36.171875 C -0.195312 -39.554688 -0.742188 -43.117188 -1.203125 -46.859375 L 14.421875 -50.078125 C 15.085938 -45.847656 15.816406 -41.6875 16.609375 -37.59375 C 17.398438 -33.5 18.3125 -29.691406 19.34375 -26.171875 C 20.1875 -23.160156 21.546875 -21.101562 23.421875 -20 C 25.296875 -18.894531 27.867188 -18.675781 31.140625 -19.34375 C 34.296875 -20 36.46875 -21.195312 37.65625 -22.9375 C 38.851562 -24.675781 39.238281 -27.09375 38.8125 -30.1875 C 38.40625 -33.726562 37.890625 -36.894531 37.265625 -39.6875 C 36.640625 -42.488281 35.832031 -45.753906 34.84375 -49.484375 C 34.019531 -52.410156 32.875 -54.835938 31.40625 -56.765625 C 29.945312 -58.703125 27.816406 -59.753906 25.015625 -59.921875 L 14.234375 -60.40625 C 6.929688 -60.707031 1.5625 -62.738281 -1.875 -66.5 C -5.320312 -70.269531 -7.90625 -75.8125 -9.625 -83.125 C -10.195312 -85.882812 -10.773438 -88.691406 -11.359375 -91.546875 C -11.953125 -94.410156 -12.476562 -97.234375 -12.9375 -100.015625 C -14.5 -109.160156 -13.710938 -116.078125 -10.578125 -120.765625 C -7.453125 -125.453125 -1.191406 -128.765625 8.203125 -130.703125 C 16.984375 -132.515625 23.765625 -131.890625 28.546875 -128.828125 C 33.328125 -125.765625 36.804688 -119.722656 38.984375 -110.703125 C 39.609375 -108.171875 40.265625 -105.082031 40.953125 -101.4375 C 41.648438 -97.800781 42.332031 -94.140625 43 -90.453125 L 27.078125 -87.1875 C 26.378906 -91.082031 25.660156 -94.953125 24.921875 -98.796875 C 24.191406 -102.640625 23.320312 -106.476562 22.3125 -110.3125 C 20.90625 -116.082031 17.085938 -118.320312 10.859375 -117.03125 C 7.691406 -116.382812 5.488281 -115.1875 4.25 -113.4375 C 3.007812 -111.695312 2.59375 -109.328125 3 -106.328125 C 3.375 -102.992188 3.925781 -99.671875 4.65625 -96.359375 C 5.382812 -93.054688 6.191406 -89.789062 7.078125 -86.5625 C 7.960938 -83.238281 9.144531 -80.71875 10.625 -79 C 12.101562 -77.28125 14.34375 -76.351562 17.34375 -76.21875 L 26.96875 -75.96875 C 34.582031 -75.738281 40.117188 -73.660156 43.578125 -69.734375 C 47.046875 -65.816406 49.695312 -60.210938 51.53125 -52.921875 C 52.3125 -49.679688 52.914062 -46.878906 53.34375 -44.515625 C 53.769531 -42.160156 54.242188 -39.488281 54.765625 -36.5 C 56.316406 -27.351562 55.503906 -20.40625 52.328125 -15.65625 C 49.160156 -10.90625 43.035156 -7.59375 33.953125 -5.71875 Z M 33.953125 -5.71875 "/></g></g></g><g fill="#ffffff" fill-opacity="1"><g transform="translate(220.801214, 223.04095)"><g><path d="M 21.28125 -4.390625 L -0.9375 -112.21875 L -18.703125 -108.546875 L -21.71875 -123.25 L 30.203125 -133.953125 L 33.21875 -119.25 L 15.609375 -115.625 L 37.828125 -7.796875 Z M 21.28125 -4.390625 "/></g></g></g><g fill="#ffffff" fill-opacity="1"><g transform="translate(277.168459, 211.429654)"><g><path d="M 7.046875 -1.453125 L -18.1875 -123.984375 L -1.5 -127.421875 L 23.734375 -4.890625 Z M 7.046875 -1.453125 "/></g></g></g><g fill="#ffffff" fill-opacity="1"><g transform="translate(306.883825, 205.308476)"><g><path d="M 33.671875 -5.5 C 24.378906 -3.582031 17.363281 -4.1875 12.625 -7.3125 C 7.882812 -10.4375 4.472656 -16.519531 2.390625 -25.5625 C 0.710938 -33.195312 -1.03125 -41.300781 -2.84375 -49.875 C -4.664062 -58.445312 -6.4375 -67.023438 -8.15625 -75.609375 C -9.875 -84.191406 -11.46875 -92.328125 -12.9375 -100.015625 C -14.476562 -107.992188 -13.664062 -114.625 -10.5 -119.90625 C -7.332031 -125.1875 -1.203125 -128.765625 7.890625 -130.640625 C 16.878906 -132.492188 23.796875 -131.867188 28.640625 -128.765625 C 33.484375 -125.660156 36.929688 -119.640625 38.984375 -110.703125 C 39.648438 -107.960938 40.394531 -104.597656 41.21875 -100.609375 C 42.039062 -96.628906 42.679688 -93.253906 43.140625 -90.484375 L 26.625 -87.078125 C 25.925781 -90.441406 25.160156 -94.273438 24.328125 -98.578125 C 23.492188 -102.890625 22.671875 -106.765625 21.859375 -110.203125 C 20.554688 -115.992188 16.835938 -118.257812 10.703125 -117 C 4.566406 -115.738281 2 -112.179688 3 -106.328125 C 5.375 -93.296875 7.976562 -79.882812 10.8125 -66.09375 C 13.65625 -52.300781 16.5625 -38.957031 19.53125 -26.0625 C 20.945312 -20.1875 24.722656 -17.878906 30.859375 -19.140625 C 37.398438 -20.492188 40.113281 -24.140625 39 -30.078125 C 38.375 -33.671875 37.601562 -37.6875 36.6875 -42.125 C 35.769531 -46.5625 34.898438 -50.507812 34.078125 -53.96875 L 50.609375 -57.375 C 51.410156 -54.019531 52.175781 -50.554688 52.90625 -46.984375 C 53.644531 -43.421875 54.320312 -39.890625 54.9375 -36.390625 C 56.613281 -27.265625 55.785156 -20.304688 52.453125 -15.515625 C 49.128906 -10.734375 42.867188 -7.394531 33.671875 -5.5 Z M 33.671875 -5.5 "/></g></g></g><g fill="#ffffff" fill-opacity="1"><g transform="translate(369.377933, 192.435085)"><g><path d="M 3.515625 -0.71875 L -6.703125 -126.34375 L 20.875 -132.03125 L 61.125 -12.59375 L 44.265625 -9.125 L 35.03125 -39.15625 L 17.125 -35.46875 L 20.515625 -4.234375 Z M 15.640625 -50.328125 L 30.359375 -53.359375 L 22.203125 -79.78125 L 12.25 -114.921875 L 7.953125 -114.046875 L 12.71875 -77.828125 Z M 15.640625 -50.328125 "/></g></g></g><g fill="#ffffff" fill-opacity="1"><g transform="translate(431.412524, 179.656352)"><g><path d="M 7.046875 -1.453125 L -18.1875 -123.984375 L 7.546875 -129.28125 L 23.5 -92.03125 L 47.671875 -25.140625 L 51.1875 -25.875 L 35.921875 -85.3125 L 24.859375 -132.84375 L 40.9375 -136.15625 L 66.171875 -13.625 L 39.359375 -8.109375 L 22.453125 -48.375 L 0.71875 -112.71875 L -3.109375 -111.921875 L 12.125 -51.203125 L 23.125 -4.765625 Z M 7.046875 -1.453125 "/></g></g></g><g fill="#ffffff" fill-opacity="1"><g transform="translate(503.556525, 164.795144)"><g><path d="M 33.953125 -5.71875 C 24.753906 -3.820312 17.738281 -4.398438 12.90625 -7.453125 C 8.082031 -10.503906 4.628906 -16.550781 2.546875 -25.59375 C -3.078125 -50.3125 -8.195312 -75.175781 -12.8125 -100.1875 C -14.457031 -109.21875 -13.664062 -116.085938 -10.4375 -120.796875 C -7.207031 -125.503906 -0.992188 -128.804688 8.203125 -130.703125 C 17.390625 -132.597656 24.375 -132.015625 29.15625 -128.953125 C 33.9375 -125.890625 37.410156 -119.898438 39.578125 -110.984375 C 45.335938 -86.097656 50.457031 -61.234375 54.9375 -36.390625 C 56.5 -27.234375 55.6875 -20.304688 52.5 -15.609375 C 49.320312 -10.910156 43.140625 -7.613281 33.953125 -5.71875 Z M 31.140625 -19.34375 C 37.367188 -20.632812 39.988281 -24.210938 39 -30.078125 C 37.5625 -38.617188 35.921875 -47.488281 34.078125 -56.6875 C 32.234375 -65.882812 30.3125 -75.066406 28.3125 -84.234375 C 26.320312 -93.398438 24.363281 -102.15625 22.4375 -110.5 C 21.050781 -116.164062 17.242188 -118.351562 11.015625 -117.0625 C 4.671875 -115.757812 2.039062 -112.242188 3.125 -106.515625 C 4.539062 -98.066406 6.144531 -89.238281 7.9375 -80.03125 C 9.726562 -70.820312 11.617188 -61.632812 13.609375 -52.46875 C 15.609375 -43.300781 17.632812 -34.507812 19.6875 -26.09375 C 20.976562 -20.289062 24.796875 -18.039062 31.140625 -19.34375 Z M 31.140625 -19.34375 "/></g></g></g></g></g><g transform="matrix(1, 0, 0, 1, 109, 273)"><g clip-path="url(#12bf17b59b)"><g fill="#d9d9d9" fill-opacity="1"><g transform="translate(31.561784, 261.913556)"><g><path d="M 7.046875 -1.453125 L -18.1875 -123.984375 L 6.015625 -128.96875 C 15.109375 -130.84375 22.117188 -130.265625 27.046875 -127.234375 C 31.972656 -124.210938 35.492188 -118.34375 37.609375 -109.625 C 38.972656 -104.039062 40.125 -98.972656 41.0625 -94.421875 C 42 -89.878906 42.875 -85.085938 43.6875 -80.046875 C 45.195312 -71.203125 44.285156 -64.414062 40.953125 -59.6875 C 37.617188 -54.96875 31.351562 -51.660156 22.15625 -49.765625 L 14.796875 -48.25 L 23.734375 -4.890625 Z M 11.78125 -62.9375 L 19.140625 -64.453125 C 25.566406 -65.773438 28.289062 -69.582031 27.3125 -75.875 C 26.507812 -80.820312 25.546875 -86.023438 24.421875 -91.484375 C 23.296875 -96.953125 22.128906 -102.117188 20.921875 -106.984375 C 19.316406 -113.140625 15.351562 -115.566406 9.03125 -114.265625 L 1.515625 -112.71875 Z M 11.78125 -62.9375 "/></g></g></g><g fill="#d9d9d9" fill-opacity="1"><g transform="translate(92.064668, 249.450345)"><g><path d="M 33.953125 -5.71875 C 24.753906 -3.820312 17.738281 -4.398438 12.90625 -7.453125 C 8.082031 -10.503906 4.628906 -16.550781 2.546875 -25.59375 C -3.078125 -50.3125 -8.195312 -75.175781 -12.8125 -100.1875 C -14.457031 -109.21875 -13.664062 -116.085938 -10.4375 -120.796875 C -7.207031 -125.503906 -0.992188 -128.804688 8.203125 -130.703125 C 17.390625 -132.597656 24.375 -132.015625 29.15625 -128.953125 C 33.9375 -125.890625 37.410156 -119.898438 39.578125 -110.984375 C 45.335938 -86.097656 50.457031 -61.234375 54.9375 -36.390625 C 56.5 -27.234375 55.6875 -20.304688 52.5 -15.609375 C 49.320312 -10.910156 43.140625 -7.613281 33.953125 -5.71875 Z M 31.140625 -19.34375 C 37.367188 -20.632812 39.988281 -24.210938 39 -30.078125 C 37.5625 -38.617188 35.921875 -47.488281 34.078125 -56.6875 C 32.234375 -65.882812 30.3125 -75.066406 28.3125 -84.234375 C 26.320312 -93.398438 24.363281 -102.15625 22.4375 -110.5 C 21.050781 -116.164062 17.242188 -118.351562 11.015625 -117.0625 C 4.671875 -115.757812 2.039062 -112.242188 3.125 -106.515625 C 4.539062 -98.066406 6.144531 -89.238281 7.9375 -80.03125 C 9.726562 -70.820312 11.617188 -61.632812 13.609375 -52.46875 C 15.609375 -43.300781 17.632812 -34.507812 19.6875 -26.09375 C 20.976562 -20.289062 24.796875 -18.039062 31.140625 -19.34375 Z M 31.140625 -19.34375 "/></g></g></g><g fill="#d9d9d9" fill-opacity="1"><g transform="translate(157.315912, 236.009001)"><g><path d="M 33.953125 -5.71875 C 24.753906 -3.820312 17.8125 -4.441406 13.125 -7.578125 C 8.4375 -10.710938 4.953125 -16.773438 2.671875 -25.765625 C 1.828125 -29.328125 1.082031 -32.796875 0.4375 -36.171875 C -0.195312 -39.554688 -0.742188 -43.117188 -1.203125 -46.859375 L 14.421875 -50.078125 C 15.085938 -45.847656 15.816406 -41.6875 16.609375 -37.59375 C 17.398438 -33.5 18.3125 -29.691406 19.34375 -26.171875 C 20.1875 -23.160156 21.546875 -21.101562 23.421875 -20 C 25.296875 -18.894531 27.867188 -18.675781 31.140625 -19.34375 C 34.296875 -20 36.46875 -21.195312 37.65625 -22.9375 C 38.851562 -24.675781 39.238281 -27.09375 38.8125 -30.1875 C 38.40625 -33.726562 37.890625 -36.894531 37.265625 -39.6875 C 36.640625 -42.488281 35.832031 -45.753906 34.84375 -49.484375 C 34.019531 -52.410156 32.875 -54.835938 31.40625 -56.765625 C 29.945312 -58.703125 27.816406 -59.753906 25.015625 -59.921875 L 14.234375 -60.40625 C 6.929688 -60.707031 1.5625 -62.738281 -1.875 -66.5 C -5.320312 -70.269531 -7.90625 -75.8125 -9.625 -83.125 C -10.195312 -85.882812 -10.773438 -88.691406 -11.359375 -91.546875 C -11.953125 -94.410156 -12.476562 -97.234375 -12.9375 -100.015625 C -14.5 -109.160156 -13.710938 -116.078125 -10.578125 -120.765625 C -7.453125 -125.453125 -1.191406 -128.765625 8.203125 -130.703125 C 16.984375 -132.515625 23.765625 -131.890625 28.546875 -128.828125 C 33.328125 -125.765625 36.804688 -119.722656 38.984375 -110.703125 C 39.609375 -108.171875 40.265625 -105.082031 40.953125 -101.4375 C 41.648438 -97.800781 42.332031 -94.140625 43 -90.453125 L 27.078125 -87.1875 C 26.378906 -91.082031 25.660156 -94.953125 24.921875 -98.796875 C 24.191406 -102.640625 23.320312 -106.476562 22.3125 -110.3125 C 20.90625 -116.082031 17.085938 -118.320312 10.859375 -117.03125 C 7.691406 -116.382812 5.488281 -115.1875 4.25 -113.4375 C 3.007812 -111.695312 2.59375 -109.328125 3 -106.328125 C 3.375 -102.992188 3.925781 -99.671875 4.65625 -96.359375 C 5.382812 -93.054688 6.191406 -89.789062 7.078125 -86.5625 C 7.960938 -83.238281 9.144531 -80.71875 10.625 -79 C 12.101562 -77.28125 14.34375 -76.351562 17.34375 -76.21875 L 26.96875 -75.96875 C 34.582031 -75.738281 40.117188 -73.660156 43.578125 -69.734375 C 47.046875 -65.816406 49.695312 -60.210938 51.53125 -52.921875 C 52.3125 -49.679688 52.914062 -46.878906 53.34375 -44.515625 C 53.769531 -42.160156 54.242188 -39.488281 54.765625 -36.5 C 56.316406 -27.351562 55.503906 -20.40625 52.328125 -15.65625 C 49.160156 -10.90625 43.035156 -7.59375 33.953125 -5.71875 Z M 33.953125 -5.71875 "/></g></g></g><g fill="#d9d9d9" fill-opacity="1"><g transform="translate(220.26955, 223.04095)"><g><path d="M 21.28125 -4.390625 L -0.9375 -112.21875 L -18.703125 -108.546875 L -21.71875 -123.25 L 30.203125 -133.953125 L 33.21875 -119.25 L 15.609375 -115.625 L 37.828125 -7.796875 Z M 21.28125 -4.390625 "/></g></g></g><g fill="#d9d9d9" fill-opacity="1"><g transform="translate(276.636795, 211.429654)"><g><path d="M 7.046875 -1.453125 L -18.1875 -123.984375 L -1.5 -127.421875 L 23.734375 -4.890625 Z M 7.046875 -1.453125 "/></g></g></g><g fill="#d9d9d9" fill-opacity="1"><g transform="translate(306.352161, 205.308476)"><g><path d="M 33.671875 -5.5 C 24.378906 -3.582031 17.363281 -4.1875 12.625 -7.3125 C 7.882812 -10.4375 4.472656 -16.519531 2.390625 -25.5625 C 0.710938 -33.195312 -1.03125 -41.300781 -2.84375 -49.875 C -4.664062 -58.445312 -6.4375 -67.023438 -8.15625 -75.609375 C -9.875 -84.191406 -11.46875 -92.328125 -12.9375 -100.015625 C -14.476562 -107.992188 -13.664062 -114.625 -10.5 -119.90625 C -7.332031 -125.1875 -1.203125 -128.765625 7.890625 -130.640625 C 16.878906 -132.492188 23.796875 -131.867188 28.640625 -128.765625 C 33.484375 -125.660156 36.929688 -119.640625 38.984375 -110.703125 C 39.648438 -107.960938 40.394531 -104.597656 41.21875 -100.609375 C 42.039062 -96.628906 42.679688 -93.253906 43.140625 -90.484375 L 26.625 -87.078125 C 25.925781 -90.441406 25.160156 -94.273438 24.328125 -98.578125 C 23.492188 -102.890625 22.671875 -106.765625 21.859375 -110.203125 C 20.554688 -115.992188 16.835938 -118.257812 10.703125 -117 C 4.566406 -115.738281 2 -112.179688 3 -106.328125 C 5.375 -93.296875 7.976562 -79.882812 10.8125 -66.09375 C 13.65625 -52.300781 16.5625 -38.957031 19.53125 -26.0625 C 20.945312 -20.1875 24.722656 -17.878906 30.859375 -19.140625 C 37.398438 -20.492188 40.113281 -24.140625 39 -30.078125 C 38.375 -33.671875 37.601562 -37.6875 36.6875 -42.125 C 35.769531 -46.5625 34.898438 -50.507812 34.078125 -53.96875 L 50.609375 -57.375 C 51.410156 -54.019531 52.175781 -50.554688 52.90625 -46.984375 C 53.644531 -43.421875 54.320312 -39.890625 54.9375 -36.390625 C 56.613281 -27.265625 55.785156 -20.304688 52.453125 -15.515625 C 49.128906 -10.734375 42.867188 -7.394531 33.671875 -5.5 Z M 33.671875 -5.5 "/></g></g></g><g fill="#d9d9d9" fill-opacity="1"><g transform="translate(368.846269, 192.435085)"><g><path d="M 3.515625 -0.71875 L -6.703125 -126.34375 L 20.875 -132.03125 L 61.125 -12.59375 L 44.265625 -9.125 L 35.03125 -39.15625 L 17.125 -35.46875 L 20.515625 -4.234375 Z M 15.640625 -50.328125 L 30.359375 -53.359375 L 22.203125 -79.78125 L 12.25 -114.921875 L 7.953125 -114.046875 L 12.71875 -77.828125 Z M 15.640625 -50.328125 "/></g></g></g><g fill="#d9d9d9" fill-opacity="1"><g transform="translate(430.88086, 179.656352)"><g><path d="M 7.046875 -1.453125 L -18.1875 -123.984375 L 7.546875 -129.28125 L 23.5 -92.03125 L 47.671875 -25.140625 L 51.1875 -25.875 L 35.921875 -85.3125 L 24.859375 -132.84375 L 40.9375 -136.15625 L 66.171875 -13.625 L 39.359375 -8.109375 L 22.453125 -48.375 L 0.71875 -112.71875 L -3.109375 -111.921875 L 12.125 -51.203125 L 23.125 -4.765625 Z M 7.046875 -1.453125 "/></g></g></g><g fill="#d9d9d9" fill-opacity="1"><g transform="translate(503.024861, 164.795144)"><g><path d="M 33.953125 -5.71875 C 24.753906 -3.820312 17.738281 -4.398438 12.90625 -7.453125 C 8.082031 -10.503906 4.628906 -16.550781 2.546875 -25.59375 C -3.078125 -50.3125 -8.195312 -75.175781 -12.8125 -100.1875 C -14.457031 -109.21875 -13.664062 -116.085938 -10.4375 -120.796875 C -7.207031 -125.503906 -0.992188 -128.804688 8.203125 -130.703125 C 17.390625 -132.597656 24.375 -132.015625 29.15625 -128.953125 C 33.9375 -125.890625 37.410156 -119.898438 39.578125 -110.984375 C 45.335938 -86.097656 50.457031 -61.234375 54.9375 -36.390625 C 56.5 -27.234375 55.6875 -20.304688 52.5 -15.609375 C 49.320312 -10.910156 43.140625 -7.613281 33.953125 -5.71875 Z M 31.140625 -19.34375 C 37.367188 -20.632812 39.988281 -24.210938 39 -30.078125 C 37.5625 -38.617188 35.921875 -47.488281 34.078125 -56.6875 C 32.234375 -65.882812 30.3125 -75.066406 28.3125 -84.234375 C 26.320312 -93.398438 24.363281 -102.15625 22.4375 -110.5 C 21.050781 -116.164062 17.242188 -118.351562 11.015625 -117.0625 C 4.671875 -115.757812 2.039062 -112.242188 3.125 -106.515625 C 4.539062 -98.066406 6.144531 -89.238281 7.9375 -80.03125 C 9.726562 -70.820312 11.617188 -61.632812 13.609375 -52.46875 C 15.609375 -43.300781 17.632812 -34.507812 19.6875 -26.09375 C 20.976562 -20.289062 24.796875 -18.039062 31.140625 -19.34375 Z M 31.140625 -19.34375 "/></g></g></g></g></g><g transform="matrix(1, 0, 0, 1, 141, 313)"><g clip-path="url(#7b95144358)"><g fill="#d9d9d9" fill-opacity="1"><g transform="translate(9.851771, 64.128733)"><g><path d="M 4.0625 -0.828125 L -6.109375 -35.4375 L -1.3125 -36.421875 L 2.671875 -21.96875 L 6.828125 -5.796875 L 7.828125 -6.015625 L 5.015625 -22.453125 L 4.328125 -37.359375 L 10.796875 -38.6875 L 16.046875 -24.71875 L 19.9375 -8.5 L 20.90625 -8.703125 L 18.390625 -25.203125 L 16.328125 -40.0625 L 21.125 -41.046875 L 25.484375 -5.25 L 17.46875 -3.59375 L 13.9375 -14.03125 L 8.859375 -34.0625 L 7.921875 -33.859375 L 11.171875 -13.453125 L 12.0625 -2.484375 Z M 4.0625 -0.828125 "/></g></g></g><g fill="#d9d9d9" fill-opacity="1"><g transform="translate(39.328847, 58.056642)"><g><path d="M 4.0625 -0.828125 L -6.109375 -35.4375 L -1.3125 -36.421875 L 2.671875 -21.96875 L 6.828125 -5.796875 L 7.828125 -6.015625 L 5.015625 -22.453125 L 4.328125 -37.359375 L 10.796875 -38.6875 L 16.046875 -24.71875 L 19.9375 -8.5 L 20.90625 -8.703125 L 18.390625 -25.203125 L 16.328125 -40.0625 L 21.125 -41.046875 L 25.484375 -5.25 L 17.46875 -3.59375 L 13.9375 -14.03125 L 8.859375 -34.0625 L 7.921875 -33.859375 L 11.171875 -13.453125 L 12.0625 -2.484375 Z M 4.0625 -0.828125 "/></g></g></g><g fill="#d9d9d9" fill-opacity="1"><g transform="translate(68.805923, 51.984551)"><g><path d="M 4.0625 -0.828125 L -6.109375 -35.4375 L -1.3125 -36.421875 L 2.671875 -21.96875 L 6.828125 -5.796875 L 7.828125 -6.015625 L 5.015625 -22.453125 L 4.328125 -37.359375 L 10.796875 -38.6875 L 16.046875 -24.71875 L 19.9375 -8.5 L 20.90625 -8.703125 L 18.390625 -25.203125 L 16.328125 -40.0625 L 21.125 -41.046875 L 25.484375 -5.25 L 17.46875 -3.59375 L 13.9375 -14.03125 L 8.859375 -34.0625 L 7.921875 -33.859375 L 11.171875 -13.453125 L 12.0625 -2.484375 Z M 4.0625 -0.828125 "/></g></g></g><g fill="#d9d9d9" fill-opacity="1"><g transform="translate(97.403083, 46.093717)"><g><path d="M 1.890625 -0.390625 L 0.859375 -5.40625 L 7.0625 -6.6875 L 8.09375 -1.671875 Z M 1.890625 -0.390625 "/></g></g></g></g></g><g transform="matrix(1, 0, 0, 1, 570, 458)"><g clip-path="url(#3af707d526)"><g fill="#d9d9d9" fill-opacity="1"><g transform="translate(9.749016, 59.282345)"><g><path d="M 1.890625 -0.390625 L 0.859375 -5.40625 L 7.0625 -6.6875 L 8.09375 -1.671875 Z M 1.890625 -0.390625 "/></g></g></g><g fill="#d9d9d9" fill-opacity="1"><g transform="translate(19.736019, 57.225085)"><g><path d="M 9.671875 -1.578125 C 6.992188 -1.035156 4.972656 -1.210938 3.609375 -2.109375 C 2.253906 -3.003906 1.28125 -4.75 0.6875 -7.34375 C 0.195312 -9.53125 -0.304688 -11.851562 -0.828125 -14.3125 C -1.347656 -16.78125 -1.851562 -19.242188 -2.34375 -21.703125 C -2.832031 -24.171875 -3.289062 -26.515625 -3.71875 -28.734375 C -4.15625 -31.015625 -3.921875 -32.914062 -3.015625 -34.4375 C -2.109375 -35.957031 -0.347656 -36.984375 2.265625 -37.515625 C 4.847656 -38.054688 6.832031 -37.878906 8.21875 -36.984375 C 9.613281 -36.097656 10.609375 -34.375 11.203125 -31.8125 C 11.398438 -31.019531 11.613281 -30.050781 11.84375 -28.90625 C 12.082031 -27.757812 12.269531 -26.789062 12.40625 -26 L 7.65625 -25.015625 C 7.445312 -25.984375 7.222656 -27.082031 6.984375 -28.3125 C 6.742188 -29.550781 6.507812 -30.664062 6.28125 -31.65625 C 5.90625 -33.3125 4.835938 -33.957031 3.078125 -33.59375 C 1.316406 -33.238281 0.582031 -32.222656 0.875 -30.546875 C 1.550781 -26.796875 2.296875 -22.941406 3.109375 -18.984375 C 3.921875 -15.023438 4.757812 -11.195312 5.625 -7.5 C 6.03125 -5.800781 7.113281 -5.128906 8.875 -5.484375 C 10.75 -5.878906 11.523438 -6.929688 11.203125 -8.640625 C 11.023438 -9.671875 10.800781 -10.828125 10.53125 -12.109375 C 10.269531 -13.390625 10.023438 -14.519531 9.796875 -15.5 L 14.546875 -16.484375 C 14.773438 -15.515625 14.992188 -14.515625 15.203125 -13.484375 C 15.410156 -12.460938 15.601562 -11.453125 15.78125 -10.453125 C 16.25 -7.835938 16.007812 -5.84375 15.0625 -4.46875 C 14.113281 -3.09375 12.316406 -2.128906 9.671875 -1.578125 Z M 9.671875 -1.578125 "/></g></g></g><g fill="#d9d9d9" fill-opacity="1"><g transform="translate(37.686234, 53.527455)"><g><path d="M 9.765625 -1.640625 C 7.117188 -1.085938 5.097656 -1.253906 3.703125 -2.140625 C 2.316406 -3.023438 1.328125 -4.757812 0.734375 -7.34375 C -0.878906 -14.445312 -2.351562 -21.59375 -3.6875 -28.78125 C -4.15625 -31.382812 -3.925781 -33.359375 -3 -34.703125 C -2.070312 -36.046875 -0.285156 -36.992188 2.359375 -37.546875 C 4.992188 -38.085938 7 -37.921875 8.375 -37.046875 C 9.75 -36.171875 10.742188 -34.453125 11.359375 -31.890625 C 13.023438 -24.722656 14.5 -17.578125 15.78125 -10.453125 C 16.226562 -7.828125 15.992188 -5.835938 15.078125 -4.484375 C 14.171875 -3.128906 12.398438 -2.179688 9.765625 -1.640625 Z M 8.953125 -5.5625 C 10.734375 -5.925781 11.484375 -6.953125 11.203125 -8.640625 C 10.785156 -11.085938 10.3125 -13.628906 9.78125 -16.265625 C 9.25 -18.910156 8.695312 -21.550781 8.125 -24.1875 C 7.550781 -26.820312 6.988281 -29.335938 6.4375 -31.734375 C 6.039062 -33.359375 4.953125 -33.988281 3.171875 -33.625 C 1.347656 -33.25 0.585938 -32.238281 0.890625 -30.59375 C 1.304688 -28.164062 1.769531 -25.628906 2.28125 -22.984375 C 2.789062 -20.335938 3.332031 -17.695312 3.90625 -15.0625 C 4.488281 -12.425781 5.070312 -9.90625 5.65625 -7.5 C 6.03125 -5.832031 7.128906 -5.1875 8.953125 -5.5625 Z M 8.953125 -5.5625 "/></g></g></g><g fill="#d9d9d9" fill-opacity="1"><g transform="translate(56.428377, 49.666691)"><g><path d="M 2.015625 -0.421875 L -5.234375 -35.625 L 2.90625 -37.296875 L 8.140625 -23.90625 L 12.8125 -7.078125 L 13.765625 -7.28125 L 11.3125 -24.5625 L 10.890625 -38.9375 L 18.984375 -40.609375 L 26.234375 -5.40625 L 21.46875 -4.421875 L 19.28125 -15.078125 L 15.9375 -35.5625 L 14.921875 -35.359375 L 16.984375 -14.1875 L 17.015625 -3.609375 L 11.203125 -2.40625 L 7.09375 -12.140625 L 0.625 -32.40625 L -0.390625 -32.203125 L 4.65625 -11.921875 L 6.828125 -1.40625 Z M 2.015625 -0.421875 "/></g></g></g></g></g></g></g></svg>